<ttFont>
<head>
    <!-- Most of this table will be recalculated by the compiler -->
    <tableVersion value="1.0"/>
    <fontRevision value="1.0"/>
    <checkSumAdjustment value="0xbb204bf3"/>
    <magicNumber value="0x5f0f3cf5"/>
    <flags value="00000000 00000011"/>
    <unitsPerEm value="2048"/>
    <created value="Thu Aug 15 19:18:02 2019"/>
    <modified value="Fri Aug 16 02:18:53 2019"/>
    <xMin value="-541"/>
    <yMin value="-514"/>
    <xMax value="3667"/>
    <yMax value="2065"/>
<macStyle value="00000000 00000010"/>
    <lowestRecPPEM value="3"/>
    <fontDirectionHint value="2"/>
    <indexToLocFormat value="0"/>
    <glyphDataFormat value="0"/>
  </head>
          <CharString index="0">
            rmoveto
            -245 122 -145 188 return
          </CharString>
          <CharString index="1">
            396 -276 269 return
          </CharString>
          <CharString index="2">
            159 133 99 180 50 vhcurveto
            -5 -20 -2 -35 -18 vvcurveto
            -136 -4 74 -65 136 hhcurveto
            return
          </CharString>
          <CharString index="3">
            -418 -515 -333 -360 -467 -6 return
          </CharString>
          <CharString index="4">
            rmoveto
            -89 callgsubr
            return
          </CharString>
          <CharString index="5">
            rmoveto
            -34 callsubr
            39 callsubr
            endchar
          </CharString>
          <CharString index="6">
            hvcurveto
            18 callsubr
            -33 84 rmoveto
            -115 -65 168 callsubr
            endchar
          </CharString>
          <CharString index="7">
            35 callsubr
            endchar
          </CharString>
          <CharString index="8">
            rmoveto
            385 268 248 341 280 131 callsubr
            84 callsubr
            183 callsubr
            endchar
          </CharString>
          <CharString index="9">
            -168 -788 432 0 return
          </CharString>
          <CharString index="10">
            -241 -50 97 -128 209 hhcurveto
            172 149 99 181 65 hvcurveto
            -4 -19 -5 -37 -18 vvcurveto
            -136 -3 76 -65 138 hhcurveto
            return
          </CharString>
          <CharString index="11">
            1515 rmoveto
            -197 -399 return
          </CharString>
          <CharString index="12">
            25 21 114 23 rlinecurve
            13 63 return
          </CharString>
          <CharString index="13">
            rmoveto
            -1147 hlineto
            -30 callsubr
            1203 0 -36 callsubr
            endchar
          </CharString>
          <CharString index="14">
            rmoveto
            -557 -59 -12 -62 42 -15 rlineto
            46 -20 11 -21 -13 -66 -109 -508 rcurveline
            return
          </CharString>
          <CharString index="15">
            36 callsubr
            endchar
          </CharString>
          <CharString index="16">
            rmoveto
            361 203 226 348 77 hvcurveto
            128 573 46 201 22 35 120 23 rlinecurve
            14 63 -385 0 -14 -63 rlineto
            114 -26 15 -35 -36 -198 -110 -563 rcurveline
            -254 -49 -135 -159 -209 hhcurveto
            -181 -91 callgsubr
            15 callgsubr
            endchar
          </CharString>
          <CharString index="17">
            79 0 574 391 rlineto
            8 vlineto
            return
          </CharString>
          <CharString index="18">
            -726 0 -14 -63 41 callsubr
            endchar
          </CharString>
          <CharString index="19">
            rmoveto
            223 1048 19 91 return
          </CharString>
          <CharString index="20">
            rmoveto
            39 callgsubr
            return
          </CharString>
          <CharString index="21">
            19 callsubr
            -20 callsubr
            66 callsubr
            endchar
          </CharString>
          <CharString index="22">
            rmoveto
            106 87 80 98 -1 hvcurveto
            94 -1 -76 73 -100 hhcurveto
            -107 return
          </CharString>
          <CharString index="23">
            2 callsubr
            endchar
          </CharString>
          <CharString index="24">
            -93 rlinecurve
            -223 -1048 -19 -91 return
          </CharString>
          <CharString index="25">
            99 -15 callsubr
          </CharString>
          <CharString index="26">
            1839 rmoveto
            -281 -127 return
          </CharString>
          <CharString index="27">
            rmoveto
            -501 -58 -13 -63 29 -9 56 -20 9 -18 8 -60 rlinecurve
            118 -1002 -105 -75 -227 -110 -131 -55 rlinecurve
            -21 397 vlineto
            46 73 53 71 63 74 rrcurveto
            94 107 113 131 86 103 268 321 154 280 -5 142 -3 124 -87 78 -116 -1 -108 -1 -88 -80 3 -114 4 -109 87 -85 106 1 21 1 20 3 19 5 -52 -145 -109 -167 -151 -191 rrcurveto
            endchar
          </CharString>
          <CharString index="28">
            rmoveto
            -99 -78 -76 -91 -89 68 -70 92 return
          </CharString>
          <CharString index="29">
            rmoveto
            158 -543 -92 -440 -19 -91 -26 -22 -120 -22 rlinecurve
            -13 -63 740 0 13 63 -108 23 -19 20 20 92 rlinecurve
            91 -51 callgsubr
            220 callsubr
            endchar
          </CharString>
          <CharString index="30">
            1143 rmoveto
            108 88 84 102 98 -77 77 return
          </CharString>
          <CharString index="31">
            141 -306 243 0 262 306 rlineto
            return
          </CharString>
          <CharString index="32">
            -87 -79 -100 hvcurveto
            -92 1 76 -74 102 hhcurveto
            endchar
          </CharString>
          <CharString index="33">
            rmoveto
            183 96 70 callgsubr
            return
          </CharString>
          <CharString index="34">
            1831 56 callsubr
            return
          </CharString>
          <CharString index="35">
            -556 -52 -13 -61 43 -16 return
          </CharString>
          <CharString index="36">
            1119 rmoveto
            317 173 return
          </CharString>
          <CharString index="37">
            77 callgsubr
            113 21 rlinecurve
            15 63 -722 0 -13 -63 97 -21 18 -20 -20 -94 rlinecurve
            -99 -469 -403 0 100 469 -68 callgsubr
            102 -23 18 -20 -19 -93 rlinecurve
            -223 -1046 -19 -92 -26 -21 -113 -23 rlinecurve
            -13 -63 return
          </CharString>
          <CharString index="38">
            78 callsubr
            -267 233 -47 0 -365 -233 rlineto
            return
          </CharString>
          <CharString index="39">
            1196 rmoveto
            687 hlineto
            47 221 rlineto
            -687 hlineto
            return
          </CharString>
          <CharString index="40">
            -140 306 -228 0 -262 -306 rlineto
            return
          </CharString>
          <CharString index="41">
            47 -19 12 -22 -15 -66 rlinecurve
            -268 -1260 return
          </CharString>
          <CharString index="42">
            -89 -83 -105 -96 77 -77 102 hvcurveto
            468 hmoveto
            return
          </CharString>
          <CharString index="43">
            1831 -60 callgsubr
            return
          </CharString>
          <CharString index="44">
            778 1031 rmoveto
            -547 -59 return
          </CharString>
          <CharString index="45">
            rmoveto
            -98 -79 -76 -91 -89 69 -70 return
          </CharString>
          <CharString index="46">
            -10 -48 rlineto
            2 5 26 3 return
          </CharString>
          <CharString index="47">
            -212 127 -76 0 return
          </CharString>
          <CharString index="48">
            1512 rmoveto
            98 -55 callsubr
            -99 -10 callsubr
            return
          </CharString>
          <CharString index="49">
            1522 rmoveto
            280 26 callsubr
            return
          </CharString>
          <CharString index="50">
            -13 -62 43 -15 46 -20 12 -21 -15 -66 rlinecurve
            return
          </CharString>
          <CharString index="51">
            1521 rmoveto
            45 213 return
          </CharString>
          <CharString index="52">
            79 76 92 89 -69 69 -91 return
          </CharString>
          <CharString index="53">
            rmoveto
            -133 86 -121 203 -47 vhcurveto
            -214 -24 -110 -99 -1 -126 -1 -101 74 -75 130 -34 rrcurveto
            -227 -13 -119 -66 -98 vvcurveto
            -129 213 -86 329 374 236 142 213 167 -119 116 -243 38 vhcurveto
            -189 28 rlineto
            -95 15 -31 28 33 vvcurveto
            30 22 22 38 7 vhcurveto
            41 -6 45 -2 49 -1 rrcurveto
            353 204 156 211 79 -28 76 -71 58 hvcurveto
            229 -44 24 116 -365 -11 rlineto
            26 -71 -93 16 -116 hhcurveto
            -351 -206 -144 -217 hvcurveto
            405 -87 rmoveto
            140 49 233 106 56 29 -53 -105 -145 -49 -230 -105 -55 -31 55 105 vhcurveto
            -277 -821 rmoveto
            66 41 50 73 17 vhcurveto
            173 -26 rlineto
            155 -25 45 -39 -66 vvcurveto
            -81 -92 -63 -156 -148 -91 71 96 vhcurveto
            endchar
          </CharString>
          <CharString index="54">
            432 0 145 683 rlineto
            108 22 67 69 162 callsubr
            return
          </CharString>
          <CharString index="55">
            rmoveto
            426 195 459 283 166 91 -165 -274 10 vhcurveto
            58 -2 72 424 rlineto
            55 -92 -180 52 -209 hhcurveto
            -511 -376 -316 -501 -4 hvcurveto
            return
          </CharString>
          <CharString index="56">
            rmoveto
            211 156 108 182 34 hvcurveto
            -74 hlineto
            -61 -22 -117 -40 -148 hhcurveto
            -149 -100 41 60 4 hvcurveto
            -73 hlineto
            -182 -45 111 -108 212 hhcurveto
            return
          </CharString>
          <CharString index="57">
            1122 rmoveto
            120 99 93 114 109 -86 86 -113 -121 -99 -93 -116 -108 86 -85 114 hvcurveto
            return
          </CharString>
          <CharString index="58">
            rmoveto
            -86 -395 24 callsubr
            endchar
          </CharString>
          <CharString index="59">
            1148 rmoveto
            113 1 99 79 36 290 rrcurveto
            return
          </CharString>
          <CharString index="60">
            rmoveto
            -556 -59 -13 -62 43 -15 45 -20 12 -21 return
          </CharString>
          <CharString index="61">
            922 1444 -33 callsubr
            return
          </CharString>
          <CharString index="62">
            -67 -65 -82 -1 vhcurveto
            -75 58 -60 79 vhcurveto
            return
          </CharString>
          <CharString index="63">
            -95 71 -134 -4 -6 0 -1 -6 hvcurveto
            return
          </CharString>
          <CharString index="64">
            68 callgsubr
            77 -77 102 hvcurveto
            return
          </CharString>
          <CharString index="65">
            rmoveto
            293 155 212 -155 return
          </CharString>
          <CharString index="66">
            1521 rmoveto
            655 -110 return
          </CharString>
          <CharString index="67">
            rmoveto
            217 157 92 155 return
          </CharString>
          <CharString index="68">
            -735 -264 -12 -59 rlineto
            return
          </CharString>
          <CharString index="69">
            rmoveto
            -505 -58 -13 -63 29 -9 rlineto
            55 -20 14 -18 4 -56 46 -815 rcurveline
            298 hlineto
            144 161 111 185 64 164 21 -510 rcurveline
            294 hlineto
            296 292 296 334 219 vvcurveto
            122 -88 79 -112 -108 -91 -78 -114 -109 84 -86 106 18 17 2 3 17 vhcurveto
            -63 -154 -125 -162 -146 -154 rrcurveto
            -28 843 -406 -61 8 -199 -5 -170 -81 -202 -120 -173 rlinecurve
            endchar
          </CharString>
          <CharString index="70">
            rmoveto
            -469 -4 363 -208 352 hhcurveto
            147 243 34 98 146 hvcurveto
            91 423 18 88 24 23 103 20 rlinecurve
            14 64 -640 0 -14 -64 rlineto
            101 -19 16 -21 -18 -90 -90 -443 rcurveline
            -16 -20 -39 -10 -41 hhcurveto
            -147 -108 138 294 426 197 459 285 169 93 -165 -274 10 hvcurveto
            59 -2 70 424 rlineto
            56 -92 -181 51 -210 hhcurveto
            -514 -380 -316 -501 -3 hvcurveto
            endchar
          </CharString>
          <CharString index="71">
            110 463 rlineto
            -59 hlineto
            -109 -269 -135 -100 -255 -15 rrcurveto
            -141 -6 132 627 118 -3 rlineto
            124 -6 24 -52 -171 vvcurveto
            55 hlineto
            111 527 rlineto
            -55 hlineto
            -63 -155 -46 4 callgsubr
            return
          </CharString>
          <CharString index="72">
            1399 1628 1444 rmoveto
            -1248 hlineto
            -90 callgsubr
            64 callsubr
            48 callsubr
            -106 callgsubr
            113 callsubr
            return
          </CharString>
          <CharString index="73">
            -131 1168 -352 0 -619 -1144 -103 -191 -39 -34 -98 -18 rlinecurve
            -13 -63 405 0 13 63 -125 23 -16 40 89 177 rlinecurve
            87 173 405 0 15 -192 return
          </CharString>
          <CharString index="74">
            rmoveto
            -592 hlineto
            -14 -63 114 -11 31 -90 -22 -100 rlinecurve
            -181 -821 -50 -228 -31 -46 -117 -21 rlinecurve
            -14 -64 388 0 14 64 -115 23 return
          </CharString>
          <CharString index="75">
            398 158 573 247 115 65 -103 -248 -403 -159 -569 -246 return
          </CharString>
          <CharString index="76">
            122 511 rlineto
            -58 hlineto
            -123 -294 -139 -123 -227 -16 rrcurveto
            -105 -5 return
          </CharString>
          <CharString index="77">
            -14 -63 102 -23 19 -19 -20 -83 callsubr
            -25 -21 -114 -23 rlinecurve
            -13 -63 return
          </CharString>
          <CharString index="78">
            rmoveto
            364 78 331 -78 12 53 -283 198 -47 0 -366 -198 rlineto
            return
          </CharString>
          <CharString index="79">
            rmoveto
            291 8 228 160 233 vvcurveto
            138 -91 88 -126 -139 return
          </CharString>
          <CharString index="80">
            1132 rmoveto
            115 93 89 108 104 -81 82 return
          </CharString>
          <CharString index="81">
            rmoveto
            364 78 332 -78 11 53 -282 198 return
          </CharString>
          <CharString index="82">
            -115 -95 -88 -111 -103 82 -81 109 hvcurveto
            return
          </CharString>
          <CharString index="83">
            rmoveto
            639 hlineto
            43 198 rlineto
            -639 hlineto
            endchar
          </CharString>
          <CharString index="84">
            rmoveto
            639 hlineto
            42 198 rlineto
            -639 hlineto
            endchar
          </CharString>
          <CharString index="85">
            rmoveto
            675 -94 11 51 -648 224 rlineto
            return
          </CharString>
          <CharString index="86">
            879 1496 43 callsubr
            return
          </CharString>
          <CharString index="87">
            130 71 92 68 hvcurveto
            13 64 rlineto
            -17 return
          </CharString>
          <CharString index="88">
            -12 -49 rlineto
            5 17 27 5 26 hhcurveto
            50 return
          </CharString>
          <CharString index="89">
            -14 -66 rlinecurve
            -157 -739 -57 -270 return
          </CharString>
          <CharString index="90">
            82 callsubr
            -227 173 return
          </CharString>
          <CharString index="91">
            1512 rmoveto
            97 80 76 92 89 return
          </CharString>
          <CharString index="92">
            79 75 94 87 -68 70 -93 hvcurveto
            endchar
          </CharString>
          <CharString index="93">
            1826 61 callsubr
            return
          </CharString>
          <CharString index="94">
            -547 -59 -57 callsubr
            return
          </CharString>
          <CharString index="95">
            -14 34 43 219 callsubr
            return
          </CharString>
          <CharString index="96">
            -71 hhcurveto
            -113 -1 -98 -78 -37 return
          </CharString>
          <CharString index="97">
            -79 -75 -94 -87 68 -70 93 hvcurveto
            return
          </CharString>
          <CharString index="98">
            rmoveto
            76 73 53 75 15 hvcurveto
            77 return
          </CharString>
          <CharString index="99">
            1883 rmoveto
            39 181 return
          </CharString>
          <CharString index="100">
            -59 callgsubr
            77 hlineto
            return
          </CharString>
          <CharString index="101">
            198 -88 callsubr
            return
          </CharString>
          <CharString index="102">
            13 59 -623 264 rlineto
            return
          </CharString>
          <CharString index="103">
            rmoveto
            104 488 64 -1 185 -685 523 0 13 61 -47 27 -23 28 -63 219 rlinecurve
            -196 711 134 113 181 152 76 43 117 27 rlinecurve
            13 63 -450 0 -13 -63 111 -23 6 -47 -148 -148 rlinecurve
            -401 -396 -65 -1 102 480 19 91 24 22 107 22 rlinecurve
            13 63 -717 0 -14 -63 101 -23 19 -19 -20 -83 callsubr
            -25 -21 -113 -23 rlinecurve
            -13 -63 717 0 14 63 -95 21 -18 21 20 93 rlinecurve
            endchar
          </CharString>
          <CharString index="104">
            rmoveto
            113 -1170 323 0 500 1046 87 -1046 338 0 556 1127 106 216 49 28 94 17 rlinecurve
            13 63 -402 0 -13 -63 110 -12 14 -46 -85 -194 rlinecurve
            -338 -761 -54 789 -13 174 19 30 108 20 rlinecurve
            14 63 -710 0 -13 -63 105 -14 11 -97 -57 -129 rlinecurve
            -340 -771 -49 790 -9 156 23 46 115 19 rlinecurve
            13 63 -738 0 -15 -63 79 -15 30 -31 16 -172 rlinecurve
            endchar
          </CharString>
          <CharString index="105">
            1683 682 198 rmoveto
            106 499 403 0 -106 -499 -67 callgsubr
            return
          </CharString>
          <CharString index="106">
            146 682 rlineto
            107 22 65 71 68 99 callgsubr
            76 -93 171 hhcurveto
            157 -20 callsubr
            -22 -30 -10 -31 hhcurveto
            -50 -22 33 81 17 hvcurveto
            81 380 rlineto
            240 51 -96 122 -210 hhcurveto
            -177 -150 -96 -179 -59 hvcurveto
            return
          </CharString>
          <CharString index="107">
            248 1173 19 91 26 20 118 24 rlinecurve
            13 63 -729 0 -14 -63 rlineto
            96 -21 20 -36 -25 -122 -214 -1004 rcurveline
            -19 -91 -24 -21 -114 -23 -13 -63 rcurveline
            return
          </CharString>
          <CharString index="108">
            122 596 rlineto
            80 44 114 53 131 hhcurveto
            54 45 -8 -13 32 hvcurveto
            15 31 19 58 62 vvcurveto
            104 -40 76 -96 -119 -75 -116 -275 -115 vhcurveto
            return
          </CharString>
          <CharString index="109">
            150 131 71 92 67 hvcurveto
            14 64 rlineto
            -17 -24 -29 -10 -32 hhcurveto
            -49 -22 33 81 16 hvcurveto
            157 735 -9 callgsubr
            return
          </CharString>
          <CharString index="110">
            1511 rmoveto
            -395 -7 hlineto
            340 -393 rlineto
            79 hlineto
            441 400 rmoveto
            -383 -7 hlineto
            235 -393 rlineto
            74 hlineto
            return
          </CharString>
          <CharString index="111">
            rmoveto
            201 165 95 107 62 hvcurveto
            13 64 rlineto
            152 callsubr
            -291 203 -162 248 vhcurveto
            endchar
          </CharString>
          <CharString index="112">
            hvcurveto
            -11 -53 rlineto
            22 27 51 15 51 hhcurveto
            76 41 -31 -56 -52 -43 -55 -108 -52 hvcurveto
            73 hlineto
            return
          </CharString>
          <CharString index="113">
            -34 -86 -173 -108 rlinecurve
            19 -59 363 74 246 137 76 360 rlinecurve
            endchar
          </CharString>
          <CharString index="114">
            rmoveto
            134 94 87 161 31 hvcurveto
            -74 hlineto
            -58 -13 -32 -25 -56 hhcurveto
            -32 return
          </CharString>
          <CharString index="115">
            1267 1187 hmoveto
            -31 callsubr
            0 callsubr
            return
          </CharString>
          <CharString index="116">
            -466 rmoveto
            -88 callgsubr
            return
          </CharString>
          <CharString index="117">
            -469 -4 361 -208 368 hhcurveto
            173 callsubr
          </CharString>
          <CharString index="118">
            -238 rrcurveto
            65 hlineto
            81 18 29 29 42 hhcurveto
            32 28 -11 -19 return
          </CharString>
          <CharString index="119">
            1132 rmoveto
            114 94 89 108 104 -82 82 -107 return
          </CharString>
          <CharString index="120">
            109 114 callsubr
            -20 callgsubr
            endchar
          </CharString>
          <CharString index="121">
            -75 130 161 50 -36 rlineto
            -91 125 78 -32 return
          </CharString>
          <CharString index="122">
            1348 776 1032 -87 callsubr
            return
          </CharString>
          <CharString index="123">
            1682 915 -24 -103 callsubr
            return
          </CharString>
          <CharString index="124">
            1749 812 118 callsubr
            return
          </CharString>
          <CharString index="125">
            -396 -5 280 -269 419 hhcurveto
            return
          </CharString>
          <CharString index="126">
            -204 -43 77 -93 172 hhcurveto
            156 return
          </CharString>
          <CharString index="127">
            rmoveto
            107 86 80 98 -1 hvcurveto
            94 -77 73 return
          </CharString>
          <CharString index="128">
            1533 rmoveto
            -129 -88 -51 -105 return
          </CharString>
          <CharString index="129">
            -285 rrcurveto
            73 hlineto
            102 21 35 35 return
          </CharString>
          <CharString index="130">
            164 368 -107 callsubr
            return
          </CharString>
          <CharString index="131">
            106 0 355 387 rlineto
            8 vlineto
            return
          </CharString>
          <CharString index="132">
            -83 -113 -138 -8 vhcurveto
            98 -10 return
          </CharString>
          <CharString index="133">
            128 210 -128 69 0 return
          </CharString>
          <CharString index="134">
            hlineto
            -104 -23 47 callsubr
            return
          </CharString>
          <CharString index="135">
            1519 rmoveto
            -86 -395 return
          </CharString>
          <CharString index="136">
            -743 -224 -11 -51 rlineto
            return
          </CharString>
          <CharString index="137">
            -62 callsubr
            92 98 return
          </CharString>
          <CharString index="138">
            rmoveto
            -151 -181 -57 -45 -113 -24 rrcurveto
            -13 -63 416 0 14 63 -113 23 2 50 119 162 rlinecurve
            204 272 104 -322 41 -118 -19 -41 -101 -24 rlinecurve
            -13 -63 761 0 14 63 -80 33 -26 33 -47 148 rlinecurve
            -168 524 274 329 148 181 59 44 112 24 rlinecurve
            14 63 -415 0 -14 -63 113 -23 -1 -50 -120 -162 rlinecurve
            -195 -266 -102 318 -43 126 22 36 99 21 rlinecurve
            13 63 -766 0 -13 -63 rlineto
            83 -31 27 -35 47 -148 167 -519 rcurveline
            endchar
          </CharString>
          <CharString index="139">
            497 hlineto
            13 61 rlineto
            -50 21 -32 45 -53 167 -127 407 rcurveline
            197 62 137 118 190 vvcurveto
            242 -217 131 -447 vhcurveto
            -642 hlineto
            -13 -63 104 -20 18 -21 -19 -91 rlinecurve
            -224 -1054 -19 -89 -25 -22 -114 -21 rlinecurve
            -15 -63 721 0 13 63 rlineto
            -94 21 -17 21 20 93 95 448 rcurveline
            102 hlineto
            305 450 rmoveto
            -186 -111 -174 -232 -15 vhcurveto
            -48 -2 136 650 37 -2 rlineto
            135 -7 83 -100 -164 vvcurveto
            return
          </CharString>
          <CharString index="140">
            rmoveto
            -631 hlineto
            -14 -63 113 -24 21 -48 -34 -140 rlinecurve
            -200 -815 -57 -223 -29 -49 -123 -19 rlinecurve
            -13 -63 395 0 13 63 -114 19 -15 39 52 234 rlinecurve
            171 806 114 -1161 249 0 260 543 322 667 -177 -1016 -16 -88 -27 -22 -115 -21 rlinecurve
            -13 -63 722 0 14 63 -104 20 -14 21 16 90 rlinecurve
            185 1056 16 87 25 23 115 21 rlinecurve
            14 63 -645 0 -396 -896 rlineto
            endchar
          </CharString>
          <CharString index="141">
            13 63 rlineto
            -113 20 -20 22 19 90 78 357 rcurveline
            175 hlineto
            446 279 176 293 241 -168 182 -487 hvcurveto
            -657 hlineto
            -13 -63 rlineto
            104 -20 18 -22 -20 -90 -224 -1054 rcurveline
            -19 -89 -24 -22 -115 -21 -14 -63 rcurveline
            891 1370 rmoveto
            36 -2 rlineto
            132 -9 74 -106 -165 vvcurveto
            1 -267 -144 -181 -197 -12 -59 -3 rcurveline
            endchar
          </CharString>
          <CharString index="142">
            156 128 71 92 67 hvcurveto
            13 64 rlineto
            -17 -22 -29 -10 -33 hhcurveto
            -49 -22 33 81 17 hvcurveto
            154 722 -284 0 -149 -127 rlineto
            77 -22 -94 70 -143 hhcurveto
            -315 -224 -288 -383 hvcurveto
            439 -53 rmoveto
            219 76 370 162 46 30 -26 -33 10 vhcurveto
            -109 -507 rlineto
            -115 -29 -51 -64 -58 hhcurveto
            -48 -29 43 113 hvcurveto
            return
          </CharString>
          <CharString index="143">
            rmoveto
            200 166 93 109 64 hvcurveto
            13 64 rlineto
            157 callsubr
            -294 210 -159 236 vhcurveto
            176 983 rmoveto
            44 17 -38 -54 -124 -67 -162 -136 -45 hvcurveto
            -38 -14 rlineto
            224 5 67 213 108 hhcurveto
            return
          </CharString>
          <CharString index="144">
            73 68 45 65 14 hvcurveto
            64 13 -49 44 -72 hhcurveto
            -14 hlineto
            -72 67 callsubr
            375 hmoveto
            70 69 45 65 13 hvcurveto
            64 14 -49 44 -71 hhcurveto
            -15 hlineto
            -71 -69 -44 -64 -14 hvcurveto
            -65 -13 49 -45 72 hhcurveto
            return
          </CharString>
          <CharString index="145">
            rmoveto
            -556 -60 -12 -61 43 -16 rlineto
            45 -19 11 -22 -14 -66 -92 -441 rcurveline
            -241 -50 97 -127 209 hhcurveto
            172 149 193 callsubr
            endchar
          </CharString>
          <CharString index="146">
            13 -152 -28 -46 -132 -22 rlinecurve
            -14 -64 769 0 -26 callgsubr
            -857 283 rmoveto
            304 605 49 -605 rlineto
            return
          </CharString>
          <CharString index="147">
            rmoveto
            -547 -59 65 callsubr
            -98 callsubr
            1 callsubr
            endchar
          </CharString>
          <CharString index="148">
            102 -19 18 -23 -19 -83 callsubr
            -26 -21 -112 -23 rlinecurve
            -14 -63 726 0 13 -84 callgsubr
            return
          </CharString>
          <CharString index="149">
            11 hhcurveto
            54 31 -23 -37 -40 -37 -21 -60 -49 -39 15 18 -24 hvcurveto
            -13 -57 rlineto
            -70 44 87 -43 98 hhcurveto
            return
          </CharString>
          <CharString index="150">
            rmoveto
            -557 -52 -13 -61 44 -16 rlineto
            45 -19 12 -22 -14 -66 -210 -980 rcurveline
            -12 callgsubr
            return
          </CharString>
          <CharString index="151">
            1138 rmoveto
            251 129 179 228 4 hvcurveto
            -73 hlineto
            -98 -18 85 callgsubr
            return
          </CharString>
          <CharString index="152">
            -11 -49 rlineto
            5 16 27 5 27 hhcurveto
            49 44 -19 -38 -38 -40 -23 -64 -44 -40 13 20 -33 hvcurveto
            return
          </CharString>
          <CharString index="153">
            1320 163 368 -107 callsubr
            -63 callgsubr
            return
          </CharString>
          <CharString index="154">
            -34 -38 -51 hhcurveto
            -39 -33 14 25 -40 hvcurveto
            -35 22 rlineto
            36 -55 -59 24 return
          </CharString>
          <CharString index="155">
            -250 -1173 -19 -91 -28 -21 -123 -23 rlinecurve
            -13 -63 return
          </CharString>
          <CharString index="156">
            53 158 hhcurveto
            128 90 -52 -74 -4 0 -5 -1 -5 hvcurveto
            return
          </CharString>
          <CharString index="157">
            1119 rmoveto
            316 173 227 -75 callgsubr
            return
          </CharString>
          <CharString index="158">
            352 306 rmoveto
            -309 -5 hlineto
            194 -301 rlineto
            return
          </CharString>
          <CharString index="159">
            241 52 -96 121 -210 hhcurveto
            -96 callgsubr
            return
          </CharString>
          <CharString index="160">
            12 hhcurveto
            53 31 -23 -37 -40 -37 -21 -60 -48 -40 15 18 return
          </CharString>
          <CharString index="161">
            -75 0 141 -399 253 0 304 399 rlineto
            return
          </CharString>
          <CharString index="162">
            -99 -108 -87 -79 -100 1 vhcurveto
            -92 77 -74 101 vhcurveto
            endchar
          </CharString>
          <CharString index="163">
            rmoveto
            -168 -309 67 0 518 302 rlineto
            7 vlineto
            return
          </CharString>
          <CharString index="164">
            165 callsubr
            -69 -325 -83 177 callsubr
          </CharString>
          <CharString index="165">
            rmoveto
            66 14 callsubr
            -17 callgsubr
            endchar
          </CharString>
          <CharString index="166">
            -139 306 -228 0 -263 -306 rlineto
            return
          </CharString>
          <CharString index="167">
            52 -75 hhcurveto
            -15 hlineto
            -75 -73 -52 -77 -16 hvcurveto
            -75 return
          </CharString>
          <CharString index="168">
            rmoveto
            -394 -7 hlineto
            383 -302 rlineto
            63 hlineto
            return
          </CharString>
          <CharString index="169">
            rmoveto
            84 callsubr
            194 callsubr
            endchar
          </CharString>
          <CharString index="170">
            -119 -35 -152 hhcurveto
            -152 -104 35 51 return
          </CharString>
          <CharString index="171">
            234 107 108 188 20 rrcurveto
            26 2 return
          </CharString>
          <CharString index="172">
            -12 -62 42 -15 46 -20 11 -21 -14 -66 rlinecurve
            return
          </CharString>
          <CharString index="173">
            -21 -31 -10 -31 hhcurveto
            -49 -22 33 81 16 hvcurveto
            return
          </CharString>
          <CharString index="174">
            -67 -44 -64 -15 hvcurveto
            -65 -13 48 -45 72 hhcurveto
            return
          </CharString>
          <CharString index="175">
            -87 -79 -100 hvcurveto
            -92 1 77 -74 101 hhcurveto
            endchar
          </CharString>
          <CharString index="176">
            -172 -108 rlinecurve
            18 -59 364 74 return
          </CharString>
          <CharString index="177">
            812 486 -19 98 callsubr
            return
          </CharString>
          <CharString index="178">
            98 80 75 94 87 -69 70 -92 hvcurveto
            endchar
          </CharString>
          <CharString index="179">
            -95 callsubr
            -726 0 -14 -63 return
          </CharString>
          <CharString index="180">
            -12 -54 rlineto
            -60 49 84 -32 88 hhcurveto
            endchar
          </CharString>
          <CharString index="181">
            1318 rmoveto
            -122 133 -77 return
          </CharString>
          <CharString index="182">
            78 0 575 391 rlineto
            8 vlineto
            return
          </CharString>
          <CharString index="183">
            -5 hlineto
            278 -301 rlineto
            63 hlineto
            return
          </CharString>
          <CharString index="184">
            -98 -80 -75 -94 -87 69 -70 93 hvcurveto
            return
          </CharString>
          <CharString index="185">
            rmoveto
            359 92 320 -92 14 63 return
          </CharString>
          <CharString index="186">
            rmoveto
            246 -122 143 -188 return
          </CharString>
          <CharString index="187">
            rmoveto
            39 181 29 callsubr
            return
          </CharString>
          <CharString index="188">
            1547 rmoveto
            96 2 87 65 return
          </CharString>
          <CharString index="189">
            1541 rmoveto
            -317 -173 return
          </CharString>
          <CharString index="190">
            1534 rmoveto
            83 68 65 80 return
          </CharString>
          <CharString index="191">
            -280 205 -194 301 return
          </CharString>
          <CharString index="192">
            -115 -65 104 248 vhcurveto
            endchar
          </CharString>
          <CharString index="193">
            720 0 -93 callgsubr
            return
          </CharString>
          <CharString index="194">
            77 -58 60 -78 -83 -68 -65 -82 return
          </CharString>
          <CharString index="195">
            -107 -116 -98 callgsubr
            return
          </CharString>
          <CharString index="196">
            rmoveto
            -100 72 -80 108 112 72 70 185 83 vhcurveto
            28 59 10 -29 rlineto
            -181 64 86 -104 160 hhcurveto
            149 114 73 100 49 hvcurveto
            12 64 rlineto
            -16 -22 -26 -10 -32 hhcurveto
            -59 -43 45 118 -41 hvcurveto
            -104 296 52 85 16 28 14 25 14 21 rlinecurve
            -75 20 68 -54 84 hhcurveto
            104 79 80 100 101 -71 79 -109 -112 -72 -72 -182 -83 hvcurveto
            -30 -63 -108 309 -477 -57 -13 -63 33 -9 57 -18 16 -20 23 -66 rlinecurve
            152 -432 -50 -82 -16 -28 -14 -25 -14 -21 rlinecurve
            75 -20 -67 55 -85 hhcurveto
            -104 -79 -81 -100 hvcurveto
            endchar
          </CharString>
          <CharString index="197">
            rmoveto
            391 262 201 288 167 -78 123 -172 117 hvcurveto
            -100 72 rlineto
            -117 82 -46 66 92 vvcurveto
            113 90 84 129 171 102 -145 -284 13 vhcurveto
            58 hlineto
            71 411 rlineto
            55 -83 -168 52 -198 hhcurveto
            -409 -229 -211 -274 -173 70 -110 175 -118 hvcurveto
            99 -73 rlineto
            124 -86 45 -67 -99 vvcurveto
            -123 -98 -73 -132 -169 -154 135 306 4 vhcurveto
            -59 hlineto
            -71 -439 rlineto
            -49 98 187 -40 194 hhcurveto
            return
          </CharString>
          <CharString index="198">
            rmoveto
            324 323 295 378 67 hvcurveto
            256 45 -97 132 -164 hhcurveto
            -151 -96 -152 -176 15 hvcurveto
            209 -23 61 -138 -33 -158 rrcurveto
            -136 -29 -103 -84 -109 hhcurveto
            -120 -52 78 145 29 hvcurveto
            15 73 39 159 14 64 rrcurveto
            246 52 -78 97 -220 hhcurveto
            -115 -109 -37 -39 -62 hvcurveto
            -13 -61 rlineto
            5 11 15 2 14 hhcurveto
            64 14 -45 -118 -25 hvcurveto
            -15 -70 -50 -207 -15 -76 rrcurveto
            -258 -55 120 -152 280 hhcurveto
            endchar
          </CharString>
          <CharString index="199">
            rmoveto
            -50 64 150 -50 148 hhcurveto
            374 169 172 199 1 hvcurveto
            142 -70 91 -115 65 vhcurveto
            -96 56 -84 49 -34 42 1 61 rlinecurve
            66 45 41 84 130 83 -99 -171 11 vhcurveto
            58 hlineto
            48 270 rlineto
            37 -63 -122 40 -145 hhcurveto
            -329 -201 -139 -218 -143 77 -88 121 -68 hvcurveto
            96 -56 rlineto
            78 -46 27 -44 -60 vvcurveto
            -72 -1 -57 -49 -86 hhcurveto
            -141 -108 108 205 -2 hvcurveto
            -57 hlineto
            return
          </CharString>
          <CharString index="200">
            1659 933 -24 rmoveto
            429 353 330 473 385 -306 305 -377 -438 -342 -330 -473 -385 294 -305 387 hvcurveto
            1 51 rmoveto
            -354 -270 286 354 440 318 310 404 343 281 -285 -354 -440 -328 -311 -394 hvcurveto
            return
          </CharString>
          <CharString index="201">
            rmoveto
            75 74 53 75 15 hvcurveto
            77 17 -51 52 -76 hhcurveto
            -14 hlineto
            -76 -72 -52 -77 -17 hvcurveto
            -75 -15 49 -53 76 hhcurveto
            393 hmoveto
            75 73 53 75 15 hvcurveto
            77 17 -50 52 -75 hhcurveto
            -15 hlineto
            -76 -72 -52 -77 -17 hvcurveto
            -75 -16 51 -53 75 hhcurveto
            -297 -80 -87 callsubr
            -97 callsubr
            -84 callsubr
          </CharString>
          <CharString index="202">
            1513 805 -25 rmoveto
            361 203 226 348 77 hvcurveto
            128 573 46 201 22 35 120 23 rlinecurve
            14 63 -385 0 -14 -63 rlineto
            114 -26 15 -35 -36 -198 -110 -563 rcurveline
            -254 -49 -135 -159 -209 hhcurveto
            -181 -91 callgsubr
            15 callgsubr
            return
          </CharString>
          <CharString index="203">
            rmoveto
            -132 -687 rlineto
            -247 -47 99 -107 213 hhcurveto
            170 151 82 97 88 hvcurveto
            13 63 rlineto
            -23 -37 -46 -10 -47 hhcurveto
            -96 -54 46 121 29 hvcurveto
            16 71 110 396 57 198 rrcurveto
            endchar
          </CharString>
          <CharString index="204">
            779 1445 rmoveto
            -99 hlineto
            -310 -114 -7 -42 113 12 5 1 3 -3 -1 -5 rlinecurve
            -105 -491 -11 -53 -24 -15 -84 -12 rlinecurve
            -8 -42 468 0 8 42 -77 11 -19 15 12 55 rlinecurve
            return
          </CharString>
          <CharString index="205">
            rmoveto
            155 155 75 107 62 hvcurveto
            13 64 rlineto
            -28 -31 -43 -18 -52 hhcurveto
            -82 -40 54 117 25 hvcurveto
            116 548 167 callsubr
            -111 -521 rlineto
            -251 -53 100 -131 225 hhcurveto
            return
          </CharString>
          <CharString index="206">
            607 668 rmoveto
            297 118 233 210 -2 hvcurveto
            184 -2 -111 163 -205 hhcurveto
            -297 -119 -234 -208 3 hvcurveto
            -186 2 111 -162 205 hhcurveto
            return
          </CharString>
          <CharString index="207">
            rmoveto
            166 -136 149 -304 22 vhcurveto
            283 10 236 95 223 vvcurveto
            205 -208 124 -430 vhcurveto
            -658 hlineto
            -14 -63 rlineto
            102 -23 200 callsubr
            endchar
          </CharString>
          <CharString index="208">
            -53 75 hhcurveto
            393 hmoveto
            76 72 53 75 16 hvcurveto
            77 17 -50 52 -76 hhcurveto
            -15 hlineto
            -75 -73 -52 -77 -17 hvcurveto
            -75 -15 50 -53 76 hhcurveto
            return
          </CharString>
          <CharString index="209">
            rmoveto
            294 155 212 -155 70 -61 callgsubr
          </CharString>
          <CharString index="210">
            374 hmoveto
            71 69 45 65 13 hvcurveto
            64 14 -49 44 -72 hhcurveto
            -14 hlineto
            -71 -69 -44 -64 -14 hvcurveto
            -65 -13 49 -45 72 hhcurveto
            endchar
          </CharString>
          <CharString index="211">
            83 68 65 80 -102 callgsubr
            -75 58 -60 78 hvcurveto
            return
          </CharString>
          <CharString index="212">
            121 98 93 114 109 -86 86 -112 -122 -99 -93 -116 -108 86 -85 114 hvcurveto
            return
          </CharString>
          <CharString index="213">
            27 hvcurveto
            -76 hlineto
            -51 -19 63 callsubr
            1 hvcurveto
            -75 hlineto
            -155 -39 118 -92 216 hhcurveto
            endchar
          </CharString>
          <CharString index="214">
            rmoveto
            107 86 80 98 hvcurveto
            94 -1 -76 73 -100 hhcurveto
            -107 -88 -79 -100 1 hvcurveto
            -92 1 76 -74 101 hhcurveto
            endchar
          </CharString>
          <CharString index="215">
            172 callsubr
            -40 hvcurveto
            -39 164 callsubr
            39 hvcurveto
            40 -14 rlineto
            -17 51 50 -13 55 hhcurveto
            return
          </CharString>
          <CharString index="216">
            -22 -58 hhcurveto
            -33 -34 7 12 -42 hvcurveto
            -41 11 rlineto
            14 -52 -52 13 -57 hhcurveto
            -136 -95 -76 -136 return
          </CharString>
          <CharString index="217">
            1712 221 641 rmoveto
            18 callsubr
            -89 callgsubr
            151 callsubr
            return
          </CharString>
          <CharString index="218">
            -51 13 -54 hhcurveto
            -134 -95 -88 -160 -31 hvcurveto
            75 hlineto
            57 13 32 26 56 hhcurveto
            32 return
          </CharString>
          <CharString index="219">
            297 118 234 209 -2 hvcurveto
            185 -2 -111 162 -205 hhcurveto
            return
          </CharString>
          <CharString index="220">
            93 rlinecurve
            250 1173 24 -2 179 -19 65 -103 4 -240 rlinecurve
            58 hlineto
            return
          </CharString>
          <CharString index="221">
            463 rlineto
            -59 hlineto
            -110 -272 -152 -98 -275 -14 rrcurveto
            -149 -6 return
          </CharString>
          <CharString index="222">
            60 170 hhcurveto
            138 96 -60 -83 -5 0 -5 -1 -4 hvcurveto
            72 hlineto
            11 31 return
          </CharString>
          <CharString index="223">
            1694 294 671 rmoveto
            143 callsubr
            147 callsubr
            return
          </CharString>
          <CharString index="224">
            227 -173 75 0 -141 399 -253 0 -304 -399 rlineto
            return
          </CharString>
          <CharString index="225">
            153 callsubr
            -515 104 -44 callgsubr
            42 callgsubr
            return
          </CharString>
          <CharString index="226">
            1523 rmoveto
            -252 -129 -179 -228 -4 hvcurveto
            72 hlineto
            97 return
          </CharString>
          <CharString index="227">
            -2444 rmoveto
            134 hlineto
            519 2444 rlineto
            -134 hlineto
            return
          </CharString>
          <CharString index="228">
            1515 rmoveto
            -85 -399 79 0 411 393 rlineto
            6 vlineto
            return
          </CharString>
          <CharString index="229">
            167 223 130 96 122 122 -133 78 -166 return
          </CharString>
          <CharString index="230">
            hlineto
            10 28 6 33 36 vvcurveto
            140 -1 -105 125 -180 hhcurveto
            return
          </CharString>
          <CharString index="231">
            -130 -96 -123 vhcurveto
            243 -44 rmoveto
            108 46 93 60 return
          </CharString>
          <CharString index="232">
            18 -52 60 callsubr
            -15 49 101 callsubr
            endchar
          </CharString>
          <CharString index="233">
            0 748 -8 callsubr
            -743 -224 -12 -51 rlineto
            return
          </CharString>
          <CharString index="234">
            -10 -27 -7 -34 -36 vvcurveto
            -140 1 106 -125 180 hhcurveto
            return
          </CharString>
          <CharString index="235">
            1578 rmoveto
            619 hlineto
            40 187 rlineto
            -619 hlineto
            return
          </CharString>
          <CharString index="236">
            1548 rmoveto
            235 112 163 198 2 hvcurveto
            return
          </CharString>
          <CharString index="237">
            1458 rmoveto
            678 hlineto
            37 173 rlineto
            -679 hlineto
            return
          </CharString>
          <CharString index="238">
            -206 192 -300 -389 -264 -250 -337 return
          </CharString>
          <CharString index="239">
            -64 -48 -30 -59 1 rlinecurve
            -66 -65 27 64 -105 hvcurveto
            -84 52 return
          </CharString>
          <CharString index="240">
            106 hhcurveto
            171 166 117 247 119 hvcurveto
            return
          </CharString>
          <CharString index="241">
            56 rmoveto
            -38 -21 47 95 -2 hvcurveto
            13 callgsubr
            return
          </CharString>
          <CharString index="242">
            0 663 -56 callsubr
            -39 callsubr
            return
          </CharString>
          <CharString index="243">
            rmoveto
            377 439 -299 0 -146 -439 rlineto
            return
          </CharString>
          <CharString index="244">
            1522 rmoveto
            279 128 211 -128 return
          </CharString>
          <CharString index="245">
            1138 rmoveto
            252 129 179 228 return
          </CharString>
          <CharString index="246">
            102 91 124 111 -88 88 -124 -123 return
          </CharString>
          <CharString index="247">
            -1 -30 12 -38 23 -32 20 rcurveline
            33 -52 -55 21 return
          </CharString>
          <CharString index="248">
            -68 -65 -82 -75 58 -60 79 vhcurveto
            353 hmoveto
            83 return
          </CharString>
          <CharString index="249">
            1281 1048 -19 149 callsubr
            return
          </CharString>
          <CharString index="250">
            -520 -110 289 -176 334 hhcurveto
            return
          </CharString>
          <CharString index="251">
            rmoveto
            -91 78 -73 97 98 82 75 92 68 -42 59 -59 27 vhcurveto
            10 34 36 5 36 hhcurveto
            164 84 -98 -209 -40 hvcurveto
            -14 -72 -193 -23 rlineto
            -346 -43 -133 -122 -166 vvcurveto
            -141 114 -94 171 185 138 94 255 47 vhcurveto
            -228 17 202 -121 195 hhcurveto
            199 154 96 102 66 hvcurveto
            13 64 rlineto
            -43 -42 -79 -33 -77 hhcurveto
            -147 -91 108 227 -4 hvcurveto
            35 4 395 54 123 85 2 153 rlinecurve
            157 1 -158 87 -209 hhcurveto
            -136 -114 -37 -77 -101 hvcurveto
            77 -80 -106 37 -149 hhcurveto
            -270 -176 -106 -159 hvcurveto
            1122 186 rmoveto
            54 13 -82 -70 -5 hvcurveto
            -7 -117 -57 -104 -154 -24 -22 -3 rcurveline
            213 8 73 187 97 hhcurveto
            -838 -705 rmoveto
            96 62 115 154 33 vhcurveto
            41 6 -18 -93 rlineto
            -119 -22 -53 -135 -87 hhcurveto
            -46 -31 33 64 hvcurveto
            endchar
          </CharString>
          <CharString index="252">
            rmoveto
            -1114 hlineto
            -748 -1128 -134 -202 -56 -35 -92 -16 rlinecurve
            -13 -63 407 0 13 63 -118 22 -9 46 115 182 rlinecurve
            181 286 408 0 -77 -392 -20 -100 -26 -22 -122 -22 rlinecurve
            -13 -63 1173 0 110 463 rlineto
            -58 hlineto
            -109 -268 -121 -100 -236 -16 rrcurveto
            -136 -6 123 627 104 -3 118 -8 24 -50 -3 -171 rlinecurve
            58 hlineto
            104 527 rlineto
            -57 hlineto
            -57 -156 -46 -53 -125 -8 rrcurveto
            -105 -4 118 597 125 -7 229 -15 39 -77 16 -265 rlinecurve
            59 hlineto
            -1011 361 rmoveto
            73 hlineto
            -134 -679 rlineto
            -369 hlineto
            endchar
          </CharString>
          <CharString index="253">
            1541 683 198 rmoveto
            104 488 64 -1 185 -685 523 0 13 61 -47 27 -23 28 -63 219 rlinecurve
            -196 711 134 113 181 152 76 43 117 27 rlinecurve
            13 63 -450 0 -13 -63 111 -23 6 -47 -148 -148 rlinecurve
            -401 -396 -65 -1 102 480 19 91 24 22 107 22 rlinecurve
            13 63 -717 0 -14 -63 101 -23 19 -19 -20 -83 callsubr
            -25 -21 -113 -23 rlinecurve
            -13 -63 717 0 14 63 -95 21 -18 21 20 93 rlinecurve
            return
          </CharString>
          <CharString index="254">
            361 204 227 347 76 hvcurveto
            183 834 32 -7 37 -5 39 1 rlinecurve
            174 3 116 82 134 vvcurveto
            115 -80 94 -103 38 vhcurveto
            -63 hlineto
            8 -13 3 -26 -25 vvcurveto
            -182 -111 -148 -219 vhcurveto
            -62 hlineto
            -13 -63 rlineto
            115 -26 12 -35 -31 -155 -123 -606 rcurveline
            -254 -51 -134 -159 -209 hhcurveto
            -180 -91 callgsubr
            139 659 19 92 25 19 117 25 rlinecurve
            13 63 -724 0 -13 -63 97 -23 18 -20 -19 -93 rlinecurve
            return
          </CharString>
          <CharString index="255">
            -155 -130 -92 -172 -51 vhcurveto
            58 256 -548 -59 65 callsubr
            -229 -1073 -15 -67 -20 -22 -99 -23 rlinecurve
            -13 -63 691 0 14 63 rlineto
            -124 25 -15 22 15 71 77 379 rcurveline
            -64 27 89 -58 125 63 callgsubr
            -75 -369 -163 -45 -31 25 33 -9 vhcurveto
            109 507 rlineto
            115 28 52 65 58 hhcurveto
            47 29 -43 -114 hvcurveto
            endchar
          </CharString>
          <CharString index="256">
            rmoveto
            144 117 79 94 46 hvcurveto
            13 64 rlineto
            -16 -17 -24 -8 -28 hhcurveto
            -48 -39 40 117 -37 hvcurveto
            -130 413 50 34 147 101 86 40 112 28 rlinecurve
            11 52 -474 0 -11 -52 121 -17 29 -45 -114 -96 rlinecurve
            -319 -270 204 957 -72 callsubr
            -66 callsubr
            431 0 99 463 32 25 51 -190 rlineto
            -206 54 85 -111 159 hhcurveto
            return
          </CharString>
          <CharString index="257">
            160 133 99 180 49 vhcurveto
            -4 -20 -2 -35 -18 vvcurveto
            -136 -4 75 -65 135 hhcurveto
            157 129 -86 callgsubr
            -23 -29 -10 -33 hhcurveto
            -48 -23 33 81 17 hvcurveto
            255 1199 -72 callsubr
            rlineto
            46 -19 12 -22 -14 -66 -71 -341 rcurveline
            64 -27 -89 56 -125 hhcurveto
            -315 -225 -288 -383 hvcurveto
            return
          </CharString>
          <CharString index="258">
            263 -123 205 -198 108 hvcurveto
            -8 46 51 -4 54 hhcurveto
            184 145 81 139 114 -80 97 -111 40 hvcurveto
            -62 hlineto
            7 -13 3 -26 -25 vvcurveto
            -170 -117 -157 -184 vhcurveto
            -108 -73 21 -128 hhcurveto
            -515 -333 -360 -467 -6 hvcurveto
            return
          </CharString>
          <CharString index="259">
            -50 -44 -81 -30 -74 hhcurveto
            -136 -113 93 245 253 110 188 165 24 24 -5 -8 22 hvcurveto
            -94 -5 -70 -75 -91 vvcurveto
            -97 77 -71 95 100 81 74 104 139 -119 131 -255 -354 -250 -259 -349 return
          </CharString>
          <CharString index="260">
            rmoveto
            409 -327 223 -441 vhcurveto
            -630 hlineto
            -14 -63 rlineto
            102 -23 19 -19 -20 -93 -223 -1048 rcurveline
            -19 -91 -25 -21 -113 -23 -14 -63 rcurveline
            632 hlineto
            622 451 309 503 hvcurveto
            return
          </CharString>
          <CharString index="261">
            rmoveto
            221 136 104 108 78 hvcurveto
            14 63 rlineto
            -61 -62 -113 -43 -112 hhcurveto
            -97 -50 39 66 65 30 46 100 34 hvcurveto
            53 17 rlineto
            208 67 106 87 190 vvcurveto
            177 return
          </CharString>
          <CharString index="262">
            -190 -668 rmoveto
            114 hlineto
            1291 1444 rlineto
            -115 hlineto
            -1101 -721 45 callgsubr
            931 -737 rmoveto
            112 callsubr
            27 callgsubr
            return
          </CharString>
          <CharString index="263">
            rmoveto
            137 95 75 137 25 hvcurveto
            -76 hlineto
            -49 -11 -32 109 callsubr
            -25 hvcurveto
            76 -82 callgsubr
            34 -7 -11 41 hvcurveto
            41 -11 rlineto
            -15 53 52 -12 56 hhcurveto
            endchar
          </CharString>
          <CharString index="264">
            -50 -42 -79 -30 -79 hhcurveto
            -135 -101 75 219 -11 hvcurveto
            58 16 rlineto
            349 93 148 76 165 vvcurveto
            140 -139 91 -229 -367 -262 -261 -347 return
          </CharString>
          <CharString index="265">
            17 71 -253 0 40 181 -438 -34 -31 -147 -131 0 -16 -71 132 0 -263 -1238 432 0 145 683 rlineto
            108 22 67 69 return
          </CharString>
          <CharString index="266">
            1446 rmoveto
            678 hlineto
            37 172 rlineto
            -679 hlineto
            261 -512 rmoveto
            79 62 57 80 81 -62 56 -79 -80 -63 -56 -81 -80 62 -57 81 hvcurveto
            return
          </CharString>
          <CharString index="267">
            -8 hvcurveto
            -11 -47 -46 -35 -87 -16 rrcurveto
            48 -36 178 24 96 55 20 99 rlinecurve
            93 21 -76 65 -124 hhcurveto
            -731 -596 -69 callsubr
            return
          </CharString>
          <CharString index="268">
            -50 19 -61 hhcurveto
            -96 -1 -84 -65 -31 -238 rrcurveto
            65 hlineto
            81 17 29 29 43 hhcurveto
            32 28 -11 -19 33 hvcurveto
            29 -18 rlineto
            -29 47 51 -21 60 hhcurveto
            return
          </CharString>
          <CharString index="269">
            66 99 callgsubr
            77 -93 170 hhcurveto
            157 -20 callsubr
            -22 -30 -10 -31 hhcurveto
            -50 -22 33 81 17 hvcurveto
            80 380 rlineto
            return
          </CharString>
          <CharString index="270">
            0 248 1163 19 93 25 21 109 21 rlinecurve
            13 63 -721 0 -13 -63 101 -21 19 -19 -20 -95 rlinecurve
            endchar
          </CharString>
          <CharString index="271">
            14 rlineto
            17 -51 -50 13 -55 hhcurveto
            -133 -96 -88 -160 -30 hvcurveto
            73 hlineto
            57 14 31 26 57 hhcurveto
            33 33 -9 -12 return
          </CharString>
          <CharString index="272">
            rmoveto
            205 963 20 91 -95 callsubr
            -725 0 -14 -63 101 -23 19 -19 -19 -93 rlinecurve
            -204 -956 return
          </CharString>
          <CharString index="273">
            1554 rmoveto
            188 172 104 226 57 hvcurveto
            -68 20 rlineto
            -180 -48 -135 -97 -146 hhcurveto
            -26 return
          </CharString>
          <CharString index="274">
            218 -16 24 114 -226 -19 53 255 -446 -55 -41 -195 -122 -40 -13 -60 114 0 return
          </CharString>
          <CharString index="275">
            105 247 398 157 573 248 115 65 -104 -247 -403 -159 -569 -246 hvcurveto
            return
          </CharString>
          <CharString index="276">
            -33 8 13 -41 hvcurveto
            -39 14 rlineto
            17 -51 111 callsubr
            34 -9 -12 39 -97 callgsubr
            endchar
          </CharString>
          <CharString index="277">
            rmoveto
            234 119 161 205 2 hvcurveto
            -68 hlineto
            -88 -16 -104 -54 -158 hhcurveto
            -128 -90 54 75 return
          </CharString>
          <CharString index="278">
            1547 rmoveto
            96 2 86 65 29 243 rrcurveto
            -64 hlineto
            -84 -19 -28 -30 -43 -54 callgsubr
            return
          </CharString>
          <CharString index="279">
            1443 rmoveto
            134 95 87 161 30 hvcurveto
            -73 hlineto
            -58 -14 -31 -25 -58 hhcurveto
            -32 -33 8 13 return
          </CharString>
          <CharString index="280">
            173 149 31 56 87 hvcurveto
            94 441 -59 -1 rlineto
            -251 -88 -167 83 callgsubr
          </CharString>
          <CharString index="281">
            37 35 -7 -12 31 hvcurveto
            -77 -11 -56 -65 -79 vvcurveto
            -89 71 -65 88 91 75 68 94 122 -119 return
          </CharString>
          <CharString index="282">
            1695 rmoveto
            -98 -87 -46 -70 -58 hvcurveto
            -10 -45 rlineto
            18 29 54 16 49 hhcurveto
            78 32 -34 -41 return
          </CharString>
          <CharString index="283">
            1496 rmoveto
            46 213 -735 -264 -13 -60 rlineto
            -51 -238 -31 callgsubr
            return
          </CharString>
          <CharString index="284">
            -174 -235 -139 rlinecurve
            17 -52 487 143 275 199 73 341 rlinecurve
            endchar
          </CharString>
          <CharString index="285">
            1854 rmoveto
            -112 -76 -42 -86 -51 hvcurveto
            -10 -45 rlineto
            18 26 44 13 46 hhcurveto
            66 return
          </CharString>
          <CharString index="286">
            1541 rmoveto
            -316 -173 -29 callgsubr
            252 0 305 399 rlineto
            return
          </CharString>
          <CharString index="287">
            438 1246 rmoveto
            -223 -1048 rlineto
            -19 -93 -25 -21 -114 -21 -13 -63 rcurveline
            return
          </CharString>
          <CharString index="288">
            32 32 48 hhcurveto
            35 1 31 -13 38 -23 rrcurveto
            32 -19 52 -33 55 -24 66 1 rlinecurve
            endchar
          </CharString>
          <CharString index="289">
            -297 -119 -233 -209 3 hvcurveto
            -186 2 111 -162 205 hhcurveto
            return
          </CharString>
          <CharString index="290">
            hvcurveto
            7 83 rmoveto
            -58 -31 60 133 86 callgsubr
            -83 -455 -138 hvcurveto
            return
          </CharString>
          <CharString index="291">
            1854 rmoveto
            697 hlineto
            31 146 rlineto
            -696 hlineto
            77 -454 rmoveto
            return
          </CharString>
          <CharString index="292">
            1315 1368 650 79 callsubr
            201 callsubr
            return
          </CharString>
          <CharString index="293">
            rmoveto
            -296 -39 135 -174 252 hhcurveto
            194 134 116 171 61 hvcurveto
            -166 -5 107 -121 186 hhcurveto
            354 245 328 340 44 hvcurveto
            248 32 -92 145 -164 hhcurveto
            -152 -96 -152 -177 16 hvcurveto
            174 -28 83 -122 -10 -159 rrcurveto
            -157 -9 -109 -96 -121 hhcurveto
            -139 -68 114 336 80 hvcurveto
            45 196 -340 0 -64 -304 rlineto
            -268 -57 -47 -74 -86 hhcurveto
            -102 -24 112 195 26 hvcurveto
            29 212 83 224 134 98 rrcurveto
            -31 50 -370 -30 -246 -245 -43 -316 rlinecurve
            endchar
          </CharString>
          <CharString index="294">
            rmoveto
            382 265 250 338 118 -37 103 -65 79 hvcurveto
            131 113 -46 53 -134 -116 rlineto
            77 -87 -121 44 -142 hhcurveto
            -385 -261 -252 -335 -121 38 -104 67 -80 hvcurveto
            -122 -106 46 -53 126 109 rlineto
            -74 86 119 -43 140 hhcurveto
            138 978 rmoveto
            62 32 -61 -137 -1 hvcurveto
            -23 0 -24 -2 -26 vhcurveto
            -305 -264 rlineto
            244 25 76 291 113 hhcurveto
            -130 -897 rmoveto
            -62 -32 62 136 1 hvcurveto
            21 0 21 1 22 vhcurveto
            305 264 rlineto
            -242 -26 -75 -284 -112 hhcurveto
            endchar
          </CharString>
          <CharString index="295">
            176 -55 151 -97 114 hvcurveto
            169 155 -50 54 -170 -157 rlineto
            109 -121 -168 63 -202 hhcurveto
            -515 -333 -360 -467 -6 hvcurveto
            -2 -177 54 -152 99 -113 rrcurveto
            -167 -154 49 -54 169 156 rlineto
            -109 121 170 -62 201 hhcurveto
            192 1407 rmoveto
            114 64 -101 -243 2 hvcurveto
            -582 -534 rlineto
            388 22 151 490 229 hhcurveto
            -225 -1323 rmoveto
            -114 -64 101 242 -2 hvcurveto
            582 535 rlineto
            -392 -22 -152 -486 -228 hhcurveto
            endchar
          </CharString>
          <CharString index="296">
            rmoveto
            161 110 89 155 101 hvcurveto
            -159 13 77 -80 150 hhcurveto
            122 98 57 60 57 hvcurveto
            15 65 rlineto
            -7 -11 -26 -7 -25 hhcurveto
            -67 -60 22 213 -29 hvcurveto
            -16 125 338 507 rlineto
            -373 hlineto
            -13 -43 -32 -86 -35 -91 rrcurveto
            145 -42 -93 96 -181 hhcurveto
            -316 -210 -212 -339 -44 hvcurveto
            -339 -46 162 -171 215 hhcurveto
            125 559 rmoveto
            310 41 50 96 76 hhcurveto
            69 23 -84 -274 -2 hvcurveto
            -8 -225 rlineto
            -131 -64 -57 -70 -66 hhcurveto
            -75 -26 91 287 39 hvcurveto
            endchar
          </CharString>
          <CharString index="297">
            rmoveto
            262 229 100 182 115 hvcurveto
            9 63 rlineto
            -76 -79 -138 -50 -134 hhcurveto
            -132 -68 46 74 5 hvcurveto
            87 4 92 38 149 hhcurveto
            78 hlineto
            -40 253 rlineto
            -57 hlineto
            -168 -49 53 73 7 hvcurveto
            77 7 71 59 170 hhcurveto
            59 52 -8 -13 44 hvcurveto
            -56 -19 -42 -52 -69 vvcurveto
            -81 55 -62 100 82 64 66 85 112 -80 123 -355 -341 -219 -117 -190 -14 vhcurveto
            -11 -128 87 -86 168 -24 -214 -20 -126 -95 -9 -128 rrcurveto
            -172 -16 160 -101 279 hhcurveto
            endchar
          </CharString>
          <CharString index="298">
            673 1224 rmoveto
            2 -105 -138 -29 -102 -4 -9 -47 rcurveline
            1 12 13 0 23 hhcurveto
            64 89 -30 -105 1 hvcurveto
            -105 2 -77 -70 -86 hhcurveto
            -30 -31 7 16 -27 hvcurveto
            43 7 33 35 43 vvcurveto
            51 -42 38 -52 -56 -39 -40 -50 -108 121 -61 125 197 175 94 164 -1 vhcurveto
            -2 88 -71 70 -129 25 125 11 116 57 -2 105 rrcurveto
            120 -1 -130 56 -118 hhcurveto
            -136 -134 -63 -157 -51 hvcurveto
            37 -14 rlineto
            75 39 54 27 69 hhcurveto
            72 51 -40 -62 1 hvcurveto
            return
          </CharString>
          <CharString index="299">
            147 686 rlineto
            103 22 58 71 63 hhcurveto
            59 19 -55 -90 -19 hvcurveto
            -150 -715 430 0 144 674 rlineto
            109 23 57 77 64 hhcurveto
            58 19 -55 -91 -19 hvcurveto
            -91 -434 rlineto
            19 callsubr
            131 -86 callgsubr
            -22 -30 -10 -32 hhcurveto
            -49 -22 33 81 16 hvcurveto
            82 380 rlineto
            240 52 -96 122 -204 hhcurveto
            -149 -152 -85 -176 -60 hvcurveto
            149 15 -87 112 -194 hhcurveto
            -170 -145 -94 -181 -56 hvcurveto
            56 267 -13 callsubr
            return
          </CharString>
          <CharString index="300">
            98 181 65 hvcurveto
            -3 -18 -6 -35 -18 vvcurveto
            -138 -3 76 -65 136 hhcurveto
            141 136 62 82 71 hvcurveto
            13 64 rlineto
            -17 -25 -28 -10 -32 hhcurveto
            -49 -23 33 80 18 hvcurveto
            143 679 rlineto
            -3 20 21 -2 22 hhcurveto
            143 119 73 128 107 -76 91 -152 42 hvcurveto
            -55 hlineto
            13 -18 8 -36 -42 vvcurveto
            -158 -147 -120 -321 -33 vhcurveto
            -129 -14 -12 -61 36 -15 rlineto
            45 -21 13 -21 -14 -66 -97 -451 rcurveline
            -106 -24 -63 -69 -65 hhcurveto
            -66 -22 54 97 21 hvcurveto
            return
          </CharString>
          <CharString index="301">
            385 268 245 337 172 -82 138 -128 85 vhcurveto
            -15 55 63 -10 67 hhcurveto
            202 132 81 136 111 -75 92 -145 43 hvcurveto
            -55 hlineto
            13 -18 8 -36 -40 vvcurveto
            -161 -123 -123 -170 vhcurveto
            -86 -70 24 -111 hhcurveto
            -389 -265 -249 -338 hvcurveto
            424 -198 rmoveto
            86 callgsubr
            -82 -455 -139 -58 -31 60 133 vhcurveto
            return
          </CharString>
          <CharString index="302">
            rmoveto
            -7 -34 -112 -37 -11 -59 111 0 -145 -934 -30 -196 -48 -105 -104 -19 rlinecurve
            43 27 29 48 55 vvcurveto
            87 -69 72 -84 -88 -71 -70 -91 -134 114 -97 161 299 233 180 684 113 vhcurveto
            83 509 236 -16 25 114 -252 -17 25 154 rlineto
            205 31 64 76 106 hhcurveto
            -51 -26 -35 -54 -61 vvcurveto
            -86 70 -70 85 89 71 71 88 139 -142 100 -212 -263 -202 -173 -330 -62 vhcurveto
            endchar
          </CharString>
          <CharString index="303">
            rmoveto
            -115 87 -84 131 185 119 126 271 196 vhcurveto
            570 799 110 154 44 34 105 22 rlinecurve
            13 63 -401 0 -13 -63 129 -20 8 -33 -100 -153 rlinecurve
            -321 -481 -137 529 -30 114 7 27 124 17 rlinecurve
            14 63 -754 0 -13 -63 96 -23 17 -30 39 -123 rlinecurve
            310 -957 -56 -75 -51 -55 -61 -33 rlinecurve
            16 26 10 31 34 vvcurveto
            112 -88 86 -106 -113 -86 -91 -109 vhcurveto
            endchar
          </CharString>
          <CharString index="304">
            rmoveto
            113 98 55 83 50 hvcurveto
            12 61 rlineto
            -13 -17 -25 -9 -24 hhcurveto
            -75 -46 92 98 35 8 32 12 25 hvcurveto
            361 18 247 241 328 vvcurveto
            280 131 callsubr
            -262 180 -187 270 -22 vhcurveto
            -167 -78 -75 -96 -99 vvcurveto
            -108 93 -79 144 vhcurveto
            68 540 rmoveto
            -58 -31 60 133 86 callgsubr
            -82 -455 -139 hvcurveto
            endchar
          </CharString>
          <CharString index="305">
            459 hlineto
            134 690 rlineto
            121 34 58 33 57 hhcurveto
            77 24 -62 -117 -24 hvcurveto
            -30 -141 -142 -656 -81 -328 rrcurveto
            465 hlineto
            3 16 218 1087 4 19 rrcurveto
            258 51 -96 119 -218 hhcurveto
            -187 -139 -98 -160 -64 hvcurveto
            161 14 -71 92 -172 hhcurveto
            -109 -112 -33 -43 -69 hvcurveto
            -13 -60 rlineto
            4 12 11 3 18 hhcurveto
            63 33 -36 -105 -23 hvcurveto
            -15 -77 -87 -392 -83 -295 rrcurveto
            endchar
          </CharString>
          <CharString index="306">
            rmoveto
            133 119 72 101 52 hvcurveto
            13 64 rlineto
            -13 -19 -22 -11 -31 hhcurveto
            -50 -38 29 83 -32 hvcurveto
            -170 446 44 42 12 13 12 12 10 11 rlinecurve
            -86 15 70 -64 88 hhcurveto
            101 84 82 101 -1 hvcurveto
            97 -1 -76 79 -104 hhcurveto
            -102 -52 -52 -99 -85 hvcurveto
            -335 -392 114 535 -557 -59 -57 callsubr
            -98 callsubr
            100 471 76 -232 rlineto
            -184 56 87 -74 152 hhcurveto
            endchar
          </CharString>
          <CharString index="307">
            19 -18 -20 -95 -223 -1047 rcurveline
            -19 -91 -25 -21 -113 -23 -14 -63 rcurveline
            630 hlineto
            526 368 140 310 hvcurveto
            -396 674 rmoveto
            -182 -109 -132 -187 -4 vhcurveto
            -66 -1 121 566 36 -2 rlineto
            127 -6 78 -94 -145 vvcurveto
            -104 -657 rmoveto
            -204 -118 -177 -258 -12 vhcurveto
            -38 -1 141 660 64 -4 rlineto
            121 -9 88 -93 -160 vvcurveto
            return
          </CharString>
          <CharString index="308">
            -148 -126 -85 -163 -52 vhcurveto
            154 705 -555 -52 -13 -61 43 -16 47 -19 11 -22 -14 -66 rlinecurve
            -268 -1260 282 0 151 126 rlineto
            -76 22 94 -72 143 hhcurveto
            315 224 289 383 hvcurveto
            -439 53 rmoveto
            -219 -75 -369 -163 -46 -30 25 33 -9 vhcurveto
            108 507 rlineto
            115 29 51 65 58 hhcurveto
            48 29 -43 -114 hvcurveto
            return
          </CharString>
          <CharString index="309">
            11 55 580 769 -175 -824 -19 -93 -25 -21 -109 -21 -83 callgsubr
            -102 21 -18 19 20 95 rlinecurve
            222 1048 20 93 25 21 113 21 rlinecurve
            13 63 -721 0 -13 -63 98 -21 18 -19 -20 -95 rlinecurve
            -11 -51 -580 -769 175 820 -68 callgsubr
            101 -23 19 -19 -19 -83 callsubr
            -26 -21 -113 -23 rlinecurve
            endchar
          </CharString>
          <CharString index="310">
            rmoveto
            -555 -60 -13 -62 47 -17 rlineto
            39 -17 13 -22 -12 -65 -74 -348 rcurveline
            -333 -70 195 -129 329 hhcurveto
            345 284 147 240 203 -179 86 -227 -93 -75 -14 -13 -38 hvcurveto
            -73 -353 rmoveto
            58 279 rlineto
            5 15 24 4 24 hhcurveto
            87 37 -60 -100 -146 -63 -205 -109 -74 -32 65 158 33 hvcurveto
            endchar
          </CharString>
          <CharString index="311">
            1524 rmoveto
            46 213 -735 -264 -13 -59 rlineto
            312 -306 rmoveto
            176 131 58 89 19 hvcurveto
            88 18 -105 58 -177 hhcurveto
            -74 hlineto
            -177 -130 -58 -88 -19 hvcurveto
            -89 -19 106 -58 176 hhcurveto
            60 56 rmoveto
            -20 hlineto
            -49 -19 37 54 11 hvcurveto
            54 12 35 37 48 hhcurveto
            20 hlineto
            47 21 -37 -54 -11 hvcurveto
            -54 -12 -37 -37 -46 hhcurveto
            return
          </CharString>
          <CharString index="312">
            rmoveto
            -378 hlineto
            -9 -42 66 -13 11 -26 -18 -72 rlinecurve
            -103 -420 -29 84 callgsubr
            -65 10 -8 20 26 118 rlinecurve
            85 405 69 -595 152 0 156 323 2 8 callgsubr
            -8 12 8 47 rlinecurve
            95 541 8 45 14 12 66 11 rlinecurve
            9 43 -386 -1 -199 -440 rlineto
            return
          </CharString>
          <CharString index="313">
            -5 -366 239 -258 367 -37 rrcurveto
            -169 -76 -69 -100 -97 vvcurveto
            -109 101 -77 143 102 93 48 90 38 vhcurveto
            13 61 rlineto
            -13 -12 -20 -10 -25 hhcurveto
            -70 -54 90 113 30 6 27 11 19 hvcurveto
            2 1 0 2 hhcurveto
            -33 84 rmoveto
            -115 -65 104 248 -32 callsubr
            hvcurveto
            endchar
          </CharString>
          <CharString index="314">
            132 -1169 352 0 610 1127 111 207 40 35 97 18 rlinecurve
            14 63 -406 0 -13 -63 123 -22 18 -42 -97 -193 rlinecurve
            -428 -850 -71 886 -12 152 27 46 133 22 rlinecurve
            13 64 -768 0 -13 -64 82 -16 36 -30 20 -171 rlinecurve
            return
          </CharString>
          <CharString index="315">
            -14 -63 744 0 13 63 -113 23 -24 20 20 92 rlinecurve
            104 489 102 -4 120 -7 25 -50 -1 -171 rlinecurve
            56 hlineto
            111 527 rlineto
            -56 hlineto
            -61 -156 -48 -54 -129 -8 rrcurveto
            -104 -4 129 611 116 -6 232 -16 45 -77 17 -265 rlinecurve
            58 hlineto
            endchar
          </CharString>
          <CharString index="316">
            -505 -58 -14 -63 30 -9 rlineto
            54 -20 14 -18 4 -56 56 -815 rcurveline
            298 hlineto
            358 366 235 278 199 vvcurveto
            125 -90 78 -114 -107 -88 -78 -114 -109 87 -86 106 19 17 2 4 17 vhcurveto
            -57 -136 -112 -141 -170 -192 rrcurveto
            return
          </CharString>
          <CharString index="317">
            -123 83 -41 39 -2 90 -2 116 99 66 138 0 193 1 91 -123 13 -202 rrcurveto
            57 hlineto
            51 312 -79 52 -134 41 -179 -1 rlinecurve
            -7 hlineto
            43 203 -54 0 -43 -204 rlineto
            -410 -21 -190 -202 -219 vvcurveto
            -177 95 -112 return
          </CharString>
          <CharString index="318">
            rmoveto
            393 237 256 331 278 -215 196 -298 -393 -238 -256 -330 -277 215 -198 299 hvcurveto
            -6 83 rmoveto
            -60 -27 62 134 268 88 432 128 59 27 -61 -135 -268 -89 -432 -126 hvcurveto
            endchar
          </CharString>
          <CharString index="319">
            0 120 1423 rmoveto
            76 74 53 75 15 hvcurveto
            77 16 -50 52 -77 hhcurveto
            -13 hlineto
            -76 -73 -52 -77 -16 hvcurveto
            -75 -16 50 -53 76 hhcurveto
            393 hmoveto
            74 74 53 75 15 hvcurveto
            77 16 -50 52 -74 hhcurveto
            -16 hlineto
            -75 -73 -52 -77 -16 hvcurveto
            -75 -16 51 -53 74 hhcurveto
            return
          </CharString>
          <CharString index="320">
            1145 rmoveto
            199 176 112 236 56 hvcurveto
            -69 17 rlineto
            -195 -51 -137 -96 -155 hhcurveto
            -34 -30 3 7 -27 hvcurveto
            73 18 56 67 81 vvcurveto
            101 -77 73 -98 -110 -73 -82 -107 -137 115 -98 186 vhcurveto
            return
          </CharString>
          <CharString index="321">
            923 1310 14 61 -1137 0 -106 -437 rlineto
            59 hlineto
            130 261 92 81 270 14 rrcurveto
            151 8 -925 -1310 -13 -61 rlineto
            -511 916 -44 callgsubr
            42 callgsubr
            endchar
          </CharString>
          <CharString index="322">
            -470 rmoveto
            95 97 36 68 78 hvcurveto
            13 62 rlineto
            -13 -25 -31 -7 -31 hhcurveto
            -66 -41 32 67 78 60 82 117 66 hvcurveto
            78 44 -74 0 -119 -52 rlineto
            -287 -128 -74 -70 -107 vvcurveto
            -90 85 -68 125 vhcurveto
            endchar
          </CharString>
          <CharString index="323">
            -441 -49 -138 -650 rlineto
            -100 -22 -54 -72 -68 hhcurveto
            -63 -18 53 93 19 hvcurveto
            153 725 -443 -47 -134 -653 rlineto
            -98 -23 -53 -73 -68 hhcurveto
            -63 -17 55 91 19 hvcurveto
            149 726 -553 -60 -13 return
          </CharString>
          <CharString index="324">
            18 -20 -20 -93 rlinecurve
            -247 -1163 -365 0 248 1166 20 91 22 23 104 18 rlinecurve
            13 63 -704 0 -13 -63 94 -18 15 -22 -19 -92 rlinecurve
            -248 -1166 -365 163 callsubr
          </CharString>
          <CharString index="325">
            1542 1568 450 rmoveto
            166 -136 149 -304 22 vhcurveto
            283 10 236 95 223 vvcurveto
            205 -208 124 -430 vhcurveto
            -658 hlineto
            -14 -63 rlineto
            102 -23 200 callsubr
            return
          </CharString>
          <CharString index="326">
            240 rlinecurve
            149 775 451 -1136 350 0 246 1113 45 201 27 46 117 21 rlinecurve
            13 63 -387 0 -13 -63 rlineto
            114 -24 14 -33 -36 -211 -124 -666 rcurveline
            return
          </CharString>
          <CharString index="327">
            97 16 rlinecurve
            13 63 -390 0 -13 -63 112 -18 11 -39 -100 -156 rlinecurve
            -283 -440 -105 463 -32 138 21 35 104 17 rlinecurve
            13 63 -753 0 -13 -63 84 -17 28 -30 44 -153 rlinecurve
            return
          </CharString>
          <CharString index="328">
            -377 -1444 rmoveto
            225 hlineto
            30 142 99 0 31 152 -99 0 100 470 -164 0 -528 -552 -14 -70 rlineto
            349 hlineto
            34 152 rmoveto
            -214 hlineto
            278 299 rlineto
            endchar
          </CharString>
          <CharString index="329">
            14 -50 43 -71 hhcurveto
            -14 hlineto
            -72 -68 -43 -66 -14 hvcurveto
            -64 -13 48 -44 72 hhcurveto
            374 hmoveto
            71 68 44 64 14 hvcurveto
            66 13 -48 43 -72 hhcurveto
            -15 hlineto
            -70 -69 -43 -66 -14 hvcurveto
            -64 -14 50 -44 71 hhcurveto
            return
          </CharString>
          <CharString index="330">
            rrcurveto
            162 2 114 85 143 hhcurveto
            35 33 -5 -9 30 hvcurveto
            -70 -15 -53 -59 -77 vvcurveto
            -90 70 -69 89 90 71 72 90 150 -151 107 -260 -347 -230 -177 -275 -3 vhcurveto
            -1 return
          </CharString>
          <CharString index="331">
            1560 -8 callgsubr
            -738 0 -14 -63 rlineto
            101 -23 19 -19 -19 -93 -223 -1048 rcurveline
            -19 -91 -26 -21 -113 -23 -13 -63 rcurveline
            760 hlineto
            451 305 176 317 hvcurveto
            return
          </CharString>
          <CharString index="332">
            1513 rmoveto
            -60 -395 102 0 314 387 rlineto
            8 vlineto
            -645 -382 rmoveto
            98 -55 callsubr
            52 callgsubr
            -69 69 -92 -98 -80 -75 -94 -88 69 -69 93 hvcurveto
            endchar
          </CharString>
          <CharString index="333">
            551 1452 rmoveto
            -124 -60 -78 -128 -4 hvcurveto
            -2 -81 16 -83 19 -112 rrcurveto
            34 -198 38 0 96 165 rlineto
            77 133 73 117 96 vvcurveto
            97 1 -60 72 -104 hhcurveto
            return
          </CharString>
          <CharString index="334">
            -32 7 15 -26 hvcurveto
            43 7 32 36 43 vvcurveto
            51 -42 38 -52 -55 -40 -41 -49 vhcurveto
            -108 1 121 -62 125 hhcurveto
            197 174 94 165 -1 hvcurveto
            -1 87 -71 71 -129 25 return
          </CharString>
          <CharString index="335">
            1983 rmoveto
            -95 -85 -41 -59 -55 hvcurveto
            -8 -37 rlineto
            14 28 53 14 47 hhcurveto
            77 32 -29 -35 -7 hvcurveto
            -9 -39 -45 -30 -84 -14 rrcurveto
            47 -30 174 19 92 47 19 85 rlinecurve
            80 16 return
          </CharString>
          <CharString index="336">
            1141 191 298 rmoveto
            77 -51 157 -36 174 -3 rrcurveto
            -44 -208 51 0 44 207 rlineto
            386 6 177 157 206 vvcurveto
            130 -67 97 -199 81 vhcurveto
            return
          </CharString>
          <CharString index="337">
            131 89 111 -3 hvcurveto
            113 -2 -134 71 -167 hhcurveto
            -222 -131 75 callgsubr
            38 24 -26 -56 1 hvcurveto
            -99 1 -43 -85 -60 hhcurveto
            -37 -24 26 57 -2 hvcurveto
            endchar
          </CharString>
          <CharString index="338">
            119 -209 20 vhcurveto
            41 193 -52 0 -40 -190 rlineto
            -5 -5 50 callgsubr
            246 -12 hvcurveto
            -40 -189 rlineto
            19 688 rmoveto
            226 90 162 131 58 vhcurveto
            return
          </CharString>
          <CharString index="339">
            -96 -454 rcurveline
            -223 -47 90 -132 206 hhcurveto
            156 148 81 177 63 hvcurveto
            -162 -16 96 -96 190 hhcurveto
            160 153 94 185 58 hvcurveto
            -4 -18 -5 return
          </CharString>
          <CharString index="340">
            0 -13 -63 rlineto
            161 -17 41 -51 -33 -152 -15 -65 -22 -97 -32 -111 -68 -300 -56 -238 -77 -145 rrcurveto
            107 -14 -81 61 -95 hhcurveto
            -128 -73 -95 -108 return
          </CharString>
        <CharString name=".notdef">
          2048 32 -494 rmoveto
          134 hlineto
          519 2444 rlineto
          -134 hlineto
          -108 120 callsubr
          -110 120 callsubr
          -109 120 callsubr
          -109 120 callsubr
          endchar
        </CharString>
        <CharString name=".null">
          0 endchar
        </CharString>
        <CharString name="A">
          1472 1350 282 -102 callsubr
        </CharString>
        <CharString name="AE">
          1952 2147 1444 145 callsubr
        </CharString>
        <CharString name="AEacute">
          1952 1519 -64 callsubr
          210 -387 145 callsubr
        </CharString>
        <CharString name="AEmacron">
          1952 1162 -64 callgsubr
          946 -321 145 callsubr
        </CharString>
        <CharString name="Aacute">
          1472 1081 -64 callsubr
          -149 -1549 -102 callsubr
        </CharString>
        <CharString name="Abreve">
          1472 1060 129 callsubr
          -25 callgsubr
          127 callsubr
          290 -1266 -102 callsubr
        </CharString>
        <CharString name="Abreveacute">
          1472 1445 -8 callsubr
          -742 -224 -12 -51 rlineto
          293 -257 -40 callsubr
          26 hvcurveto
          -75 hlineto
          -51 -20 63 callsubr
          2 hvcurveto
          -75 hlineto
          -155 -39 117 -92 217 hhcurveto
          327 -1250 -102 callsubr
        </CharString>
        <CharString name="Abrevecyrillic">
          1472 1030 166 callsubr
          -25 2 5 -22 hvcurveto
          58 33 callgsubr
          320 -1272 -102 callsubr
        </CharString>
        <CharString name="Abrevedotbelow">
          1472 1060 129 callsubr
          -25 callgsubr
          127 callsubr
          290 -1266 rmoveto
          -34 callsubr
          39 callsubr
          -282 -679 -62 callsubr
          91 -82 callsubr
        </CharString>
        <CharString name="Abrevegrave">
          1472 751 1883 -30 callgsubr
          234 -532 -40 callsubr
          26 hvcurveto
          -75 hlineto
          -51 -20 63 callsubr
          2 hvcurveto
          -75 hlineto
          -155 -39 117 -92 217 hhcurveto
          327 -1250 -102 callsubr
        </CharString>
        <CharString name="Abrevehookabove">
          1472 1125 -1 callgsubr
          -46 -30 -88 -14 rrcurveto
          49 -30 183 20 96 46 17 85 rlinecurve
          80 17 -80 54 -126 hhcurveto
          -102 -510 -40 callsubr
          26 hvcurveto
          -75 hlineto
          -51 -20 63 callsubr
          2 hvcurveto
          -75 hlineto
          -155 -39 117 -92 217 hhcurveto
          327 -1250 -102 callsubr
        </CharString>
        <CharString name="Abrevetilde">
          1472 1223 1828 rmoveto
          138 41 callgsubr
          -42 hvcurveto
          -41 19 callgsubr
          58 hhcurveto
          34 35 -7 -11 40 hvcurveto
          41 -12 rlineto
          -14 53 52 -12 56 hhcurveto
          -200 -296 -40 callsubr
          26 hvcurveto
          -75 hlineto
          -51 -20 63 callsubr
          2 hvcurveto
          -75 hlineto
          -155 -39 117 -92 217 hhcurveto
          327 -1250 -102 callsubr
        </CharString>
        <CharString name="Acaron">
          1472 1340 1839 rmoveto
          -280 -127 -60 callsubr
          140 -306 244 0 262 306 rlineto
          -68 -1557 -102 callsubr
        </CharString>
        <CharString name="Acircumflex">
          1472 778 -58 callsubr
          -67 callsubr
          643 -1240 -102 callsubr
        </CharString>
        <CharString name="Acircumflexacute">
          1472 1441 1864 80 callsubr
          -58 -273 -26 callsubr
          -48 0 -365 -198 rlineto
          670 -1268 -102 callsubr
        </CharString>
        <CharString name="Acircumflexdotbelow">
          1472 778 -58 callsubr
          -67 callsubr
          643 -1240 rmoveto
          -34 callsubr
          39 callsubr
          -282 -679 -62 callsubr
          91 -82 callsubr
        </CharString>
        <CharString name="Acircumflexgrave">
          1472 747 1864 -30 callgsubr
          -117 -548 -26 callsubr
          -48 0 -365 -198 rlineto
          670 -1268 -102 callsubr
        </CharString>
        <CharString name="Acircumflexhookabove">
          1472 1418 1983 rmoveto
          -96 -84 -41 -59 -55 hvcurveto
          -8 -37 rlineto
          14 28 52 14 47 hhcurveto
          78 32 -29 -35 -8 hvcurveto
          -8 -39 -45 -30 -84 -14 rrcurveto
          47 -30 174 19 92 47 18 85 rlinecurve
          80 17 97 callgsubr
          -48 0 -365 -198 rlineto
          670 -1268 -102 callsubr
        </CharString>
        <CharString name="Acircumflextilde">
          1472 1219 55 callgsubr
          -33 -22 -57 hhcurveto
          -33 -34 7 11 -42 hvcurveto
          -41 18 callgsubr
          58 hhcurveto
          34 35 -7 -11 40 hvcurveto
          41 -12 rlineto
          -15 53 52 -11 56 hhcurveto
          -551 -312 -26 callsubr
          -48 0 -365 -198 rlineto
          670 -1268 -102 callsubr
        </CharString>
        <CharString name="Acyrillic">
          1472 1350 282 -102 callsubr
        </CharString>
        <CharString name="Adblgrave">
          1472 894 1822 rmoveto
          -318 -5 hlineto
          277 -301 rlineto
          63 hlineto
          51 callsubr
          59 hlineto
          138 -1234 -102 callsubr
        </CharString>
        <CharString name="Adieresis">
          1472 870 83 callsubr
          87 callsubr
          hvcurveto
          -75 -1 58 -60 79 hhcurveto
          353 hmoveto
          104 callsubr
          127 -1252 -102 callsubr
        </CharString>
        <CharString name="Adieresismacron">
          1472 744 79 callgsubr
          77 -454 rmoveto
          -70 callgsubr
          -68 -44 -64 -14 hvcurveto
          -65 -13 48 -45 72 hhcurveto
          374 hmoveto
          71 68 45 65 14 hvcurveto
          64 13 -48 44 -72 hhcurveto
          -15 hlineto
          -70 -69 -44 -64 -14 hvcurveto
          -65 -14 50 -45 71 hhcurveto
          152 -1264 -102 callsubr
        </CharString>
        <CharString name="Adotaccent">
          1472 1047 -59 callsubr
          303 -1230 -102 callsubr
        </CharString>
        <CharString name="Adotbelow">
          1472 1350 282 rmoveto
          -34 callsubr
          39 callsubr
          -282 -679 -62 callsubr
          91 -82 callsubr
        </CharString>
        <CharString name="Adotmacron">
          1472 738 -41 callgsubr
          66 callgsubr
          -2 -60 47 -76 hhcurveto
          -74 -58 -47 -69 2 hvcurveto
          -68 1 60 -48 76 hhcurveto
          297 -1257 -102 callsubr
        </CharString>
        <CharString name="Agrave">
          1472 1083 -14 callsubr
          215 -1235 -102 callsubr
        </CharString>
        <CharString name="Ahookabove">
          1472 1100 1854 rmoveto
          -112 -76 -103 callgsubr
          23 callgsubr
          88 -82 59 -107 vhcurveto
          250 -1572 -102 callsubr
        </CharString>
        <CharString name="Ainvertedbreve">
          1472 1069 1910 rmoveto
          -234 -39 callgsubr
          17 103 49 callsubr
          62 hlineto
          11 28 6 33 36 vvcurveto
          140 -1 -106 125 -180 hhcurveto
          281 -1628 -102 callsubr
        </CharString>
        <CharString name="Alphagreek">
          1472 1350 282 -102 callsubr
        </CharString>
        <CharString name="Alphatonosgreek">
          1472 1350 282 rmoveto
          -34 callsubr
          13 -152 -28 -46 -132 -22 rlinecurve
          -14 -64 769 0 -26 callgsubr
          -1030 1162 rmoveto
          -87 -395 24 callsubr
          -201 -879 rmoveto
          304 605 49 -605 rlineto
          endchar
        </CharString>
        <CharString name="Amacron">
          1472 724 -64 callgsubr
          587 -1483 -102 callsubr
        </CharString>
        <CharString name="Aogonek">
          1472 1062 56 callgsubr
          -25 -45 callgsubr
          327 hlineto
          -26 callgsubr
          -34 callsubr
          rlineto
          13 -152 -28 -46 -132 -22 -14 -64 rcurveline
          357 hlineto
          -174 -80 -72 -108 -105 vvcurveto
          -109 102 -77 142 vhcurveto
          -569 1044 rmoveto
          304 605 49 -605 rlineto
          endchar
        </CharString>
        <CharString name="Aring">
          1472 770 1717 rmoveto
          -111 119 -70 151 200 30 callgsubr
          219 -40 rmoveto
          96 40 84 55 34 20 -28 -56 -96 -40 -83 -55 -33 -21 26 57 vhcurveto
          361 -1395 -102 callsubr
        </CharString>
        <CharString name="Aringacute">
          1472 1442 1866 rmoveto
          38 181 -742 -224 -11 -51 rlineto
          331 -243 rmoveto
          167 122 43 67 14 hvcurveto
          66 14 -103 44 -167 hhcurveto
          -71 hlineto
          -168 -121 -44 -66 -15 hvcurveto
          -67 -13 102 -43 169 hhcurveto
          54 42 rmoveto
          -19 hlineto
          -47 -20 27 41 9 hvcurveto
          41 9 31 26 46 hhcurveto
          20 hlineto
          45 20 -26 -41 -8 hvcurveto
          -41 -8 -34 -27 -44 hhcurveto
          308 -1289 -102 callsubr
        </CharString>
        <CharString name="Aringbelow">
          1472 1350 282 rmoveto
          -34 callsubr
          39 callsubr
          -618 -850 -43 callgsubr
          230 callsubr
        </CharString>
        <CharString name="Atilde">
          1472 1169 81 callsubr
          -27 callgsubr
          -43 hhcurveto
          -32 -100 callgsubr
          161 callsubr
          181 -1265 -102 callsubr
        </CharString>
        <CharString name="B">
          1543 1568 450 100 callsubr
        </CharString>
        <CharString name="Bdotaccent">
          1542 1060 -59 callsubr
          508 -1062 100 callsubr
        </CharString>
        <CharString name="Bdotbelow">
          218 callsubr
          -334 -581 -79 callsubr
          -82 callsubr
        </CharString>
        <CharString name="Becyrillic">
          1517 1555 466 rmoveto
          244 -235 124 -333 vhcurveto
          -168 hlineto
          113 535 187 -6 274 -10 60 -69 6 -238 rlinecurve
          61 hlineto
          71 398 -1240 0 -14 -63 rlineto
          102 -23 19 -19 -19 -93 -223 -1048 rcurveline
          -19 -91 -26 -21 -114 -23 -13 -63 rcurveline
          761 hlineto
          445 305 164 302 hvcurveto
          -484 39 rmoveto
          -237 -133 -178 -225 -13 vhcurveto
          -55 -2 145 684 64 -1 rlineto
          125 -5 79 -81 -167 vvcurveto
          endchar
        </CharString>
        <CharString name="Betagreek">
          1542 1568 450 100 callsubr
        </CharString>
        <CharString name="Blinebelow">
          218 callsubr
          -682 -842 -42 callgsubr
        </CharString>
        <CharString name="C">
          1405 721 494 -52 callsubr
          10 callsubr
        </CharString>
        <CharString name="Cacute">
          1405 1196 -64 callsubr
          -893 -1337 -52 callsubr
          10 callsubr
        </CharString>
        <CharString name="Ccaron">
          1405 1455 -81 callsubr
          -107 callgsubr
          -811 -1345 -52 callsubr
          10 callsubr
        </CharString>
        <CharString name="Ccedilla">
          1405 721 494 -52 callsubr
          -4 -438 314 -209 341 -27 rrcurveto
          -137 -143 -61 callsubr
          42 callsubr
          -88 callgsubr
          -44 callsubr
          56 56 rlineto
          173 callsubr
        </CharString>
        <CharString name="Ccedillaacute">
          1405 1196 -64 callsubr
          -893 -1337 -52 callsubr
          -4 -438 314 -209 341 -27 rrcurveto
          -137 -143 -61 callsubr
          42 callsubr
          -88 callgsubr
          -44 callsubr
          56 56 rlineto
          173 callsubr
        </CharString>
        <CharString name="Ccircumflex">
          1405 893 -58 callsubr
          -67 callsubr
          -101 -1028 -52 callsubr
          10 callsubr
        </CharString>
        <CharString name="Cdotaccent">
          1405 1162 -59 callsubr
          -441 -1018 -52 callsubr
          10 callsubr
        </CharString>
        <CharString name="Checyrillic">
          1643 1044 198 rmoveto
          -20 -93 -33 -21 -133 -21 rrcurveto
          -13 -63 753 0 14 63 78 callgsubr
          113 21 rlinecurve
          14 63 -721 0 -14 -63 rlineto
          97 -21 19 -19 -20 -95 -111 -523 rcurveline
          -20 -57 -59 -14 -75 hhcurveto
          -124 -56 85 181 39 hvcurveto
          62 294 20 89 20 25 103 18 rlinecurve
          14 63 -711 0 -14 -63 rlineto
          103 -20 16 -21 -19 -91 -49 -228 rcurveline
          -298 -64 143 -152 346 hhcurveto
          145 107 29 38 92 hvcurveto
          endchar
        </CharString>
        <CharString name="Chigreek">
          1426 342 313 31 callsubr
        </CharString>
        <CharString name="D">
          1683 17 callsubr
          endchar
        </CharString>
        <CharString name="Dbar">
          1683 194 706 rmoveto
          129 hlineto
          -108 -508 rlineto
          -19 -91 -25 -21 -113 -23 -14 -63 rcurveline
          632 hlineto
          622 451 309 503 409 -327 223 -441 hvcurveto
          -630 hlineto
          -14 -63 rlineto
          102 -23 19 -19 -20 -93 -100 -472 rcurveline
          -130 hlineto
          1026 142 -44 callgsubr
          hlineto
          135 632 190 0 14 68 -190 0 128 598 30 -1 rlineto
          167 -12 104 -190 -253 vvcurveto
          endchar
        </CharString>
        <CharString name="Dcaron">
          1683 1392 -81 callsubr
          -60 callsubr
          -76 callsubr
          280 -1027 118 callsubr
          endchar
        </CharString>
        <CharString name="Dcircumflexbelow">
          1683 17 callsubr
          -838 -1372 102 callsubr
        </CharString>
        <CharString name="Dcommaaccent">
          1683 17 callsubr
          -591 -1381 -74 callsubr
          -19 callsubr
          48 callgsubr
        </CharString>
        <CharString name="Ddotaccent">
          1683 1099 -16 callsubr
          -70 69 -91 -98 -10 callsubr
          650 -700 118 callsubr
          endchar
        </CharString>
        <CharString name="Ddotbelow">
          1683 17 callsubr
          -541 -1030 30 callsubr
          -15 callsubr
        </CharString>
        <CharString name="Decyrillic">
          1509 635 934 rmoveto
          17 62 62 269 23 96 rrcurveto
          404 hlineto
          -273 -1278 rlineto
          -586 hlineto
          152 187 106 258 95 406 rrcurveto
          880 -851 rmoveto
          -179 hlineto
          248 1163 20 91 -95 callsubr
          -1311 0 -13 -63 rlineto
          165 -18 37 -53 -35 -161 -12 -50 -24 -99 -20 -66 -94 -398 -114 -271 -160 -182 rrcurveto
          -139 hlineto
          -101 -432 rlineto
          62 hlineto
          258 117 90 91 265 hhcurveto
          571 hlineto
          266 63 -82 -267 5 hvcurveto
          61 hlineto
          endchar
        </CharString>
        <CharString name="Deltagreek">
          1479 62 hmoveto
          1296 hlineto
          10 55 -182 1390 -345 0 -768 -1390 rlineto
          113 23 rmoveto
          580 1080 104 -1080 rlineto
          endchar
        </CharString>
        <CharString name="Djecyrillic">
          1843 1863 448 rmoveto
          255 -188 131 -264 -140 -107 -28 -34 -86 vhcurveto
          47 callgsubr
          73 437 -1249 0 -90 callgsubr
          233 97 109 179 20 rrcurveto
          26 2 48 callsubr
          750 0 92 callgsubr
          22 57 52 11 68 hhcurveto
          110 61 -69 -129 -312 -156 -370 -300 -163 hvcurveto
          18 -54 rlineto
          556 121 338 298 409 vvcurveto
          endchar
        </CharString>
        <CharString name="Dlinebelow">
          1683 17 callsubr
          -889 -1291 -23 callsubr
        </CharString>
        <CharString name="Dzecyrillic">
          1227 602 -25 90 callsubr
          endchar
        </CharString>
        <CharString name="Dzhecyrillic">
          1674 180 callsubr
          553 hlineto
          131 17 -44 -290 -10 hvcurveto
          61 hlineto
          290 112 37 44 131 hhcurveto
          553 hlineto
          14 -84 callgsubr
          222 1048 19 91 25 21 113 23 rlinecurve
          14 -85 callgsubr
          17 -20 -19 -93 rlinecurve
          -248 -1163 -392 163 callsubr
        </CharString>
        <CharString name="E">
          1300 1500 1444 -94 callsubr
        </CharString>
        <CharString name="Eacute">
          1300 1056 -64 callsubr
          26 -387 -94 callsubr
        </CharString>
        <CharString name="Ebreve">
          1300 1035 1548 -72 callgsubr
          -76 callgsubr
          74 callgsubr
          465 -104 -94 callsubr
        </CharString>
        <CharString name="Ecaron">
          1300 1315 -81 callsubr
          -107 callgsubr
          108 -395 -94 callsubr
        </CharString>
        <CharString name="Ecedilla">
          1300 642 9 callsubr
          -96 71 -134 -4 -5 0 -1 -6 hvcurveto
          72 72 2 9 502 0 -36 callsubr
          73 437 -1147 0 -30 callsubr
          -15 callgsubr
        </CharString>
        <CharString name="Ecedillabreve">
          1300 1035 1548 -72 callgsubr
          -76 callgsubr
          74 callgsubr
          -393 -2014 rmoveto
          -88 callgsubr
          -96 71 -134 -4 -5 0 -1 -6 hvcurveto
          72 72 2 9 502 0 -36 callsubr
          73 437 -1147 0 -30 callsubr
          -15 callgsubr
        </CharString>
        <CharString name="Ecircumflex">
          1300 753 -58 callsubr
          -67 callsubr
          818 -78 -94 callsubr
        </CharString>
        <CharString name="Ecircumflexacute">
          1300 1416 1864 80 callsubr
          -58 -273 -29 callsubr
          846 -106 -94 callsubr
        </CharString>
        <CharString name="Ecircumflexbelow">
          1300 1500 1444 rmoveto
          -1147 hlineto
          -30 callsubr
          1203 0 -36 callsubr
          -1076 -1463 -42 callsubr
          70 0 -134 -38 callgsubr
        </CharString>
        <CharString name="Ecircumflexdotbelow">
          1300 753 -58 callsubr
          -67 callsubr
          818 -78 rmoveto
          -1147 hlineto
          -30 callsubr
          1203 0 -36 callsubr
          -780 -1121 -62 callsubr
          -105 callgsubr
        </CharString>
        <CharString name="Ecircumflexgrave">
          1300 721 1864 -22 callsubr
          -116 -548 -29 callsubr
          846 -106 -94 callsubr
        </CharString>
        <CharString name="Ecircumflexhookabove">
          1300 1392 1983 rmoveto
          -95 -84 -41 -59 -56 hvcurveto
          -7 -37 rlineto
          14 28 52 14 47 hhcurveto
          77 32 -29 -35 -7 hvcurveto
          -9 -39 -44 -30 -85 -14 rrcurveto
          48 -30 173 19 93 47 18 85 rlinecurve
          80 17 -75 55 -123 hhcurveto
          -749 -486 -29 callsubr
          846 -106 -94 callsubr
        </CharString>
        <CharString name="Ecircumflextilde">
          1300 1194 26 callgsubr
          -33 -35 7 11 -41 hvcurveto
          -41 11 rlineto
          15 -53 -52 12 -56 hhcurveto
          -137 -94 -75 -137 -26 hvcurveto
          76 hlineto
          49 12 31 22 58 6 callgsubr
          846 -106 -94 callsubr
        </CharString>
        <CharString name="Ecyrillic">
          1407 721 494 rmoveto
          66 5 66 9 66 vhcurveto
          491 -17 26 116 -503 -15 rlineto
          324 63 167 279 220 hhcurveto
          166 92 -165 -274 10 hvcurveto
          58 -2 72 424 rlineto
          55 -92 -180 52 -209 hhcurveto
          -511 -377 -316 -501 -4 hvcurveto
          -469 -3 361 -208 368 hhcurveto
          172 149 31 56 87 hvcurveto
          95 441 -60 -1 rlineto
          -251 -87 -168 83 callgsubr
        </CharString>
        <CharString name="Edblgrave">
          1300 869 1822 rmoveto
          -319 76 callsubr
          51 callsubr
          58 hlineto
          314 -72 -94 callsubr
        </CharString>
        <CharString name="Edieresis">
          1300 845 83 callsubr
          87 callsubr
          -1 hvcurveto
          -75 58 -60 79 vhcurveto
          353 hmoveto
          83 68 65 80 -102 callgsubr
          hvcurveto
          -75 -1 58 -60 79 hhcurveto
          302 -90 -94 callsubr
        </CharString>
        <CharString name="Edotaccent">
          1300 1022 -16 callsubr
          -69 69 -91 -99 -10 callsubr
          478 -68 -94 callsubr
        </CharString>
        <CharString name="Edotbelow">
          1300 1500 1444 rmoveto
          -1147 hlineto
          -30 callsubr
          1203 0 -36 callsubr
          -780 -1121 -62 callsubr
          -105 callgsubr
        </CharString>
        <CharString name="Efcyrillic">
          2122 170 665 rmoveto
          -262 221 -151 494 -21 vhcurveto
          -13 -65 -18 -85 -24 -22 -119 -19 rlinecurve
          -13 -64 711 0 13 64 rlineto
          -108 19 -17 20 18 87 14 65 rcurveline
          648 25 275 229 293 vvcurveto
          262 -221 152 -495 20 vhcurveto
          14 66 18 85 24 22 119 19 rlinecurve
          14 64 -712 0 -14 -64 rlineto
          108 -19 18 -20 -19 -87 -14 -66 rcurveline
          -648 -26 -274 -228 -293 vvcurveto
          503 -35 rmoveto
          239 120 210 281 46 vhcurveto
          -170 -805 rlineto
          -169 37 -62 120 153 vvcurveto
          1076 183 rmoveto
          -239 -120 -210 -282 -46 vhcurveto
          170 805 rlineto
          170 -37 62 -120 -153 vvcurveto
          endchar
        </CharString>
        <CharString name="Egrave">
          1300 1058 -14 callsubr
          390 -73 -94 callsubr
        </CharString>
        <CharString name="Ehookabove">
          1300 1075 178 callsubr
          38 -26 -47 -46 -39 -35 callgsubr
          425 -410 -94 callsubr
        </CharString>
        <CharString name="Einvertedbreve">
          1300 1044 -66 callgsubr
          63 hlineto
          86 17 103 49 callsubr
          62 123 callsubr
          456 -466 -94 callsubr
        </CharString>
        <CharString name="Elcyrillic">
          1543 226 -25 rmoveto
          244 90 320 608 143 hvcurveto
          38 143 54 235 19 80 rrcurveto
          377 hlineto
          -247 -1163 -20 -93 -23 -21 -110 -21 -83 callgsubr
          78 callgsubr
          114 21 rlinecurve
          13 63 -1285 233 callsubr
          -115 81 -80 129 hvcurveto
          endchar
        </CharString>
        <CharString name="Emacron">
          1300 698 -65 callgsubr
          762 -321 -94 callsubr
        </CharString>
        <CharString name="Emacronacute">
          1300 1420 -8 callsubr
          29 callsubr
          -44 -206 -32 callgsubr
          808 -285 -94 callsubr
        </CharString>
        <CharString name="Emacrongrave">
          1300 725 1883 rmoveto
          676 -94 10 51 -648 224 rlineto
          -102 -481 -32 callgsubr
          808 -285 -94 callsubr
        </CharString>
        <CharString name="Emcyrillic">
          1906 1019 1444 33 callsubr
        </CharString>
        <CharString name="Encyrillic">
          -2 callsubr
          -70 callsubr
          86 callsubr
          endchar
        </CharString>
        <CharString name="Eogonek">
          1300 954 -479 rmoveto
          103 93 48 90 38 hvcurveto
          12 61 rlineto
          -13 -12 -19 -10 -25 -45 callgsubr
          207 hlineto
          110 463 rlineto
          -59 hlineto
          -109 -269 -135 -100 -255 -15 rrcurveto
          -141 -6 132 627 118 -3 rlineto
          124 -6 24 -52 -171 vvcurveto
          55 hlineto
          111 527 rlineto
          -55 hlineto
          -62 -155 -47 4 callgsubr
          73 437 -1147 0 -14 -63 rlineto
          102 -23 19 -19 -20 -93 -223 -1048 rcurveline
          -19 -91 -25 -21 -114 -23 -13 -63 rcurveline
          910 hlineto
          -174 -80 -71 -108 -105 vvcurveto
          -109 101 -77 142 vhcurveto
          endchar
        </CharString>
        <CharString name="Epsilongreek">
          1300 1500 1444 -94 callsubr
        </CharString>
        <CharString name="Epsilontonosgreek">
          1765 1965 1444 rmoveto
          -1146 hlineto
          -15 -63 102 -23 19 -19 -20 -83 callsubr
          -24 -21 -114 -23 rlinecurve
          -13 -63 1203 0 109 463 rlineto
          -58 hlineto
          -110 -269 -134 -100 -256 -15 rrcurveto
          -141 -6 133 627 118 -3 123 -6 25 -52 -1 -171 rlinecurve
          55 hlineto
          111 527 rlineto
          -55 hlineto
          -62 -155 -47 -55 -132 -8 rrcurveto
          -120 -4 126 598 133 -7 239 -15 45 -77 18 -265 rlinecurve
          58 hlineto
          -1559 437 -49 callsubr
        </CharString>
        <CharString name="Ercyrillic">
          1517 784 hmoveto
          34 callsubr
        </CharString>
        <CharString name="Ereversedcyrillic">
          1449 395 1365 rmoveto
          -83 -368 rlineto
          59 hlineto
          241 91 153 148 160 hhcurveto
          182 79 -208 -273 -47 -2 -48 -5 -48 hvcurveto
          -490 19 -25 -116 503 13 rlineto
          -320 -52 -160 -300 -242 hhcurveto
          -192 -94 185 205 -1 hvcurveto
          -60 hlineto
          -55 -366 rlineto
          -55 69 159 -52 193 hhcurveto
          599 357 342 471 435 -345 246 -399 -149 -157 -35 -69 -93 hvcurveto
          endchar
        </CharString>
        <CharString name="Escyrillic">
          1405 721 494 -52 callsubr
          10 callsubr
        </CharString>
        <CharString name="Etagreek">
          -2 callsubr
          -70 callsubr
          86 callsubr
          endchar
        </CharString>
        <CharString name="Etatonosgreek">
          2150 1149 198 rmoveto
          107 499 402 0 -106 -499 -67 callgsubr
          77 callgsubr
          114 21 rlinecurve
          14 63 -722 0 -13 -63 98 -21 17 -20 -20 -94 rlinecurve
          -99 -469 -402 0 99 469 19 91 25 21 110 23 rlinecurve
          13 63 -720 0 -15 -63 102 -23 18 -20 -19 -93 rlinecurve
          -222 -1046 -20 -92 -25 -21 -113 -23 rlinecurve
          -13 -63 719 0 15 63 -98 22 -18 20 19 93 rlinecurve
          -816 1246 -49 callsubr
        </CharString>
        <CharString name="Etilde">
          1300 1144 81 callsubr
          28 243 rrcurveto
          -64 hlineto
          -84 -18 -28 -30 -44 -54 callgsubr
          -84 -65 -32 -238 rrcurveto
          65 hlineto
          81 18 29 29 42 hhcurveto
          33 28 -11 -19 33 hvcurveto
          29 -18 rlineto
          -29 47 51 -21 60 hhcurveto
          356 -103 -94 callsubr
        </CharString>
        <CharString name="Etildebelow">
          1300 1500 1444 rmoveto
          -1147 hlineto
          -30 callsubr
          1203 0 -36 callsubr
          -663 -1443 rmoveto
          105 1 92 71 32 261 rrcurveto
          -68 hlineto
          -94 -20 -32 -33 -47 hhcurveto
          -37 140 callsubr
          -99 callgsubr
          68 hlineto
          91 19 181 callsubr
        </CharString>
        <CharString name="F">
          1269 1482 1444 rmoveto
          -1123 hlineto
          -14 -63 102 -23 18 -19 -19 -83 callsubr
          -25 -21 -113 -23 rlinecurve
          208 callsubr
        </CharString>
        <CharString name="Fdotaccent">
          1268 1047 -59 callsubr
          435 -68 rmoveto
          -1123 hlineto
          -14 -63 102 -23 18 -19 -19 -83 callsubr
          -25 -21 -113 -23 rlinecurve
          208 callsubr
        </CharString>
        <CharString name="G">
          1588 222 652 -37 callsubr
        </CharString>
        <CharString name="Gacute">
          1588 1213 -64 callsubr
          -1409 -1179 -37 callsubr
        </CharString>
        <CharString name="Gammagreek">
          1231 1488 1444 rmoveto
          -1131 hlineto
          -13 -63 102 -23 19 -19 -19 -83 callsubr
          -26 -21 -114 -23 rlinecurve
          -14 -63 746 0 14 63 -114 23 -24 20 20 92 rlinecurve
          248 1173 121 -6 244 -13 51 -66 3 -240 rlinecurve
          58 hlineto
          endchar
        </CharString>
        <CharString name="Gbreve">
          1588 1192 129 callsubr
          -25 callgsubr
          127 callsubr
          -970 -896 -37 callsubr
        </CharString>
        <CharString name="Gcaron">
          1588 1472 1839 rmoveto
          -280 -127 -60 callsubr
          -49 callgsubr
          -1328 -1187 -37 callsubr
        </CharString>
        <CharString name="Gcircumflex">
          1588 910 -58 callsubr
          -67 callsubr
          -617 -870 -37 callsubr
        </CharString>
        <CharString name="Gcommaaccent">
          1588 222 652 rmoveto
          -469 -4 363 -208 352 hhcurveto
          147 243 34 98 146 hvcurveto
          91 423 18 88 24 23 103 20 rlinecurve
          14 64 -640 0 -14 -64 rlineto
          101 -19 16 -21 -18 -90 -90 -443 rcurveline
          -16 -20 -39 -10 -41 hhcurveto
          -147 -108 138 294 426 197 459 285 169 93 -165 -274 10 hvcurveto
          59 -2 70 424 rlineto
          56 -92 -181 51 -210 hhcurveto
          -514 -380 -316 -501 -3 hvcurveto
          582 -1117 -74 callsubr
          -19 callsubr
          44 -19 -38 -38 -40 -23 -64 -73 callgsubr
        </CharString>
        <CharString name="Gdotaccent">
          1588 1179 -59 callsubr
          -957 -860 -37 callsubr
        </CharString>
        <CharString name="Geacutecyrillic">
          1229 1012 -73 callsubr
          58 -387 rmoveto
          -1130 hlineto
          -14 -63 102 -23 18 -19 -19 -83 callsubr
          -25 -21 -113 -23 rlinecurve
          -16 callgsubr
        </CharString>
        <CharString name="Gecyrillic">
          1229 1487 1444 rmoveto
          -1130 hlineto
          -14 -63 102 -23 18 -19 -19 -83 callsubr
          -25 -21 -113 -23 rlinecurve
          -16 callgsubr
        </CharString>
        <CharString name="Germandbls">
          1629 647 hmoveto
          286 1372 119 -7 rlineto
          184 -10 78 -98 -137 vvcurveto
          -142 -90 -86 -143 -8 vhcurveto
          -68 -321 rlineto
          151 -67 81 -109 -137 vvcurveto
          -123 -70 -72 -103 -111 -79 108 194 6 vhcurveto
          -59 hlineto
          -62 -301 rlineto
          -45 59 126 -36 133 hhcurveto
          306 255 162 302 209 -109 163 -187 84 hvcurveto
          215 10 163 85 171 vvcurveto
          180 -175 103 -362 vhcurveto
          -838 hlineto
          -14 -63 rlineto
          102 -23 20 -21 -20 -91 -221 -1048 rcurveline
          -18 -91 -26 -21 -113 -23 -13 -63 rcurveline
          endchar
        </CharString>
        <CharString name="Geupturncyrillic">
          1210 1447 1364 rmoveto
          111 468 rlineto
          -61 hlineto
          -288 -128 -116 -100 -279 hhcurveto
          -617 hlineto
          -14 -63 102 -23 18 -19 -20 -93 rlinecurve
          -222 -1048 -20 -91 -24 -21 -113 -23 rlinecurve
          -14 -63 750 0 13 63 rlineto
          -105 23 -38 20 19 92 248 1166 rcurveline
          endchar
        </CharString>
        <CharString name="Gmacron">
          1588 856 -64 callgsubr
          -673 -1113 -37 callsubr
        </CharString>
        <CharString name="H">
          -2 callsubr
          -70 callsubr
          86 callsubr
          endchar
        </CharString>
        <CharString name="Hacyrillic">
          1426 342 313 31 callsubr
        </CharString>
        <CharString name="Hardsigncyrillic">
          1757 1830 -8 callgsubr
          -983 0 -92 -391 rlineto
          61 hlineto
          116 253 59 50 199 12 rrcurveto
          15 1 -249 -1171 rlineto
          -19 -91 -25 -21 -115 -23 -13 -63 rcurveline
          761 hlineto
          451 305 176 317 hvcurveto
          -486 41 rmoveto
          -251 -134 -193 -227 -13 vhcurveto
          -56 -77 callgsubr
        </CharString>
        <CharString name="Hbar">
          -2 callsubr
          -102 21 -18 20 20 94 rlinecurve
          176 829 129 0 15 69 -129 0 32 150 19 93 25 21 113 21 rlinecurve
          14 63 -721 0 -13 -63 97 -21 18 -20 -20 -94 rlinecurve
          -32 -150 -402 0 32 150 -68 callgsubr
          102 -23 18 -19 -19 -93 rlinecurve
          -32 -150 -129 0 -15 -69 129 0 -176 -829 -19 -91 -26 -21 -112 -23 rlinecurve
          -14 -63 86 callsubr
          123 579 rmoveto
          53 250 403 0 -53 -250 rlineto
          endchar
        </CharString>
        <CharString name="Hbrevebelow">
          -2 callsubr
          -70 callsubr
          86 callsubr
          97 -657 170 callsubr
          4 0 5 1 4 hvcurveto
          37 callgsubr
        </CharString>
        <CharString name="Hcaron">
          1683 1485 1838 rmoveto
          -281 -127 -60 callsubr
          -76 callsubr
          -880 -1640 rmoveto
          106 499 403 0 -106 -499 -67 callgsubr
          -70 callsubr
          86 callsubr
          endchar
        </CharString>
        <CharString name="Hcedilla">
          1683 324 9 callsubr
          -95 71 -135 -3 -6 0 -1 -6 hvcurveto
          72 73 2 8 335 0 -93 callgsubr
          106 499 403 0 -106 -499 -67 callgsubr
          -70 callsubr
          313 0 -158 -165 -9 -48 rlineto
          2 5 26 3 11 hhcurveto
          54 31 -23 -37 -40 -37 -21 -60 -49 -39 15 18 -24 hvcurveto
          -13 -57 rlineto
          -70 44 86 -43 99 hhcurveto
          endchar
        </CharString>
        <CharString name="Hcircumflex">
          1683 923 1521 rmoveto
          279 26 callsubr
          59 callsubr
          -169 -1323 rmoveto
          106 499 403 0 -106 -499 -67 callgsubr
          -70 callsubr
          86 callsubr
          endchar
        </CharString>
        <CharString name="Hdieresis">
          1683 1015 1533 rmoveto
          82 68 65 80 1 hvcurveto
          78 -59 59 -77 -84 141 callsubr
          67 65 80 1 hvcurveto
          78 -58 59 -78 -84 -45 callsubr
          -686 -1335 rmoveto
          106 499 403 0 -106 -499 -67 callgsubr
          -70 callsubr
          86 callsubr
          endchar
        </CharString>
        <CharString name="Hdotaccent">
          1683 1192 1511 rmoveto
          97 -55 callsubr
          77 callsubr
          -510 -1313 rmoveto
          106 499 403 0 -106 -499 -67 callgsubr
          -70 callsubr
          86 callsubr
          endchar
        </CharString>
        <CharString name="Hdotbelow">
          -2 callsubr
          -70 callsubr
          86 callsubr
          108 -312 -62 callsubr
          91 -82 callsubr
        </CharString>
        <CharString name="I">
          814 683 -6 callsubr
          -95 callsubr
          -89 callsubr
        </CharString>
        <CharString name="IAcyrillic">
          1549 317 986 rmoveto
          -144 83 -99 145 -39 vhcurveto
          -292 -387 -117 -155 -66 -71 -67 -31 rlinecurve
          -12 -60 516 0 457 635 rlineto
          2 1 0 2 hhcurveto
          75 hlineto
          -93 -437 -67 callgsubr
          rlineto
          -101 21 -19 19 20 95 223 1048 rcurveline
          19 93 25 21 113 21 15 63 rcurveline
          -758 hlineto
          -495 -243 -182 -276 hvcurveto
          470 -27 rmoveto
          206 122 189 237 13 vhcurveto
          53 2 -140 -659 -59 2 rlineto
          -135 5 -78 99 143 vvcurveto
          endchar
        </CharString>
        <CharString name="IJ">
          1640 683 -6 callsubr
          72 callsubr
          41 callsubr
          836 85 165 callsubr
          -68 -325 -84 177 callsubr
        </CharString>
        <CharString name="IJacute">
          1640 793 1832 56 callsubr
          388 -1 56 callsubr
          -1332 -1633 -88 callsubr
          72 callsubr
          41 callsubr
          836 85 165 callsubr
          -68 -325 -84 177 callsubr
        </CharString>
        <CharString name="IUcyrillic">
          2395 44 hmoveto
          720 hlineto
          14 63 rlineto
          -97 22 -18 20 19 93 106 499 rcurveline
          152 hlineto
          -1 -23 -1 -25 -24 vvcurveto
          -353 236 -296 443 519 350 360 483 353 -236 297 -444 -1 vhcurveto
          -462 -329 -286 -405 -65 hvcurveto
          -145 hlineto
          100 469 -68 callgsubr
          101 -23 19 -19 -19 -83 callsubr
          -26 -21 -113 -23 rlinecurve
          1556 -5 rmoveto
          -118 -57 145 232 360 129 591 243 118 58 -145 -232 -360 -130 -591 -243 hvcurveto
          endchar
        </CharString>
        <CharString name="Iacute">
          814 793 1832 56 callsubr
          -527 -1634 -88 callsubr
          -95 callsubr
          -89 callsubr
        </CharString>
        <CharString name="Ibreve">
          814 771 1549 rmoveto
          235 112 163 198 2 hvcurveto
          -62 hlineto
          -86 -17 -102 -52 -159 hhcurveto
          -128 -90 -69 callgsubr
          -88 -1351 -88 callsubr
          -95 callsubr
          -89 callsubr
        </CharString>
        <CharString name="Icaron">
          814 1052 1840 rmoveto
          -281 -127 -60 callsubr
          -76 callsubr
          -446 -1642 -88 callsubr
          -95 callsubr
          -89 callsubr
        </CharString>
        <CharString name="Icircumflex">
          814 489 1523 rmoveto
          280 26 callsubr
          -140 306 -227 0 -263 -306 rlineto
          265 -1325 -88 callsubr
          -95 callsubr
          -89 callsubr
        </CharString>
        <CharString name="Icyrillic">
          814 683 -6 callsubr
          -95 callsubr
          -89 callsubr
        </CharString>
        <CharString name="Idblgrave">
          814 605 1823 rmoveto
          -318 76 callsubr
          58 callgsubr
          -240 -1319 -88 callsubr
          -95 callsubr
          -89 callsubr
        </CharString>
        <CharString name="Idieresis">
          814 581 1535 rmoveto
          104 callsubr
          354 hmoveto
          83 67 -95 callgsubr
          -45 callsubr
          -252 -1337 -88 callsubr
          -95 callsubr
          -89 callsubr
        </CharString>
        <CharString name="Idieresisacute">
          814 1157 1884 rmoveto
          39 181 -743 -224 -12 -51 rlineto
          123 -243 rmoveto
          -70 callgsubr
          -68 -44 -64 -14 hvcurveto
          -65 -13 48 -45 72 hhcurveto
          374 hmoveto
          71 69 45 65 13 hvcurveto
          64 14 -49 44 -72 hhcurveto
          -14 hlineto
          -71 -69 -44 -64 -14 hvcurveto
          -65 -14 50 -45 72 hhcurveto
          -227 -1349 -88 callsubr
          -95 callsubr
          -89 callsubr
        </CharString>
        <CharString name="Idotaccent">
          814 758 1513 rmoveto
          98 -55 callsubr
          -98 -80 -75 -94 -87 69 -70 92 hvcurveto
          -75 -1315 -88 callsubr
          -95 callsubr
          -89 callsubr
        </CharString>
        <CharString name="Idotbelow">
          814 683 -6 callsubr
          72 callsubr
          41 callsubr
          -322 -312 -79 callsubr
          71 callsubr
        </CharString>
        <CharString name="Iecyrillic">
          1300 1500 1444 -94 callsubr
        </CharString>
        <CharString name="Igrave">
          814 795 1827 61 callsubr
          -164 -1320 -88 callsubr
          -95 callsubr
          -89 callsubr
        </CharString>
        <CharString name="Ihookabove">
          814 812 1855 rmoveto
          -112 -77 -103 callgsubr
          47 -55 callgsubr
          203 47 85 68 90 vvcurveto
          88 -82 59 -106 vhcurveto
          -129 -1657 -88 callsubr
          -95 callsubr
          -89 callsubr
        </CharString>
        <CharString name="Iicyrillic">
          1696 44 hmoveto
          720 hlineto
          -93 callgsubr
          202 callsubr
        </CharString>
        <CharString name="Iinvertedbreve">
          814 780 1911 rmoveto
          -234 -39 callgsubr
          18 102 49 callsubr
          63 hlineto
          10 28 6 33 36 vvcurveto
          140 -1 -106 125 -180 hhcurveto
          -97 -1713 -88 callsubr
          -95 callsubr
          -89 callsubr
        </CharString>
        <CharString name="Iishortcyrillic">
          1696 1186 166 callsubr
          -24 2 5 -22 hvcurveto
          57 20 46 55 70 vvcurveto
          94 -70 69 -91 -100 -69 -72 -100 -121 96 -95 183 vhcurveto
          -1142 -1554 rmoveto
          720 hlineto
          -93 callgsubr
          202 callsubr
        </CharString>
        <CharString name="Imacron">
          814 435 1579 rmoveto
          619 hlineto
          40 187 rlineto
          -619 hlineto
          208 -1568 -88 callsubr
          -95 callsubr
          -89 callsubr
        </CharString>
        <CharString name="Iocyrillic">
          1300 845 83 callsubr
          87 callsubr
          -1 hvcurveto
          -75 58 -60 79 vhcurveto
          353 hmoveto
          83 68 65 80 -102 callgsubr
          hvcurveto
          -75 -1 58 -60 79 hhcurveto
          302 -90 -94 callsubr
        </CharString>
        <CharString name="Iogonek">
          814 376 -479 rmoveto
          102 94 48 90 37 hvcurveto
          13 61 rlineto
          -13 -11 -20 -10 -26 -45 callgsubr
          307 hlineto
          13 -84 callgsubr
          223 1048 19 91 72 callsubr
          rlineto
          102 -19 18 -23 -19 -93 -223 -1048 rcurveline
          -19 -91 -26 -21 -112 -23 -14 -63 rcurveline
          335 hlineto
          -175 -80 -71 -108 -105 vvcurveto
          -109 100 -77 143 vhcurveto
          endchar
        </CharString>
        <CharString name="Iotadieresisgreek">
          814 581 1535 rmoveto
          104 callsubr
          354 hmoveto
          83 67 -95 callgsubr
          -45 callsubr
          -252 -1337 -88 callsubr
          -95 callsubr
          -89 callsubr
        </CharString>
        <CharString name="Iotagreek">
          814 683 -6 callsubr
          -95 callsubr
          -89 callsubr
        </CharString>
        <CharString name="Iotatonosgreek">
          1296 1164 -6 callsubr
          24 21 114 23 rlinecurve
          13 63 -725 0 -14 -63 102 -19 18 -23 -19 -83 callsubr
          -26 -21 -113 -23 rlinecurve
          -13 -63 725 0 14 -84 callgsubr
          -831 1246 -49 callsubr
        </CharString>
        <CharString name="Itilde">
          814 880 1548 rmoveto
          96 2 87 65 61 callgsubr
          -35 hvcurveto
          -27 18 rlineto
          29 -49 -50 19 -61 hhcurveto
          -96 -1 -84 -65 -31 11 callsubr
          33 hvcurveto
          29 -18 rlineto
          -29 47 52 -21 59 hhcurveto
          -197 -1350 -88 callsubr
          -95 callsubr
          -89 callsubr
        </CharString>
        <CharString name="Itildebelow">
          814 683 -6 callsubr
          72 callsubr
          41 callsubr
          -206 -634 25 callgsubr
          -37 23 -33 20 rcurveline
          33 -51 -56 21 -65 hhcurveto
          -105 -1 -91 -70 -33 -256 rrcurveto
          68 hlineto
          91 19 33 32 47 hhcurveto
          36 1 30 95 callgsubr
        </CharString>
        <CharString name="J">
          826 705 283 57 callsubr
        </CharString>
        <CharString name="Jacute">
          826 783 -73 callsubr
          -495 -1548 57 callsubr
        </CharString>
        <CharString name="Jcircumflex">
          826 480 1522 rmoveto
          279 26 callsubr
          59 callsubr
          297 -1239 57 callsubr
        </CharString>
        <CharString name="Jecyrillic">
          826 705 283 57 callsubr
        </CharString>
        <CharString name="K">
          1542 683 198 -4 callsubr
        </CharString>
        <CharString name="Kaacutecyrillic">
          1541 1188 -73 callsubr
          -922 -1633 -4 callsubr
        </CharString>
        <CharString name="Kacute">
          1541 1188 -73 callsubr
          -922 -1633 -4 callsubr
        </CharString>
        <CharString name="Kacyrillic">
          1541 683 198 -4 callsubr
        </CharString>
        <CharString name="Kappagreek">
          1541 683 198 -4 callsubr
        </CharString>
        <CharString name="Kcaron">
          1541 1447 -81 callsubr
          -60 callsubr
          -76 callsubr
          -841 -1641 -4 callsubr
        </CharString>
        <CharString name="Kcommaaccent">
          146 callsubr
          46 -663 -74 callsubr
          45 callsubr
          73 callsubr
        </CharString>
        <CharString name="Kdotbelow">
          146 callsubr
          97 -312 -79 callsubr
          71 callsubr
        </CharString>
        <CharString name="Klinebelow">
          146 callsubr
          -252 -573 -24 callsubr
        </CharString>
        <CharString name="L">
          8 callsubr
          endchar
        </CharString>
        <CharString name="Lacute">
          1267 775 1831 rmoveto
          -167 -309 67 0 518 302 rlineto
          7 vlineto
          -6 -1831 rmoveto
          -31 callsubr
          0 callsubr
          endchar
        </CharString>
        <CharString name="Lambdagreek">
          1474 1342 280 rmoveto
          -121 1165 -353 0 -608 -1140 -106 -201 -39 -23 -96 -18 rlinecurve
          -13 -63 399 0 13 63 -125 23 -16 39 90 180 rlinecurve
          431 854 62 -877 10 -150 -24 -47 -133 -21 rlinecurve
          -15 -64 770 0 13 64 -83 16 -38 30 -18 170 rlinecurve
          endchar
        </CharString>
        <CharString name="Lcaron">
          1267 1204 1113 136 callsubr
          51 -1113 rmoveto
          -31 callsubr
          0 callsubr
          endchar
        </CharString>
        <CharString name="Lcircumflexbelow">
          8 callsubr
          274 -456 -42 callsubr
          71 -61 callgsubr
        </CharString>
        <CharString name="Lcommaaccent">
          8 callsubr
          521 -465 rmoveto
          182 96 79 118 114 -90 66 -111 -93 98 callgsubr
          49 44 -19 -38 -38 -39 -23 -64 -45 -40 13 20 -46 callgsubr
        </CharString>
        <CharString name="Ldot">
          8 callsubr
          1073 657 rmoveto
          114 94 89 108 104 -82 82 -107 -25 callsubr
          endchar
        </CharString>
        <CharString name="Ldotbelow">
          8 callsubr
          571 -114 -79 callsubr
          -82 callsubr
        </CharString>
        <CharString name="Ldotbelowmacron">
          1267 418 128 callsubr
          729 -1765 rmoveto
          -31 callsubr
          0 callsubr
          571 -114 -79 callsubr
          -82 callsubr
        </CharString>
        <CharString name="Ljecyrillic">
          2200 16 170 rmoveto
          -115 81 -80 129 244 90 320 608 143 vhcurveto
          38 143 54 235 19 80 rrcurveto
          363 hlineto
          -247 -1163 rlineto
          -19 -91 -26 -21 -115 -23 -14 -63 rcurveline
          763 hlineto
          451 304 176 317 250 -238 126 -334 hvcurveto
          -163 hlineto
          81 377 19 92 28 18 122 25 rlinecurve
          14 63 -1282 233 callsubr
          hvcurveto
          1773 364 -34 callgsubr
          -56 -2 153 718 57 -1 rlineto
          127 -4 81 -84 -170 vvcurveto
          endchar
        </CharString>
        <CharString name="Llinebelow">
          8 callsubr
          223 -375 -42 callgsubr
        </CharString>
        <CharString name="Lslash">
          1267 179 639 rmoveto
          137 32 -101 -473 -19 -91 -24 -21 -114 -23 rlinecurve
          -13 -63 1142 0 -31 callsubr
          151 714 285 66 16 75 -285 -67 81 385 19 91 26 20 118 24 rlinecurve
          13 63 -729 0 -14 -63 96 -21 20 -36 -25 -122 rlinecurve
          -97 -457 -136 -32 rlineto
          endchar
        </CharString>
        <CharString name="M">
          1906 1019 1444 33 callsubr
        </CharString>
        <CharString name="Macute">
          1906 1342 -64 callsubr
          -741 -387 33 callsubr
        </CharString>
        <CharString name="Mdotaccent">
          1906 1308 -59 callsubr
          -289 -68 33 callsubr
        </CharString>
        <CharString name="Mdotbelow">
          1906 1019 1444 rmoveto
          -631 hlineto
          -14 -63 113 -24 21 -48 -34 -140 rlinecurve
          -200 -815 -57 -223 -29 -49 -123 -19 rlinecurve
          -13 -63 395 0 13 63 -114 19 -15 39 52 234 rlinecurve
          171 806 114 -1161 249 0 260 543 322 667 -177 -1016 -16 -88 -27 -22 -115 -21 rlinecurve
          -13 -63 722 0 14 63 -104 20 -14 21 16 90 rlinecurve
          185 1056 16 87 25 23 115 21 rlinecurve
          14 63 -645 0 -396 -896 rlineto
          -347 -662 rmoveto
          -98 -79 -76 -91 -89 68 -70 92 -82 callsubr
        </CharString>
        <CharString name="Mugreek">
          1906 1019 1444 33 callsubr
        </CharString>
        <CharString name="N">
          1498 -46 callsubr
          -12 callsubr
          endchar
        </CharString>
        <CharString name="Nacute">
          1498 1171 -64 callsubr
          -667 -387 -33 callsubr
          -12 callsubr
          endchar
        </CharString>
        <CharString name="Ncaron">
          1498 1430 1839 rmoveto
          -280 -127 -60 callsubr
          -49 callgsubr
          -586 -395 -33 callsubr
          -12 callsubr
          endchar
        </CharString>
        <CharString name="Ncircumflexbelow">
          1498 -46 callsubr
          -12 callsubr
          -976 -903 102 callsubr
        </CharString>
        <CharString name="Ncommaaccent">
          1498 -46 callsubr
          -12 callsubr
          -729 -912 -74 callsubr
          -19 callsubr
          43 -19 -38 -38 -39 -23 -64 -73 callgsubr
        </CharString>
        <CharString name="Ndotaccent">
          1498 1137 -59 callsubr
          -215 -68 -33 callsubr
          -12 callsubr
          endchar
        </CharString>
        <CharString name="Ndotbelow">
          1498 -46 callsubr
          -12 callsubr
          -679 -561 -62 callsubr
          -105 callgsubr
        </CharString>
        <CharString name="Ngrave">
          1498 1173 -14 callsubr
          -303 -73 -33 callsubr
          -12 callsubr
          endchar
        </CharString>
        <CharString name="Njecyrillic">
          2343 683 198 rmoveto
          115 539 389 0 -114 -539 rlineto
          -19 -91 -26 -21 -113 -23 -13 -63 rcurveline
          760 hlineto
          451 304 164 297 239 -238 120 -335 hvcurveto
          -172 hlineto
          91 426 19 92 28 18 123 25 rlinecurve
          14 63 -738 0 -13 -63 100 -23 19 -19 -19 -93 rlinecurve
          -91 -426 -389 0 90 426 20 91 24 21 110 23 rlinecurve
          14 63 -721 0 -14 -63 101 -23 19 -19 -20 -93 rlinecurve
          -222 -1048 -20 -91 -25 -21 -113 -23 -83 callgsubr
          -98 22 -18 20 19 93 rlinecurve
          1249 303 rmoveto
          -233 -134 -178 -228 -13 vhcurveto
          -56 -2 143 670 67 -2 rlineto
          129 -4 79 -78 -160 vvcurveto
          endchar
        </CharString>
        <CharString name="Nlinebelow">
          1498 -46 callsubr
          -12 callsubr
          -1027 -822 rmoveto
          639 hlineto
          42 198 rlineto
          -638 hlineto
          endchar
        </CharString>
        <CharString name="Ntilde">
          1498 1259 81 callsubr
          -27 callgsubr
          -43 hhcurveto
          -32 -100 callgsubr
          161 callsubr
          -337 -103 -33 callsubr
          -12 callsubr
          endchar
        </CharString>
        <CharString name="Nugreek">
          1498 -46 callsubr
          -12 callsubr
          endchar
        </CharString>
        <CharString name="O">
          16 callsubr
          -106 callsubr
          -104 callsubr
          -101 callsubr
        </CharString>
        <CharString name="OE">
          2060 222 645 rmoveto
          -430 309 -237 377 vhcurveto
          110 62 22 118 hhcurveto
          812 hlineto
          109 463 rlineto
          -57 hlineto
          -108 -269 -124 -101 -234 -15 rrcurveto
          -125 -5 133 627 99 -3 118 -8 23 -50 -4 -172 rlinecurve
          56 hlineto
          112 529 rlineto
          -56 hlineto
          -61 -157 -45 -53 -126 -8 rrcurveto
          -101 -4 127 597 113 -6 227 -16 39 -77 12 -265 rlinecurve
          58 hlineto
          76 437 rlineto
          -854 hlineto
          -114 -75 23 -135 hhcurveto
          -523 -348 -358 -464 hvcurveto
          477 -194 rmoveto
          394 170 539 287 52 43 -11 -15 25 vhcurveto
          -273 -1285 rlineto
          -8 -20 -25 -4 -26 hhcurveto
          -143 -90 117 273 hvcurveto
          endchar
        </CharString>
        <CharString name="Oacute">
          1682 1175 -73 callsubr
          -677 -1855 -103 callsubr
          -106 callsubr
          -104 callsubr
          -101 callsubr
        </CharString>
        <CharString name="Obreve">
          1682 1153 129 callsubr
          -61 hlineto
          -86 -18 -102 -52 -158 hhcurveto
          -129 -90 -69 callgsubr
          -238 -1572 -103 callsubr
          -106 callsubr
          -104 callsubr
          -101 callsubr
        </CharString>
        <CharString name="Ocaron">
          1682 1434 -81 callsubr
          -60 callsubr
          -76 callsubr
          -596 -1863 -103 callsubr
          -106 callsubr
          -104 callsubr
          -101 callsubr
        </CharString>
        <CharString name="Ocircumflex">
          1682 871 -58 callsubr
          59 callsubr
          115 -1546 -103 callsubr
          -106 callsubr
          -104 callsubr
          -101 callsubr
        </CharString>
        <CharString name="Ocircumflexacute">
          1682 1534 1864 80 callsubr
          -58 -273 -29 callsubr
          143 -1574 -103 callsubr
          -106 callsubr
          -104 callsubr
          -101 callsubr
        </CharString>
        <CharString name="Ocircumflexdotbelow">
          1682 871 -58 callsubr
          59 callsubr
          115 -1546 -103 callsubr
          -106 callsubr
          -104 callsubr
          hvcurveto
          18 callsubr
          -33 84 rmoveto
          -115 -65 168 callsubr
          -69 -174 -79 callsubr
          -82 callsubr
        </CharString>
        <CharString name="Ocircumflexgrave">
          1682 839 1864 -22 callsubr
          -116 -548 -29 callsubr
          143 -1574 -103 callsubr
          -106 callsubr
          -104 callsubr
          -101 callsubr
        </CharString>
        <CharString name="Ocircumflexhookabove">
          1682 1510 228 callsubr
          -74 55 -123 hhcurveto
          -749 -486 -29 callsubr
          143 -1574 -103 callsubr
          -106 callsubr
          -104 callsubr
          -101 callsubr
        </CharString>
        <CharString name="Ocircumflextilde">
          1682 1312 26 callgsubr
          -34 -34 7 11 -41 hvcurveto
          -42 11 rlineto
          15 -53 -51 12 -56 hhcurveto
          -138 -93 -75 -137 -26 hvcurveto
          75 hlineto
          49 12 31 22 59 6 callgsubr
          143 -1574 -103 callsubr
          -106 callsubr
          -104 callsubr
          -101 callsubr
        </CharString>
        <CharString name="Ocyrillic">
          16 callsubr
          -106 callsubr
          -104 callsubr
          -101 callsubr
        </CharString>
        <CharString name="Odblgrave">
          1682 987 1822 rmoveto
          -318 76 callsubr
          58 callgsubr
          -390 -1540 -103 callsubr
          -106 callsubr
          -104 callsubr
          -101 callsubr
        </CharString>
        <CharString name="Odieresis">
          1682 963 83 callsubr
          -102 callgsubr
          -75 58 -60 78 hvcurveto
          354 hmoveto
          83 67 -95 callgsubr
          -45 callsubr
          -402 -1558 -103 callsubr
          -106 callsubr
          -104 callsubr
          -101 callsubr
        </CharString>
        <CharString name="Odieresismacron">
          1682 836 184 callsubr
          37 callsubr
          -376 -1570 -103 callsubr
          -106 callsubr
          -104 callsubr
          -101 callsubr
        </CharString>
        <CharString name="Odotaccent">
          1682 1141 1512 rmoveto
          97 -55 callsubr
          77 callsubr
          -226 -1536 -103 callsubr
          -106 callsubr
          -104 callsubr
          -101 callsubr
        </CharString>
        <CharString name="Odotaccentmacron">
          1682 830 -41 callgsubr
          -696 hlineto
          284 -434 rmoveto
          74 58 48 68 -2 hvcurveto
          69 73 callgsubr
          77 hhcurveto
          -231 -1563 -103 callsubr
          -106 callsubr
          -104 callsubr
          -101 callsubr
        </CharString>
        <CharString name="Odotbelow">
          16 callsubr
          -106 callsubr
          -104 callsubr
          hvcurveto
          18 callsubr
          -33 84 rmoveto
          -115 -65 168 callsubr
          -69 -174 -79 callsubr
          -82 callsubr
        </CharString>
        <CharString name="Ograve">
          1682 1177 -14 callsubr
          -314 -1541 -103 callsubr
          -106 callsubr
          -104 callsubr
          -101 callsubr
        </CharString>
        <CharString name="Ohookabove">
          1682 1194 1854 rmoveto
          -112 -77 -103 callgsubr
          47 -55 callgsubr
          203 47 86 68 90 vvcurveto
          88 -83 59 -106 vhcurveto
          -279 -1878 -103 callsubr
          -106 callsubr
          -104 callsubr
          -101 callsubr
        </CharString>
        <CharString name="Ohorn">
          110 callsubr
          481 -229 rmoveto
          -32 callsubr
          85 callsubr
        </CharString>
        <CharString name="Ohornacute">
          110 callsubr
          958 1190 -60 callgsubr
          -895 -1419 rmoveto
          -32 callsubr
          85 callsubr
        </CharString>
        <CharString name="Ohorndotbelow">
          110 callsubr
          481 -229 rmoveto
          -32 callsubr
          -115 -65 104 248 vhcurveto
          145 -526 rmoveto
          -98 -79 -76 -91 -89 68 -70 92 -82 callsubr
        </CharString>
        <CharString name="Ohorngrave">
          110 callsubr
          960 1185 61 callsubr
          -531 -1105 rmoveto
          -32 callsubr
          85 callsubr
        </CharString>
        <CharString name="Ohornhookabove">
          1712 1198 178 callsubr
          38 -26 -47 -46 -39 -35 callgsubr
          -977 -1213 rmoveto
          18 callsubr
          -89 callgsubr
          151 callsubr
          481 -229 rmoveto
          -32 callsubr
          85 callsubr
        </CharString>
        <CharString name="Ohorntilde">
          1712 1267 81 callsubr
          -27 callgsubr
          -44 hhcurveto
          -31 -100 callgsubr
          161 callsubr
          -1046 -906 rmoveto
          18 callsubr
          -89 callgsubr
          151 callsubr
          481 -229 rmoveto
          -32 callsubr
          85 callsubr
        </CharString>
        <CharString name="Ohungarumlaut">
          1682 953 -13 callgsubr
          -775 -1850 -103 callsubr
          -106 callsubr
          -104 callsubr
          -101 callsubr
        </CharString>
        <CharString name="Oinvertedbreve">
          1682 1163 1910 rmoveto
          -235 -39 callgsubr
          18 102 49 callsubr
          63 123 callsubr
          -248 -1934 -103 callsubr
          -106 callsubr
          -104 callsubr
          -101 callsubr
        </CharString>
        <CharString name="Omacron">
          1682 817 128 callsubr
          58 -1789 -103 callsubr
          -106 callsubr
          -104 callsubr
          -101 callsubr
        </CharString>
        <CharString name="Omacronacute">
          1682 1538 -8 callsubr
          29 callsubr
          -44 -206 rmoveto
          695 hlineto
          33 146 rlineto
          -697 hlineto
          105 -1753 -103 callsubr
          -106 callsubr
          -104 callsubr
          -101 callsubr
        </CharString>
        <CharString name="Omacrongrave">
          1682 843 1883 -22 callsubr
          -102 -481 rmoveto
          695 hlineto
          33 146 rlineto
          -697 hlineto
          105 -1753 -103 callsubr
          -106 callsubr
          -104 callsubr
          -101 callsubr
        </CharString>
        <CharString name="Omegagreek">
          1742 122 hmoveto
          668 hlineto
          70 338 rlineto
          -116 62 -41 147 34 263 35 374 144 198 185 -1 168 -1 86 -152 -39 -312 -30 -321 -102 -189 -158 -69 rrcurveto
          -70 -337 665 0 167 463 rlineto
          -51 hlineto
          -99 -162 -155 -66 -406 -3 12 55 rcurveline
          406 50 277 252 29 308 28 298 -229 265 -497 4 -505 4 -312 -285 -31 -341 -31 -272 184 -233 369 -49 rrcurveto
          -11 -56 -413 4 -111 69 -22 158 rlinecurve
          -52 hlineto
          endchar
        </CharString>
        <CharString name="Omegatonosgreek">
          2017 397 hmoveto
          668 hlineto
          71 338 rlineto
          -117 62 -40 147 34 263 35 374 143 198 186 -1 168 -1 85 -152 -39 -312 -29 -321 -102 -189 -159 -69 rrcurveto
          -69 -337 664 0 168 463 rlineto
          -51 hlineto
          -99 -162 -156 -66 -406 -3 12 55 rcurveline
          406 50 278 252 28 308 29 298 -230 265 -496 4 -505 4 -313 -285 -30 -341 -32 -272 184 -233 370 -49 rrcurveto
          -12 -56 -412 4 -112 69 -22 158 rlinecurve
          -51 hlineto
          -111 981 -49 callsubr
        </CharString>
        <CharString name="Omicrongreek">
          16 callsubr
          -106 callsubr
          -104 callsubr
          -101 callsubr
        </CharString>
        <CharString name="Omicrontonosgreek">
          1959 1192 -24 -103 callsubr
          -106 callsubr
          -417 -516 -333 -360 -467 -6 hvcurveto
          -396 -5 281 -269 418 hhcurveto
          -859 1468 rmoveto
          -86 -395 24 callsubr
          452 -1384 rmoveto
          -116 -64 105 247 398 156 573 248 116 64 -104 -247 -403 -159 -569 -245 hvcurveto
          endchar
        </CharString>
        <CharString name="Oogonek">
          16 callsubr
          -106 callsubr
          -104 callsubr
          hvcurveto
          206 callsubr
        </CharString>
        <CharString name="Oogonekmacron">
          1682 817 128 callsubr
          58 -1789 -103 callsubr
          -106 callsubr
          -104 callsubr
          hvcurveto
          206 callsubr
        </CharString>
        <CharString name="Oslash">
          16 callsubr
          188 callsubr
        </CharString>
        <CharString name="Oslashacute">
          1682 1175 -73 callsubr
          -677 -1855 -103 callsubr
          188 callsubr
        </CharString>
        <CharString name="Otilde">
          1682 1262 81 callsubr
          61 callgsubr
          -35 hvcurveto
          -27 18 rlineto
          29 -48 -51 19 -60 hhcurveto
          -97 -1 -84 -65 -31 11 callsubr
          34 hvcurveto
          28 -18 rlineto
          -29 47 52 -21 59 hhcurveto
          -347 -1571 -103 callsubr
          -106 callsubr
          -104 callsubr
          -101 callsubr
        </CharString>
        <CharString name="Otildeacute">
          1682 1538 -8 callsubr
          29 callsubr
          -18 callgsubr
          -342 -1581 -103 callsubr
          -106 callsubr
          -104 callsubr
          -101 callsubr
        </CharString>
        <CharString name="Otildedieresis">
          1682 1003 -40 callgsubr
          222 callsubr
          -91 -261 rmoveto
          138 94 75 137 25 hvcurveto
          -75 hlineto
          -49 -11 -33 109 callsubr
          -24 hvcurveto
          75 -82 callgsubr
          -62 callgsubr
          -342 -1581 -103 callsubr
          -106 callsubr
          -104 callsubr
          -101 callsubr
        </CharString>
        <CharString name="Otildemacron">
          1682 836 79 callgsubr
          389 -443 rmoveto
          138 94 75 137 25 hvcurveto
          -75 hlineto
          -49 -11 -33 109 callsubr
          -24 hvcurveto
          75 -82 callgsubr
          -62 callgsubr
          -342 -1581 -103 callsubr
          -106 callsubr
          -104 callsubr
          -101 callsubr
        </CharString>
        <CharString name="P">
          1517 784 hmoveto
          34 callsubr
        </CharString>
        <CharString name="Pacute">
          1517 1141 1832 rmoveto
          -168 -309 67 0 519 302 rlineto
          7 vlineto
          -775 -1832 rmoveto
          34 callsubr
        </CharString>
        <CharString name="Pdotaccent">
          1517 1107 1513 rmoveto
          97 80 76 92 89 -70 69 -91 -98 -79 -75 -94 -88 68 -69 93 hvcurveto
          -323 -1513 rmoveto
          34 callsubr
        </CharString>
        <CharString name="Pecyrillic">
          1683 1542 198 rmoveto
          223 1048 19 93 25 21 113 21 rlinecurve
          14 63 -1585 0 -14 -63 101 -23 19 -19 -19 -83 callsubr
          -26 -21 -113 -23 rlinecurve
          -13 -63 86 callsubr
          248 1163 392 0 -247 -1163 -67 callgsubr
          -101 21 -19 19 20 95 rlinecurve
          endchar
        </CharString>
        <CharString name="Phigreek">
          1993 218 722 rmoveto
          -35 -303 209 -199 455 -15 rrcurveto
          -3 -13 -19 -91 -32 -28 -110 -22 rlinecurve
          -11 -55 650 0 13 55 rlineto
          -101 21 -20 29 19 91 3 14 rcurveline
          550 16 263 200 34 306 36 305 -234 189 -433 13 rrcurveto
          3 14 19 90 32 29 110 22 rlinecurve
          11 54 -652 0 -10 -54 101 -21 19 -30 -19 -90 rlinecurve
          -3 -14 -523 -13 -287 -190 -35 -310 rlinecurve
          468 -7 rmoveto
          27 235 126 206 210 11 rrcurveto
          -186 -887 -144 34 -58 181 25 220 rlinecurve
          929 11 rmoveto
          -27 -238 -117 -200 -221 -13 rrcurveto
          186 886 140 -35 63 -186 -24 -214 rlinecurve
          endchar
        </CharString>
        <CharString name="Pigreek">
          1678 1546 205 rmoveto
          219 1033 19 91 19 29 123 23 rlinecurve
          14 63 -1588 0 -14 -63 110 -24 9 -26 -19 -92 rlinecurve
          -220 -1035 -20 -91 -20 -26 -120 -24 rlinecurve
          -13 -63 722 0 13 63 -106 22 -8 30 20 89 rlinecurve
          245 1160 393 0 -245 -1159 -19 -92 -20 -27 -115 -23 -83 callgsubr
          -113 22 -6 28 19 92 rlinecurve
          endchar
        </CharString>
        <CharString name="Psigreek">
          2057 663 hmoveto
          711 hlineto
          14 63 rlineto
          -114 22 -23 29 19 90 64 300 rcurveline
          391 14 208 120 144 388 65 178 rcurveline
          47 126 35 35 91 4 13 64 rcurveline
          6 -34 -82 8 -71 hhcurveto
          -230 -125 -68 -256 -92 hvcurveto
          -64 -177 -88 -244 -58 -93 -133 -23 rlinecurve
          139 653 20 92 30 28 105 22 rlinecurve
          14 63 -669 0 -14 -63 rlineto
          96 -22 20 -28 -20 -92 -139 -653 rcurveline
          -123 23 -16 94 14 243 11 176 rcurveline
          255 15 -95 70 -231 hhcurveto
          -72 -84 -8 -6 -37 hvcurveto
          -13 -64 89 -4 21 -35 -7 -126 rlinecurve
          -10 -178 -20 -387 155 -121 386 -14 rlinecurve
          -64 -300 -19 -90 -34 -30 -123 -21 rlinecurve
          endchar
        </CharString>
        <CharString name="Q">
          1725 1336 -425 rmoveto
          139 129 44 63 76 hvcurveto
          13 60 rlineto
          -127 -19 -92 36 -153 161 -98 104 rcurveline
          337 113 209 300 366 vvcurveto
          -106 callsubr
          -104 callsubr
          vhcurveto
          -4 -323 186 -240 297 -76 157 -179 rcurveline
          -193 171 137 -55 171 hhcurveto
          -454 485 rmoveto
          -115 -65 168 callsubr
          endchar
        </CharString>
        <CharString name="R">
          1553 1074 hmoveto
          32 callsubr
          endchar
        </CharString>
        <CharString name="Racute">
          1553 1058 -64 callsubr
          -402 -1831 rmoveto
          32 callsubr
          endchar
        </CharString>
        <CharString name="Rcaron">
          1553 1317 -81 callsubr
          -107 callgsubr
          -320 -1839 rmoveto
          32 callsubr
          endchar
        </CharString>
        <CharString name="Rcommaaccent">
          1553 1074 hmoveto
          32 callsubr
          -383 -1561 -74 callsubr
          -19 callsubr
          -104 callgsubr
          -32 hvcurveto
          -13 -54 rlineto
          -60 50 83 -32 89 hhcurveto
          endchar
        </CharString>
        <CharString name="Rdblgrave">
          1553 871 1822 rmoveto
          -319 76 callsubr
          51 callsubr
          59 hlineto
          -115 -1516 rmoveto
          32 callsubr
          endchar
        </CharString>
        <CharString name="Rdotaccent">
          1553 1024 -59 callsubr
          50 -1512 rmoveto
          32 callsubr
          endchar
        </CharString>
        <CharString name="Rdotbelow">
          1553 1074 hmoveto
          32 callsubr
          -333 -1210 30 callsubr
          -15 callsubr
        </CharString>
        <CharString name="Rdotbelowmacron">
          1553 700 -65 callgsubr
          334 -1765 rmoveto
          32 callsubr
          -333 -1210 30 callsubr
          -15 callsubr
        </CharString>
        <CharString name="Rhogreek">
          1517 784 hmoveto
          34 callsubr
        </CharString>
        <CharString name="Rinvertedbreve">
          1553 1046 -66 callgsubr
          63 hlineto
          86 17 103 49 callsubr
          62 123 callsubr
          28 -1910 rmoveto
          32 callsubr
          endchar
        </CharString>
        <CharString name="Rlinebelow">
          1553 1074 hmoveto
          32 callsubr
          -681 -1471 -23 callsubr
        </CharString>
        <CharString name="S">
          1227 602 -25 90 callsubr
          endchar
        </CharString>
        <CharString name="Sacute">
          1227 1014 -64 callsubr
          -830 -1856 90 callsubr
          endchar
        </CharString>
        <CharString name="Sacutedotaccent">
          1227 1036 1777 rmoveto
          75 58 48 68 -2 hvcurveto
          69 -1 -61 48 -75 hhcurveto
          -75 -59 -48 -69 2 hvcurveto
          -68 2 60 -48 76 hhcurveto
          286 -157 80 callsubr
          -5 -1551 90 callsubr
          endchar
        </CharString>
        <CharString name="Scaron">
          1227 1273 -81 callsubr
          -107 callgsubr
          -748 -1864 90 callsubr
          endchar
        </CharString>
        <CharString name="Scarondotaccent">
          1227 1040 80 callgsubr
          -75 hhcurveto
          -75 -59 -47 -69 2 hvcurveto
          -68 2 60 -48 75 hhcurveto
          330 -3 rmoveto
          -373 -77 -340 77 -12 -52 291 -198 49 0 374 198 rlineto
          -757 -1770 90 callsubr
          endchar
        </CharString>
        <CharString name="Scedilla">
          1227 521 -466 rmoveto
          169 59 callgsubr
          56 56 rlineto
          386 262 201 288 167 -78 123 -172 117 hvcurveto
          -100 72 rlineto
          -117 82 -46 66 92 vvcurveto
          113 90 84 129 171 102 -145 -284 13 vhcurveto
          58 hlineto
          71 411 rlineto
          55 -83 -168 52 -198 hhcurveto
          -409 -229 -211 -274 -173 70 -110 175 -118 hvcurveto
          99 -73 rlineto
          124 -86 45 -67 -99 vvcurveto
          -123 -98 -73 -132 -169 -154 135 306 4 vhcurveto
          -59 hlineto
          -71 -439 86 -43 155 -36 168 -9 rlinecurve
          -136 -141 -61 callsubr
          53 callsubr
          -23 -101 callgsubr
        </CharString>
        <CharString name="Schwa">
          1583 811 -25 rmoveto
          480 345 339 461 440 -323 252 -419 -148 -190 -29 -59 -117 hvcurveto
          -89 -435 rlineto
          61 hlineto
          298 120 187 138 154 hhcurveto
          193 83 -169 -299 -65 -3 -62 -4 -59 hvcurveto
          -895 hlineto
          -25 -59 -17 -80 -81 vvcurveto
          -245 137 -286 470 vhcurveto
          -184 376 rmoveto
          107 17 117 25 72 vhcurveto
          464 3 rlineto
          -358 -41 -124 -235 -156 hhcurveto
          -133 -52 131 163 hvcurveto
          endchar
        </CharString>
        <CharString name="Scircumflex">
          1227 711 137 callsubr
          69 0 -67 callsubr
          -38 -1547 90 callsubr
          endchar
        </CharString>
        <CharString name="Scommaaccent">
          1227 602 -25 90 callsubr
          -127 -440 -74 callsubr
          -19 callsubr
          48 callgsubr
        </CharString>
        <CharString name="Sdotaccent">
          1227 980 -16 callsubr
          -69 69 -92 -98 -10 callsubr
          -378 -1537 90 callsubr
          endchar
        </CharString>
        <CharString name="Sdotbelow">
          1227 602 -25 90 callsubr
          -77 -89 30 callsubr
          -15 callsubr
        </CharString>
        <CharString name="Sdotbelowdotaccent">
          1227 980 -16 callsubr
          -69 69 -92 -98 -10 callsubr
          -378 -1537 90 callsubr
          -77 -89 30 callsubr
          -15 callsubr
        </CharString>
        <CharString name="Shacyrillic">
          2482 438 1246 rmoveto
          -223 -1048 -19 -93 -25 -21 -114 -21 rlinecurve
          -13 -63 2390 0 14 63 -101 23 -19 19 20 93 rlinecurve
          223 1048 19 91 25 21 113 23 rlinecurve
          13 -85 callgsubr
          217 callsubr
        </CharString>
        <CharString name="Shchacyrillic">
          2495 180 callsubr
          1996 hlineto
          257 49 -79 -270 11 hvcurveto
          62 hlineto
          79 432 -175 93 callgsubr
          13 -85 callgsubr
          217 callsubr
        </CharString>
        <CharString name="Sigmagreek">
          65 callgsubr
          -61 396 -727 -641 -593 -13 -63 1209 0 136 578 rlineto
          -70 hlineto
          -212 -91 -89 -58 -282 hhcurveto
          -401 hlineto
          633 577 3 18 -261 467 217 -3 301 -3 39 -85 8 -234 rlinecurve
          59 hlineto
          endchar
        </CharString>
        <CharString name="Softsigncyrillic">
          1486 224 callsubr
          -486 41 -34 callgsubr
          -55 -77 callgsubr
        </CharString>
        <CharString name="T">
          -35 callsubr
          endchar
        </CharString>
        <CharString name="Taugreek">
          -35 callsubr
          endchar
        </CharString>
        <CharString name="Tbar">
          1399 316 706 rmoveto
          299 hlineto
          -108 -509 -19 -90 -28 -21 -123 -23 rlinecurve
          -13 -63 -106 callgsubr
          92 rlinecurve
          108 509 300 0 15 68 -300 0 127 597 24 -2 179 -20 65 -102 4 -240 rlinecurve
          58 hlineto
          73 437 -1248 0 -90 callgsubr
          64 callsubr
          -127 -597 rlineto
          -299 hlineto
          endchar
        </CharString>
        <CharString name="Tcaron">
          1399 1349 -81 callsubr
          -60 callsubr
          140 -306 244 0 262 306 rlineto
          202 -395 rmoveto
          -1248 hlineto
          -90 callgsubr
          64 callsubr
          48 callsubr
          -106 callgsubr
          113 callsubr
          endchar
        </CharString>
        <CharString name="Tcedilla">
          1399 645 -466 rmoveto
          170 59 callgsubr
          73 73 2 8 323 0 14 63 -113 23 -20 19 20 113 callsubr
          73 437 -1248 0 -90 callgsubr
          64 callsubr
          48 callsubr
          355 0 -158 -165 94 callgsubr
          -38 -21 -60 -48 -39 15 18 -25 hvcurveto
          -13 -57 rlineto
          -70 45 86 -43 98 hhcurveto
          endchar
        </CharString>
        <CharString name="Tcircumflexbelow">
          -35 callsubr
          -1201 -1463 -42 callsubr
          71 0 -135 -38 callgsubr
        </CharString>
        <CharString name="Tcommaaccent">
          -35 callsubr
          -955 -1472 -74 callsubr
          45 callsubr
          73 callsubr
        </CharString>
        <CharString name="Tdotaccent">
          1399 1055 1512 rmoveto
          98 -55 callsubr
          -98 -80 -75 -94 -87 68 -70 93 hvcurveto
          573 -68 rmoveto
          -1248 hlineto
          -90 callgsubr
          64 callsubr
          48 callsubr
          -106 callgsubr
          113 callsubr
          endchar
        </CharString>
        <CharString name="Tdotbelow">
          -35 callsubr
          -904 -1121 -79 callsubr
          71 callsubr
        </CharString>
        <CharString name="Tecyrillic">
          -35 callsubr
          endchar
        </CharString>
        <CharString name="Thetagreek">
          1775 950 -25 rmoveto
          492 373 328 431 42 hvcurveto
          431 44 -279 304 -491 hhcurveto
          -492 -1 -371 -329 -43 -431 rrcurveto
          -430 -44 278 -303 491 hhcurveto
          4 74 rmoveto
          -205 -95 231 433 61 hvcurveto
          440 61 115 242 236 hhcurveto
          207 93 -228 -437 -60 hvcurveto
          -438 -61 -116 -243 -236 hhcurveto
          -187 422 rmoveto
          48 hlineto
          139 47 59 68 88 hhcurveto
          45 hlineto
          87 31 -68 -139 -12 hvcurveto
          48 hlineto
          108 509 rlineto
          -48 hlineto
          -139 -47 -59 -67 -88 hhcurveto
          -44 hlineto
          -88 -31 67 139 11 hvcurveto
          -48 hlineto
          endchar
        </CharString>
        <CharString name="Thorn">
          1511 200 197 rmoveto
          -20 -91 -24 -21 -114 -23 rrcurveto
          -13 -63 725 0 13 63 rlineto
          -100 23 -19 19 19 93 27 128 rcurveline
          171 hlineto
          388 327 141 303 214 -163 168 -433 hvcurveto
          -114 1 20 93 72 callgsubr
          100 -23 19 -19 -20 -93 rlinecurve
          671 -419 rmoveto
          1 -223 -125 -189 -208 -13 rrcurveto
          -51 -3 145 679 45 -1 rlineto
          130 -7 63 -109 -134 vvcurveto
          endchar
        </CharString>
        <CharString name="Tlinebelow">
          -35 callsubr
          -1253 -1382 -24 callsubr
        </CharString>
        <CharString name="Tsecyrillic">
          1690 180 callsubr
          1189 hlineto
          260 51 -79 -270 11 hvcurveto
          62 hlineto
          79 432 -179 93 callgsubr
          14 -85 callgsubr
          18 -20 -20 -93 rlinecurve
          -247 -1163 -393 163 callsubr
        </CharString>
        <CharString name="Tshecyrillic">
          1919 1629 1444 rmoveto
          -1249 hlineto
          -90 callgsubr
          233 97 109 179 20 rrcurveto
          26 2 48 callsubr
          750 0 92 callgsubr
          19 55 50 14 74 hhcurveto
          135 52 -84 -160 -35 hvcurveto
          -102 -473 598 0 14 63 rlineto
          -103 20 -16 21 19 91 39 185 rcurveline
          307 63 -173 147 -302 hhcurveto
          -154 -107 -28 -34 -88 hvcurveto
          47 callgsubr
          endchar
        </CharString>
        <CharString name="U">
          1513 805 -25 -91 callsubr
        </CharString>
        <CharString name="Uacute">
          1513 1220 -73 callsubr
          -832 -1856 -91 callsubr
        </CharString>
        <CharString name="Ubreve">
          1513 1198 1548 rmoveto
          235 113 163 198 1 hvcurveto
          -61 hlineto
          -86 -18 -102 -52 -158 hhcurveto
          -128 -91 -69 callgsubr
          -393 -1573 -91 callsubr
        </CharString>
        <CharString name="Ubrevecyrillic">
          1495 1185 166 callsubr
          -24 2 5 -22 hvcurveto
          57 33 callgsubr
          -946 -1380 196 callsubr
        </CharString>
        <CharString name="Ucaron">
          1513 1479 -81 callsubr
          -60 callsubr
          -76 callsubr
          -751 -1864 -91 callsubr
        </CharString>
        <CharString name="Ucircumflex">
          1513 917 1522 rmoveto
          279 26 callsubr
          -139 306 -228 0 -262 -306 rlineto
          -41 -1547 -91 callsubr
        </CharString>
        <CharString name="Ucircumflexbelow">
          95 callsubr
          -323 -431 -42 callsubr
          70 0 -134 -38 callgsubr
        </CharString>
        <CharString name="Ucyrillic">
          1495 239 174 196 callsubr
        </CharString>
        <CharString name="Udblgrave">
          1513 1032 1822 rmoveto
          -318 76 callsubr
          51 callsubr
          58 hlineto
          -545 -1541 -91 callsubr
        </CharString>
        <CharString name="Udieresis">
          1513 1009 1534 rmoveto
          82 68 -95 callgsubr
          141 callsubr
          71 callgsubr
          -557 -1559 -91 callsubr
        </CharString>
        <CharString name="Udieresisacute">
          1513 1584 -8 callsubr
          29 callsubr
          122 -243 rmoveto
          37 callsubr
          -532 -1571 -91 callsubr
        </CharString>
        <CharString name="Udieresisbelow">
          95 callsubr
          -257 -414 rmoveto
          100 60 callgsubr
          1 71 -69 96 hhcurveto
          435 hmoveto
          100 60 callgsubr
          72 -69 96 vhcurveto
          endchar
        </CharString>
        <CharString name="Udieresiscaron">
          1513 1619 -6 callgsubr
          37 callsubr
          -532 -1571 -91 callsubr
        </CharString>
        <CharString name="Udieresisgrave">
          1513 889 1883 -22 callsubr
          64 -518 rmoveto
          37 callsubr
          -532 -1571 -91 callsubr
        </CharString>
        <CharString name="Udieresismacron">
          1513 882 184 callsubr
          37 callsubr
          -532 -1571 -91 callsubr
        </CharString>
        <CharString name="Udotbelow">
          95 callsubr
          -27 -89 -62 callsubr
          -105 callgsubr
        </CharString>
        <CharString name="Ugrave">
          1513 1222 -14 callsubr
          -469 -1542 -91 callsubr
        </CharString>
        <CharString name="Uhookabove">
          1513 1239 1854 rmoveto
          -112 -77 -42 -86 -50 hvcurveto
          -10 -45 rlineto
          18 25 44 13 47 -55 callgsubr
          -50 callgsubr
          -434 -1879 -91 callsubr
        </CharString>
        <CharString name="Uhorn">
          116 callsubr
          endchar
        </CharString>
        <CharString name="Uhornacute">
          116 callsubr
          818 586 56 callsubr
          endchar
        </CharString>
        <CharString name="Uhorndotbelow">
          116 callsubr
          301 -1359 -79 callsubr
          71 callsubr
        </CharString>
        <CharString name="Uhorngrave">
          116 callsubr
          820 581 61 callsubr
          endchar
        </CharString>
        <CharString name="Uhornhookabove">
          1694 1252 1854 rmoveto
          -112 -77 -42 -86 -50 hvcurveto
          -10 -45 rlineto
          18 25 44 13 47 -55 callgsubr
          -50 callgsubr
          -958 -1183 rmoveto
          143 callsubr
          147 callsubr
          endchar
        </CharString>
        <CharString name="Uhorntilde">
          1694 1321 171 callsubr
          -84 -65 -32 11 callsubr
          -37 callgsubr
          -1027 -876 rmoveto
          143 callsubr
          147 callsubr
          endchar
        </CharString>
        <CharString name="Uhungarumlaut">
          1513 998 -13 callgsubr
          -930 -1851 -91 callsubr
        </CharString>
        <CharString name="Uinvertedbreve">
          1513 1208 -66 callgsubr
          62 hlineto
          86 18 102 53 158 hhcurveto
          129 90 -52 -74 -4 0 -5 -2 -5 hvcurveto
          63 123 callsubr
          -403 -1935 -91 callsubr
        </CharString>
        <CharString name="Umacron">
          1513 862 1578 rmoveto
          620 hlineto
          39 187 rlineto
          -619 hlineto
          -97 -1790 -91 callsubr
        </CharString>
        <CharString name="Umacrondieresis">
          1513 1049 -40 callgsubr
          222 callsubr
          67 callgsubr
          -76 -1754 -91 callsubr
        </CharString>
        <CharString name="Uogonek">
          1513 793 56 callgsubr
          -24 hhcurveto
          -70 -54 90 113 31 7 29 11 19 hvcurveto
          316 28 181 218 72 324 rrcurveto
          128 573 46 201 22 35 120 23 rlinecurve
          14 63 -385 0 -14 -63 rlineto
          114 -26 15 -35 -36 -198 -110 -563 rcurveline
          -254 -49 -135 -159 -209 hhcurveto
          -181 -91 callgsubr
          36 callgsubr
          95 -23 19 -20 -20 -93 rlinecurve
          -121 -574 -107 -506 271 -180 322 -9 rlinecurve
          -162 -76 -66 -98 -95 vvcurveto
          -109 101 -77 142 vhcurveto
          endchar
        </CharString>
        <CharString name="Upsilondieresisgreek">
          1433 999 1534 rmoveto
          83 67 -95 callgsubr
          -45 callsubr
          353 hmoveto
          83 68 65 80 87 callsubr
          hvcurveto
          -75 -1 58 -60 79 hhcurveto
          -893 -353 -78 callsubr
        </CharString>
        <CharString name="Upsilongreek">
          1433 459 1181 -78 callsubr
        </CharString>
        <CharString name="Upsilontonosgreek">
          1942 968 1181 rmoveto
          158 -543 -93 -440 -19 -91 -25 -22 -120 -22 rlinecurve
          -13 -63 739 0 14 63 -108 23 -20 20 20 92 rlinecurve
          92 -51 callgsubr
          96 16 rlinecurve
          13 63 -389 0 -14 -63 113 -18 11 -39 -101 -156 rlinecurve
          -283 -440 -104 463 -33 138 21 35 105 17 rlinecurve
          13 63 -753 0 -14 -63 84 -17 28 -30 45 -153 rlinecurve
          -635 263 -49 callsubr
        </CharString>
        <CharString name="Uring">
          1513 908 1717 rmoveto
          -111 120 -70 150 200 119 87 110 110 -119 71 -151 -200 -119 -88 -109 vhcurveto
          219 -40 rmoveto
          96 41 84 55 33 20 -28 -56 -96 -39 -83 -55 -34 -21 26 57 vhcurveto
          -322 -1702 -91 callsubr
        </CharString>
        <CharString name="Utilde">
          1513 1308 171 callsubr
          -84 -65 -32 11 callsubr
          -37 callgsubr
          -503 -1572 -91 callsubr
        </CharString>
        <CharString name="Utildeacute">
          1513 1584 -8 callsubr
          29 callsubr
          -18 callgsubr
          -498 -1582 -91 callsubr
        </CharString>
        <CharString name="Utildebelow">
          95 callsubr
          90 -411 rmoveto
          105 1 91 71 33 261 rrcurveto
          -68 hlineto
          -94 -20 -32 -33 -47 hhcurveto
          -37 140 callsubr
          -99 callgsubr
          68 hlineto
          91 19 181 callsubr
        </CharString>
        <CharString name="V">
          81 callgsubr
          endchar
        </CharString>
        <CharString name="Vdotbelow">
          81 callgsubr
          284 -1277 -79 callsubr
          -82 callsubr
        </CharString>
        <CharString name="Vecyrillic">
          1542 1568 450 100 callsubr
        </CharString>
        <CharString name="Vtilde">
          1487 1292 171 callsubr
          -85 -65 -31 11 callsubr
          34 hvcurveto
          28 -18 rlineto
          -29 47 52 -21 60 hhcurveto
          -857 -384 rmoveto
          207 callsubr
          endchar
        </CharString>
        <CharString name="W">
          2275 405 1163 -3 callsubr
        </CharString>
        <CharString name="Wacute">
          2275 1676 -73 callsubr
          -1688 -668 -3 callsubr
        </CharString>
        <CharString name="Wcircumflex">
          2275 1373 137 callsubr
          68 0 -139 306 -228 0 -262 -306 rlineto
          -897 -359 -3 callsubr
        </CharString>
        <CharString name="Wdieresis">
          2275 1465 1534 rmoveto
          83 67 -95 callgsubr
          141 callsubr
          71 callgsubr
          -1413 -371 -3 callsubr
        </CharString>
        <CharString name="Wdotaccent">
          2275 1642 -16 callsubr
          -70 69 -91 77 callsubr
          -1237 -349 -3 callsubr
        </CharString>
        <CharString name="Wdotbelow">
          2275 405 1163 rmoveto
          113 -1170 323 0 500 1046 87 -1046 338 0 556 1127 106 216 49 28 94 17 rlinecurve
          13 63 -402 0 -13 -63 110 -12 14 -46 -85 -194 rlinecurve
          -338 -761 -54 789 -13 174 19 30 108 20 rlinecurve
          14 63 -710 0 -13 -63 105 -14 11 -97 -57 -129 rlinecurve
          -340 -771 -49 790 -9 156 23 46 115 19 rlinecurve
          13 63 -738 0 -15 -63 79 -15 30 -31 16 -172 rlinecurve
          682 -1277 -79 callsubr
          71 callsubr
        </CharString>
        <CharString name="Wgrave">
          2275 1678 -14 callsubr
          -1325 -354 -3 callsubr
        </CharString>
        <CharString name="X">
          1426 342 313 31 callsubr
        </CharString>
        <CharString name="Xdieresis">
          1426 1006 83 callsubr
          -102 callgsubr
          hvcurveto
          -75 -1 58 -60 79 hhcurveto
          354 hmoveto
          82 68 -95 callgsubr
          -68 -65 -82 -75 58 -60 79 vhcurveto
          -1018 -1221 31 callsubr
        </CharString>
        <CharString name="Xdotaccent">
          1426 1183 -59 callsubr
          -841 -1199 31 callsubr
        </CharString>
        <CharString name="Xigreek">
          1370 1587 1444 rmoveto
          -1190 hlineto
          -133 -511 rlineto
          61 hlineto
          179 81 76 38 258 hhcurveto
          376 hlineto
          257 60 -38 -179 5 hvcurveto
          61 hlineto
          -731 -249 rmoveto
          125 hlineto
          159 33 -52 -154 -6 hvcurveto
          58 hlineto
          104 494 rlineto
          -57 hlineto
          -154 -60 -55 -51 -159 hhcurveto
          -125 hlineto
          -161 -33 51 154 5 hvcurveto
          -57 hlineto
          -104 -494 rlineto
          57 hlineto
          154 59 56 52 161 hhcurveto
          540 -684 rmoveto
          141 578 rlineto
          -61 hlineto
          -217 -94 -85 -54 -283 hhcurveto
          -354 hlineto
          -283 -61 54 217 -2 hvcurveto
          -61 hlineto
          -104 -578 rlineto
          endchar
        </CharString>
        <CharString name="Xigreek.1">
          1382 52 hmoveto
          1270 hlineto
          142 578 rlineto
          -62 hlineto
          -217 -93 -85 -54 -283 hhcurveto
          -157 hlineto
          80 377 rlineto
          44 hlineto
          160 32 -52 -154 -6 hvcurveto
          58 hlineto
          104 494 rlineto
          -58 hlineto
          -154 -59 -55 -51 -159 hhcurveto
          -44 hlineto
          81 383 rlineto
          169 hlineto
          258 59 -38 -179 5 hvcurveto
          62 hlineto
          87 511 -1213 0 -134 -511 rlineto
          61 hlineto
          179 82 76 38 258 hhcurveto
          171 hlineto
          -81 -383 rlineto
          -46 hlineto
          -160 -34 51 154 6 hvcurveto
          -58 hlineto
          -104 -494 rlineto
          58 hlineto
          154 59 55 52 161 hhcurveto
          46 hlineto
          -79 -377 rlineto
          -162 hlineto
          -284 -60 54 217 -1 hvcurveto
          -63 hlineto
          endchar
        </CharString>
        <CharString name="Y">
          1433 459 1181 -78 callsubr
        </CharString>
        <CharString name="Yacute">
          1433 1210 1831 rmoveto
          -168 -309 67 0 519 302 rlineto
          7 vlineto
          -1169 -650 -78 callsubr
        </CharString>
        <CharString name="Ycircumflex">
          1433 907 137 callsubr
          69 0 -67 callsubr
          -377 -341 -78 callsubr
        </CharString>
        <CharString name="Ydieresis">
          1433 999 1534 rmoveto
          83 67 -95 callgsubr
          -45 callsubr
          353 hmoveto
          83 68 65 80 87 callsubr
          hvcurveto
          -75 -1 58 -60 79 hhcurveto
          -893 -353 -78 callsubr
        </CharString>
        <CharString name="Ydotaccent">
          1433 1176 -16 callsubr
          -70 69 -91 -98 -10 callsubr
          -717 -331 -78 callsubr
        </CharString>
        <CharString name="Ydotbelow">
          1433 459 1181 rmoveto
          158 -543 -92 -440 -19 -91 -26 -22 -120 -22 rlinecurve
          -13 -63 740 0 13 63 -108 23 -19 20 20 92 rlinecurve
          91 -51 callgsubr
          220 callsubr
          233 -1295 -79 callsubr
          -82 callsubr
        </CharString>
        <CharString name="Yericyrillic">
          2247 224 callsubr
          556 -295 -88 callsubr
          -95 callsubr
          -725 0 -15 -63 102 -19 18 -23 -19 -83 callsubr
          -25 -21 -113 -23 rlinecurve
          -13 -63 725 0 13 63 -101 23 -19 19 20 93 rlinecurve
          -1042 336 -34 callgsubr
          -55 -77 callgsubr
        </CharString>
        <CharString name="Ygrave">
          1433 1212 -14 callsubr
          -805 -336 -78 callsubr
        </CharString>
        <CharString name="Yhookabove">
          1433 1229 178 callsubr
          37 -26 -47 -46 -38 -35 callgsubr
          -770 -673 -78 callsubr
        </CharString>
        <CharString name="Yicyrillic">
          814 581 1535 rmoveto
          104 callsubr
          354 hmoveto
          83 67 -95 callgsubr
          -45 callsubr
          -252 -1337 -88 callsubr
          -95 callsubr
          -89 callsubr
        </CharString>
        <CharString name="Ymacron">
          1433 852 -65 callgsubr
          -433 -584 -78 callsubr
        </CharString>
        <CharString name="Ytilde">
          1433 1298 81 callsubr
          28 243 rrcurveto
          -64 hlineto
          -84 -18 -29 -30 -43 -54 callgsubr
          -84 -65 -32 11 callsubr
          -37 callgsubr
          -839 -366 -78 callsubr
        </CharString>
        <CharString name="Z">
          1311 1240 hmoveto
          13 callsubr
        </CharString>
        <CharString name="Zacute">
          1311 1040 -73 callsubr
          -217 -1831 rmoveto
          13 callsubr
        </CharString>
        <CharString name="Zcaron">
          1311 1299 -81 callsubr
          -60 callsubr
          -76 callsubr
          -136 -1839 rmoveto
          13 callsubr
        </CharString>
        <CharString name="Zcircumflex">
          1311 737 137 callsubr
          69 0 -67 callsubr
          574 -1522 rmoveto
          13 callsubr
        </CharString>
        <CharString name="Zdotaccent">
          1311 1006 -16 callsubr
          -70 69 -91 77 callsubr
          234 -1512 rmoveto
          13 callsubr
        </CharString>
        <CharString name="Zdotbelow">
          35 callgsubr
          572 -114 30 callsubr
          -15 callsubr
        </CharString>
        <CharString name="Zecyrillic">
          1382 576 -25 rmoveto
          454 369 173 320 197 -200 93 -250 13 hvcurveto
          311 28 228 120 230 vvcurveto
          216 -219 104 -367 -198 -158 -41 -57 -99 vhcurveto
          -89 -374 rlineto
          60 hlineto
          239 102 154 147 173 hhcurveto
          108 62 -95 -130 -195 -113 -175 -232 hvcurveto
          -114 hlineto
          -18 -81 rlineto
          114 hlineto
          171 80 -102 -147 -195 -132 -202 -210 -183 -100 162 225 -4 hvcurveto
          -61 hlineto
          -56 -368 rlineto
          -57 83 146 -48 188 hhcurveto
          endchar
        </CharString>
        <CharString name="Zetagreek">
          1311 1240 hmoveto
          13 callsubr
        </CharString>
        <CharString name="Zhecyrillic">
          2274 529 hmoveto
          461 685 61 1 -104 -488 -19 -91 -25 -21 -114 -23 rlinecurve
          -14 -63 728 0 13 63 -102 23 -19 19 20 93 rlinecurve
          104 488 60 -1 176 -685 526 0 13 61 -47 28 -27 27 -62 219 rlinecurve
          -192 714 152 129 154 133 72 45 134 25 rlinecurve
          15 63 -462 0 -13 -63 108 -28 10 -44 -88 -88 rlinecurve
          -451 -453 -61 -1 101 479 19 91 26 21 115 23 rlinecurve
          13 63 -728 0 -13 -63 102 -19 19 -23 -21 -93 rlinecurve
          -101 -480 -60 1 -271 457 -56 97 19 38 113 22 rlinecurve
          13 63 -459 0 -12 -63 129 -27 60 -34 100 -138 rlinecurve
          97 -128 -478 -699 rlineto
          -160 -230 -40 -37 -62 -27 -12 -61 rcurveline
          endchar
        </CharString>
        <CharString name="Zlinebelow">
          35 callgsubr
          224 -375 -23 callsubr
        </CharString>
        <CharString name="a">
          1316 23 callsubr
          -105 callsubr
          -100 callsubr
        </CharString>
        <CharString name="a.dnum">
          802 109 197 rmoveto
          -132 2 72 -77 108 hhcurveto
          92 75 52 94 27 hvcurveto
          -3 -11 -1 -14 -12 vvcurveto
          -72 1 45 -34 77 hhcurveto
          93 74 40 51 39 hvcurveto
          9 42 rlineto
          -8 -12 -15 -5 -19 hhcurveto
          -27 -13 18 45 9 hvcurveto
          79 370 -171 0 -86 -70 rlineto
          43 -14 -55 39 -82 hhcurveto
          -178 -129 -150 -209 3 hvcurveto
          264 -26 rmoveto
          110 -2 37 192 88 hhcurveto
          24 17 -12 -16 4 hvcurveto
          -56 -265 rlineto
          -53 -14 -25 -30 -31 hhcurveto
          -24 -16 19 55 -2 hvcurveto
          endchar
        </CharString>
        <CharString name="a.numr">
          802 254 879 rmoveto
          -133 2 72 -76 108 hhcurveto
          92 75 51 95 27 hvcurveto
          -3 -11 -1 -14 -12 vvcurveto
          -73 1 45 -33 77 hhcurveto
          93 74 40 51 39 hvcurveto
          9 41 rlineto
          -8 -12 -15 -5 -19 hhcurveto
          -28 -12 18 46 9 hvcurveto
          79 370 -171 0 -86 -70 rlineto
          42 -14 -55 39 -83 hhcurveto
          -178 -128 -149 -209 3 hvcurveto
          264 -27 rmoveto
          110 -2 37 192 88 hhcurveto
          24 16 -12 -15 5 hvcurveto
          -57 -265 rlineto
          -54 -13 -25 -30 -31 hhcurveto
          -24 -16 19 55 -2 hvcurveto
          endchar
        </CharString>
        <CharString name="a.sups">
          802 290 1048 rmoveto
          -133 2 71 -76 109 hhcurveto
          91 76 52 94 26 hvcurveto
          -2 -11 -1 -14 -12 vvcurveto
          -72 45 -34 78 92 75 40 51 38 vhcurveto
          10 41 rlineto
          -7 -12 -15 -5 -19 hhcurveto
          -28 -13 17 46 10 hvcurveto
          78 370 -171 0 -85 -70 rlineto
          43 -14 -55 39 -83 hhcurveto
          -178 -128 -150 -209 3 hvcurveto
          263 -26 rmoveto
          110 -2 37 192 89 hhcurveto
          24 16 -12 -16 5 hvcurveto
          -57 -265 rlineto
          -53 -14 -24 -30 -31 hhcurveto
          -25 -16 19 55 -2 hvcurveto
          endchar
        </CharString>
        <CharString name="aacute">
          1316 963 -96 callsubr
          -90 callsubr
          -1255 -1147 -107 callsubr
          -105 callsubr
          -100 callsubr
        </CharString>
        <CharString name="abreve">
          1316 929 44 callsubr
          1 5 hvcurveto
          -72 -71 callgsubr
          -765 -770 -107 callsubr
          -105 callsubr
          -100 callsubr
        </CharString>
        <CharString name="abreveacute">
          1316 1309 -56 callsubr
          -39 callsubr
          273 -312 -51 callsubr
          -716 -731 -107 callsubr
          -105 callsubr
          -100 callsubr
        </CharString>
        <CharString name="abrevecyrillic">
          1316 881 213 callsubr
          -717 -777 -107 callsubr
          -105 callsubr
          -100 callsubr
        </CharString>
        <CharString name="abrevedotbelow">
          1316 929 44 callsubr
          1 5 hvcurveto
          -72 -71 callgsubr
          -765 -770 -107 callsubr
          -105 callsubr
          35 callsubr
          47 -765 -85 callsubr
          68 callsubr
        </CharString>
        <CharString name="abrevegrave">
          1316 630 -41 callsubr
          -5 callsubr
          205 -635 -51 callsubr
          -716 -731 -107 callsubr
          -105 callsubr
          -100 callsubr
        </CharString>
        <CharString name="abrevehookabove">
          1316 999 1695 rmoveto
          -97 -87 -46 -70 -59 hvcurveto
          -9 -45 rlineto
          18 29 89 callgsubr
          -88 -16 rrcurveto
          48 -36 178 24 95 55 22 99 rlinecurve
          93 19 -74 65 -125 hhcurveto
          -119 -596 -51 callsubr
          -716 -731 -107 callsubr
          -105 callsubr
          -100 callsubr
        </CharString>
        <CharString name="abrevetilde">
          1316 1086 108 callsubr
          -206 -344 -51 callsubr
          -716 -731 -107 callsubr
          -105 callsubr
          -100 callsubr
        </CharString>
        <CharString name="acaron">
          1316 1244 -17 callsubr
          -75 -57 callgsubr
          -1160 -1173 -107 callsubr
          -105 callsubr
          -100 callsubr
        </CharString>
        <CharString name="acircumflex">
          1316 612 -71 callsubr
          117 callsubr
          -369 -751 -107 callsubr
          -105 callsubr
          -100 callsubr
        </CharString>
        <CharString name="acircumflexacute">
          1316 1309 -56 callsubr
          -39 callsubr
          -67 -312 -69 callsubr
          -390 -794 -107 callsubr
          -105 callsubr
          -100 callsubr
        </CharString>
        <CharString name="acircumflexdotbelow">
          1316 612 -71 callsubr
          117 callsubr
          -369 -751 -107 callsubr
          -105 callsubr
          35 callsubr
          47 -765 -85 callsubr
          68 callsubr
        </CharString>
        <CharString name="acircumflexgrave">
          1316 630 -41 callsubr
          -5 callsubr
          -135 -635 -69 callsubr
          -390 -794 -107 callsubr
          -105 callsubr
          -100 callsubr
        </CharString>
        <CharString name="acircumflexhookabove">
          1316 1271 175 callsubr
          160 callsubr
          -390 -794 -107 callsubr
          -105 callsubr
          -100 callsubr
        </CharString>
        <CharString name="acircumflextilde">
          1316 1086 108 callsubr
          -546 -344 -69 callsubr
          -390 -794 -107 callsubr
          -105 callsubr
          -100 callsubr
        </CharString>
        <CharString name="acute">
          1024 829 -96 callsubr
          -90 callsubr
          endchar
        </CharString>
        <CharString name="acutecmb">
          0 317 -96 callsubr
          -90 callsubr
          endchar
        </CharString>
        <CharString name="acutecmb.short">
          0 293 1406 -60 callgsubr
          endchar
        </CharString>
        <CharString name="acutedotaccentcmb">
          7 callgsubr
          273 -176 rmoveto
          46 213 -39 callsubr
          endchar
        </CharString>
        <CharString name="acutedotaccentcmb.short">
          0 405 1777 rmoveto
          76 58 48 68 -2 hvcurveto
          69 -2 -60 48 -76 hhcurveto
          -74 -59 -48 -69 2 hvcurveto
          -68 1 61 -48 75 hhcurveto
          287 -157 rmoveto
          38 181 -743 -224 -10 -51 rlineto
          endchar
        </CharString>
        <CharString name="acyrillic">
          1316 23 callsubr
          -105 callsubr
          -100 callsubr
        </CharString>
        <CharString name="adblgrave">
          1316 730 3 callsubr
          -957 -743 -107 callsubr
          -105 callsubr
          -100 callsubr
        </CharString>
        <CharString name="adieresis">
          1316 685 -77 callsubr
          -100 -109 -65 callsubr
          -43 callsubr
          -989 -775 -107 callsubr
          -105 callsubr
          -100 callsubr
        </CharString>
        <CharString name="adieresismacron">
          1316 617 130 callsubr
          47 -519 -9 callsubr
          17 -51 60 callsubr
          -15 49 101 callsubr
          -900 -744 -107 callsubr
          -105 callsubr
          -100 callsubr
        </CharString>
        <CharString name="adotaccent">
          1316 918 -27 callsubr
          88 callsubr
          -754 -764 -107 callsubr
          -105 callsubr
          -100 callsubr
        </CharString>
        <CharString name="adotbelow">
          1316 23 callsubr
          -105 callsubr
          35 callsubr
          47 -765 -85 callsubr
          68 callsubr
        </CharString>
        <CharString name="adotmacron">
          1316 614 159 callsubr
          -747 -738 -107 callsubr
          -105 callsubr
          -100 callsubr
        </CharString>
        <CharString name="ae">
          1625 231 774 144 callsubr
        </CharString>
        <CharString name="aeacute">
          1625 1133 -96 callsubr
          75 callsubr
          -1358 -741 144 callsubr
        </CharString>
        <CharString name="aemacron">
          1625 726 -68 callsubr
          -542 -643 144 callsubr
        </CharString>
        <CharString name="agrave">
          1316 963 -7 callsubr
          -851 -743 -107 callsubr
          -105 callsubr
          -100 callsubr
        </CharString>
        <CharString name="ahookabove">
          1316 989 1533 rmoveto
          -128 -89 -51 -105 -58 5 callsubr
          -58 callgsubr
          -825 -1165 -107 callsubr
          -105 callsubr
          -100 callsubr
        </CharString>
        <CharString name="ainvertedbreve">
          1316 937 119 callsubr
          91 callgsubr
          -118 139 -194 vhcurveto
          -773 -1155 -107 callsubr
          -105 callsubr
          -100 callsubr
        </CharString>
        <CharString name="alphagreek">
          1375 492 -21 189 callsubr
        </CharString>
        <CharString name="alphatonosgreek">
          1375 928 28 callsubr
          24 callsubr
          -811 -1540 189 callsubr
        </CharString>
        <CharString name="amacron">
          1316 556 -68 callsubr
          -439 -1049 -107 callsubr
          -105 callsubr
          -100 callsubr
        </CharString>
        <CharString name="ampersand">
          1592 86 342 rmoveto
          -205 158 -162 266 167 137 64 149 152 vhcurveto
          148 -188 548 0 9 43 -77 53 -74 65 -106 139 rlinecurve
          -154 200 136 152 145 156 52 37 106 14 rlinecurve
          12 63 -414 0 -12 -63 107 -14 28 -47 -89 -112 rlinecurve
          -109 -136 -249 326 -5 5 -4 6 -4 5 rlinecurve
          230 46 155 93 151 vvcurveto
          171 -150 116 -292 -318 -190 -164 -228 -1 vhcurveto
          -109 42 -89 80 -114 vhcurveto
          -275 -58 -155 -146 -219 vvcurveto
          693 896 rmoveto
          95 57 50 73 79 42 -62 -116 -102 -44 -93 -70 -58 vhcurveto
          -100 135 -37 75 76 vvcurveto
          -302 -713 rmoveto
          77 32 65 50 40 vhcurveto
          13 -18 14 -18 15 -19 316 -402 rcurveline
          -21 -44 -43 -7 -46 hhcurveto
          -175 -132 130 173 hvcurveto
          endchar
        </CharString>
        <CharString name="anoteleiagreek">
          563 445 629 rmoveto
          122 102 92 88 callgsubr
          -112 88 -88 124 hvcurveto
          endchar
        </CharString>
        <CharString name="aogonek">
          1316 23 callsubr
          -105 callsubr
          23 23 2 3 22 hvcurveto
          -215 -114 -78 -86 -106 vvcurveto
          -99 86 -62 126 115 99 56 82 46 vhcurveto
          14 61 rlineto
          -14 -20 -24 -8 -26 hhcurveto
          -43 -31 26 56 95 84 119 148 146 hvcurveto
          14 63 rlineto
          -16 -23 -29 -10 -32 hhcurveto
          -49 -23 33 80 18 hvcurveto
          155 729 -284 0 -149 -127 rlineto
          77 -22 -94 70 -143 hhcurveto
          -315 -224 -288 -383 hvcurveto
          439 -53 rmoveto
          219 76 370 162 46 30 -26 -33 10 vhcurveto
          -109 -507 rlineto
          -115 -29 -51 -64 -58 hhcurveto
          -48 -29 43 113 hvcurveto
          endchar
        </CharString>
        <CharString name="approxequal">
          1297 1092 824 rmoveto
          -169 -140 229 -206 hhcurveto
          -173 -124 -125 -243 -33 hvcurveto
          109 hlineto
          158 29 80 75 113 171 141 -230 203 hhcurveto
          165 125 125 238 33 hvcurveto
          -108 hlineto
          -153 -31 -82 -74 -103 hhcurveto
          -118 -552 rmoveto
          -168 -139 230 -208 hhcurveto
          -173 -123 -126 -243 -33 hvcurveto
          108 hlineto
          159 30 80 74 113 171 141 -229 203 hhcurveto
          164 126 124 239 33 hvcurveto
          -108 hlineto
          -154 -31 -82 -74 -104 hhcurveto
          endchar
        </CharString>
        <CharString name="aring">
          1316 602 74 callsubr
          122 callsubr
          -224 124 callsubr
          38 23 -30 -64 -107 -46 -93 -60 -37 -24 29 64 vhcurveto
          -681 -906 -107 callsubr
          -105 callsubr
          -100 callsubr
        </CharString>
        <CharString name="aringacute">
          1316 1309 204 callsubr
          -740 -796 -107 callsubr
          -105 callsubr
          -100 callsubr
        </CharString>
        <CharString name="aringbelow">
          1316 23 callsubr
          -105 callsubr
          35 callsubr
          -275 -600 -43 callgsubr
          130 89 111 -3 hvcurveto
          113 -1 -134 71 -167 hhcurveto
          -223 -130 75 callgsubr
          37 25 -26 -56 1 hvcurveto
          -99 1 -43 -85 -60 hhcurveto
          -37 -25 26 57 -1 hvcurveto
          endchar
        </CharString>
        <CharString name="asciicircum">
          1320 907 1444 rmoveto
          -555 -597 79 -73 523 539 298 -539 91 72 -302 598 rlineto
          endchar
        </CharString>
        <CharString name="asciitilde">
          1297 1029 528 rmoveto
          -168 -139 231 -208 hhcurveto
          -173 -124 -127 -242 -32 hvcurveto
          108 hlineto
          159 30 80 74 113 171 140 -230 204 hhcurveto
          164 125 125 239 34 hvcurveto
          -108 hlineto
          -154 -31 -83 -75 -103 hhcurveto
          endchar
        </CharString>
        <CharString name="asterisk">
          985 781 1475 rmoveto
          -73 -47 -52 -96 -22 0 -24 7 -27 hvcurveto
          40 -190 14 0 124 181 rlineto
          30 45 11 42 34 vvcurveto
          66 -44 43 -62 vhcurveto
          -311 -139 rmoveto
          -69 -50 -52 -63 -60 40 -50 115 -28 hvcurveto
          183 -36 7 10 -78 168 rlineto
          83 -40 -58 28 -50 hhcurveto
          560 -57 rmoveto
          -52 -42 -21 -66 -67 hvcurveto
          -136 -136 5 -11 151 -2 rlineto
          184 2 65 59 72 vvcurveto
          60 -43 43 -65 vhcurveto
          -634 -483 rmoveto
          52 40 24 64 68 hvcurveto
          136 138 -5 11 rlineto
          -150 hlineto
          -185 -3 -64 -58 -72 vvcurveto
          -60 43 -44 65 vhcurveto
          679 59 rmoveto
          59 -40 53 -115 25 vhcurveto
          -183 38 -7 -10 78 -169 rlineto
          -83 39 59 -28 50 hhcurveto
          68 51 52 63 hvcurveto
          -430 -254 rmoveto
          73 47 52 95 23 -1 24 -6 27 hvcurveto
          -41 190 -14 0 -123 -181 rlineto
          -32 -46 -10 -41 -34 vvcurveto
          -66 45 -43 62 vhcurveto
          endchar
        </CharString>
        <CharString name="at">
          2153 1085 -436 rmoveto
          169 185 37 91 117 hvcurveto
          -3 65 rlineto
          -90 -137 -160 -19 -156 hhcurveto
          -438 -1 -369 297 489 vvcurveto
          597 473 361 492 509 335 -301 -420 -317 -192 -213 -190 -102 -26 60 102 21 vhcurveto
          149 693 -214 0 -178 -126 rlineto
          87 -30 -80 58 -118 hhcurveto
          -281 -185 -294 -322 -225 100 -119 155 137 118 90 181 70 hvcurveto
          -3 -23 -2 -25 -18 vvcurveto
          -130 -2 81 -117 223 hhcurveto
          467 178 370 303 463 -392 327 -549 -555 -506 -405 -637 -541 416 -329 473 1 hvcurveto
          -16 838 rmoveto
          167 82 322 127 44 30 -35 -75 -12 vhcurveto
          -78 -363 rlineto
          -102 -22 -47 -60 -54 hhcurveto
          -51 -19 52 94 hvcurveto
          endchar
        </CharString>
        <CharString name="atilde">
          1316 1060 -48 callsubr
          -72 27 callsubr
          -11 callsubr
          22 callsubr
          51 hhcurveto
          38 1 -36 callgsubr
          71 1 rlinecurve
          -896 -780 -107 callsubr
          -105 callsubr
          -100 callsubr
        </CharString>
        <CharString name="austral">
          1401 84 394 rmoveto
          213 hlineto
          -56 -109 -86 -173 -46 -33 -94 -16 rlinecurve
          -14 -63 376 0 14 63 -96 16 -31 35 77 161 rlinecurve
          58 119 414 0 10 -137 7 -129 -19 -46 -119 -18 rlinecurve
          -13 -64 719 0 14 64 -78 13 -33 31 -13 148 rlinecurve
          -14 138 211 0 10 51 -225 0 -22 222 296 0 10 51 -311 0 -70 727 -335 0 -374 -727 -311 0 -11 -51 296 0 -114 -222 rlineto
          -229 hlineto
          464 273 rmoveto
          205 417 28 -417 rlineto
          -367 -273 rmoveto
          109 222 261 0 15 -222 rlineto
          endchar
        </CharString>
        <CharString name="austral.tnum">
          1359 105 441 rmoveto
          -11 -52 195 0 -52 -104 -84 -173 -43 -33 -83 -16 rlinecurve
          -14 -63 362 0 15 63 -97 16 -27 34 75 162 rlinecurve
          54 114 383 0 6 -132 5 -129 -18 -45 -120 -19 rlinecurve
          -14 -64 709 0 14 64 -69 12 -29 33 -10 147 rlinecurve
          -10 133 188 0 11 52 -203 0 -17 221 268 0 11 52 -283 0 -55 731 -349 0 -363 -731 -286 0 -11 -52 271 0 -109 -221 rlineto
          234 273 rmoveto
          196 415 19 -415 rlineto
          -344 -273 rmoveto
          104 221 242 0 10 -221 rlineto
          endchar
        </CharString>
        <CharString name="b">
          185 callsubr
          endchar
        </CharString>
        <CharString name="backslash">
          892 569 -291 rmoveto
          134 hlineto
          -104 1882 rlineto
          -134 hlineto
          endchar
        </CharString>
        <CharString name="baht">
          1488 1503 467 rmoveto
          158 -128 141 -289 22 vhcurveto
          268 9 224 93 204 vvcurveto
          178 -153 118 -334 21 vhcurveto
          47 219 -51 0 -47 -217 rlineto
          1 -20 -21 0 -22 hhcurveto
          -631 hlineto
          -14 -63 rlineto
          102 -23 18 -19 -20 -94 -205 -987 rcurveline
          -19 -91 -26 -21 -113 -23 -14 -63 rcurveline
          622 hlineto
          24 23 0 1 22 hvcurveto
          -47 -220 52 0 47 222 rlineto
          423 22 282 141 271 vvcurveto
          -602 874 rmoveto
          36 -2 31 -1 28 -7 24 -11 rlinecurve
          -108 -509 -19 -3 -21 -2 -22 -1 rlinecurve
          -63 hlineto
          353 288 rmoveto
          -127 -60 -100 -114 -41 vhcurveto
          99 466 rlineto
          49 -42 26 -69 -87 vvcurveto
          -369 -360 rmoveto
          61 -3 rlineto
          21 -2 21 -4 18 -6 -129 -607 rcurveline
          -23 -4 -25 -2 -27 -1 -51 -1 rcurveline
          403 365 rmoveto
          -153 -62 -141 -161 -50 vhcurveto
          122 572 rlineto
          65 -42 36 -79 -107 vvcurveto
          endchar
        </CharString>
        <CharString name="baht.tnum">
          -5 callgsubr
          162 -145 113 -311 20 vhcurveto
          47 219 -51 0 -46 -217 rlineto
          1 -17 -18 0 -17 hhcurveto
          -579 hlineto
          -13 -63 rlineto
          85 -19 18 -24 -19 -93 -207 -987 rcurveline
          -19 -91 -19 -23 -102 -21 -14 -63 rcurveline
          592 hlineto
          12 11 0 11 hhcurveto
          -46 -219 51 0 47 221 rlineto
          401 17 273 141 277 vvcurveto
          -554 874 rmoveto
          30 -2 27 -2 24 -6 22 -9 rlinecurve
          -109 -512 -16 -3 -17 -1 -17 -1 rlinecurve
          -58 hlineto
          335 314 rmoveto
          -136 -60 -114 -112 -44 vhcurveto
          100 471 rlineto
          47 -38 25 -60 -79 vvcurveto
          -351 -386 rmoveto
          48 -3 rlineto
          20 -2 19 -4 18 -5 -130 -611 rcurveline
          -2 -13 -13 -1 -14 hhcurveto
          -69 -2 rlineto
          385 399 rmoveto
          -166 -72 -163 -150 -52 vhcurveto
          123 577 rlineto
          65 -39 34 -71 -86 vvcurveto
          endchar
        </CharString>
        <CharString name="bar">
          892 317 -291 rmoveto
          134 hlineto
          400 1882 rlineto
          -134 hlineto
          endchar
        </CharString>
        <CharString name="bdotaccent">
          1315 723 1557 rmoveto
          115 93 89 108 105 -81 81 -108 -115 -94 -88 -111 -102 81 -82 109 hvcurveto
          645 -907 79 callsubr
          201 callsubr
          endchar
        </CharString>
        <CharString name="bdotbelow">
          185 callsubr
          -350 -1153 rmoveto
          107 86 80 98 hvcurveto
          94 -1 -76 73 -100 hhcurveto
          -108 -87 -79 -100 1 hvcurveto
          -92 1 76 -74 101 hhcurveto
          endchar
        </CharString>
        <CharString name="becyrillic">
          1301 1339 533 rmoveto
          271 -197 190 -290 -237 -188 -129 -191 -93 vhcurveto
          -3 26 -1 26 31 vvcurveto
          1 230 103 125 454 20 rrcurveto
          2 115 6 3 hhcurveto
          332 13 122 110 64 288 rrcurveto
          -65 hlineto
          -25 -48 -100 -16 -206 -11 rrcurveto
          -578 -30 -369 -403 -546 vvcurveto
          -325 198 -192 309 383 266 232 323 vhcurveto
          -425 189 rmoveto
          -234 -81 -427 -135 -60 -31 61 131 235 82 427 136 59 30 -61 -132 vhcurveto
          endchar
        </CharString>
</ttFont>
